NerdfontsPL-Regular.ufo
<glyph name="uniE0A0" format="2">
  <advance width="1000"/>
  <unicode hex="E0A0"/>
  <note>
uniE0A0
</note>
  <outline>
    <contour>
      <point x="140" y="-480" type="line"/>
      <point x="370" y="-480" type="line"/>
      <point x="370" y="48" type="line" smooth="yes"/>
      <point x="370" y="307"/>
      <point x="439" y="350"/>
      <point x="657" y="528" type="curve" smooth="yes"/>
      <point x="788" y="636"/>
      <point x="834" y="742"/>
      <point x="834" y="934" type="curve" smooth="yes"/>
      <point x="834" y="1576" type="line"/>
      <point x="1008" y="1576" type="line"/>
      <point x="766" y="1918" type="line"/>
      <point x="522" y="1576" type="line"/>
      <point x="696" y="1576" type="line"/>
      <point x="696" y="990" type="line" smooth="yes"/>
      <point x="696" y="865"/>
      <point x="665" y="777"/>
      <point x="558" y="702" type="curve" smooth="yes"/>
      <point x="180" y="439"/>
      <point x="140" y="348"/>
      <point x="140" y="48" type="curve"/>
    </contour>
    <contour>
      <point x="140" y="682" type="line"/>
      <point x="370" y="860" type="line"/>
      <point x="370" y="2226" type="line"/>
      <point x="140" y="2226" type="line"/>
    </contour>
  </outline>
</glyph>
<glyph name="uniE0A1" format="2">
  <advance width="1000"/>
  <unicode hex="E0A1"/>
  <note>
uniE0A1
</note>
  <outline>
    <contour>
      <point x="322" y="-231" type="line"/>
      <point x="452" y="-231" type="line"/>
      <point x="452" y="-35" type="line"/>
      <point x="437" y="353" type="line"/>
      <point x="640" y="-231" type="line"/>
      <point x="778" y="-231" type="line"/>
      <point x="778" y="669" type="line"/>
      <point x="648" y="669" type="line"/>
      <point x="648" y="511" type="line"/>
      <point x="665" y="83" type="line"/>
      <point x="458" y="669" type="line"/>
      <point x="322" y="669" type="line"/>
    </contour>
    <contour>
      <point x="222" y="751" type="line"/>
      <point x="642" y="751" type="line"/>
      <point x="642" y="883" type="line"/>
      <point x="348" y="883" type="line"/>
      <point x="348" y="1651" type="line"/>
      <point x="222" y="1651" type="line"/>
    </contour>
  </outline>
</glyph>
<glyph name="uniE0A2" format="2">
  <advance width="1000"/>
  <unicode hex="E0A2"/>
  <note>
uniE0A2
</note>
  <outline>
    <contour>
      <point x="278" y="-52" type="curve"/>
      <point x="720" y="-52" type="line" smooth="yes"/>
      <point x="799" y="-52"/>
      <point x="838" y="-5"/>
      <point x="838" y="89" type="curve" smooth="yes"/>
      <point x="838" y="777" type="line" smooth="yes"/>
      <point x="838" y="878"/>
      <point x="804" y="929"/>
      <point x="737" y="929" type="curve"/>
      <point x="737" y="1234" type="line" smooth="yes"/>
      <point x="737" y="1445"/>
      <point x="658" y="1550"/>
      <point x="500" y="1550" type="curve" smooth="yes"/>
      <point x="342" y="1550"/>
      <point x="263" y="1445"/>
      <point x="263" y="1234" type="curve" smooth="yes"/>
      <point x="263" y="929" type="line"/>
      <point x="196" y="929"/>
      <point x="162" y="878"/>
      <point x="162" y="777" type="curve" smooth="yes"/>
      <point x="162" y="89" type="line" smooth="yes"/>
      <point x="162" y="-5"/>
      <point x="201" y="-52"/>
    </contour>
    <contour>
      <point x="452" y="184" type="line"/>
      <point x="452" y="507" type="line"/>
      <point x="415" y="530"/>
      <point x="397" y="567"/>
      <point x="397" y="618" type="curve" smooth="yes"/>
      <point x="397" y="688"/>
      <point x="442" y="743"/>
      <point x="499" y="743" type="curve" smooth="yes"/>
      <point x="555" y="743"/>
      <point x="602" y="693"/>
      <point x="602" y="618" type="curve" smooth="yes"/>
      <point x="602" y="567"/>
      <point x="583" y="530"/>
      <point x="547" y="507" type="curve"/>
      <point x="547" y="184" type="line"/>
    </contour>
    <contour>
      <point x="377" y="929" type="line"/>
      <point x="377" y="1234" type="line" smooth="yes"/>
      <point x="377" y="1359"/>
      <point x="418" y="1421"/>
      <point x="500" y="1421" type="curve" smooth="yes"/>
      <point x="582" y="1421"/>
      <point x="623" y="1359"/>
      <point x="623" y="1234" type="curve" smooth="yes"/>
      <point x="623" y="929" type="line"/>
    </contour>
  </outline>
</glyph>
<glyph name="uniE0B5" format="2">
  <advance width="1000"/>
  <unicode hex="E0B5"/>
  <note>
uniE0B5
</note>
  <outline>
    <contour>
      <point x="0" y="-480" type="curve"/>
      <point x="198" y="-480" type="line"/>
      <point x="682" y="-273"/>
      <point x="1000" y="264"/>
      <point x="1000" y="873" type="curve" smooth="yes"/>
      <point x="1000" y="1480"/>
      <point x="682" y="2017"/>
      <point x="198" y="2226" type="curve"/>
      <point x="0" y="2226" type="line"/>
      <point x="483" y="2012"/>
      <point x="802" y="1475"/>
      <point x="802" y="873" type="curve" smooth="yes"/>
      <point x="802" y="269"/>
      <point x="483" y="-268"/>
    </contour>
  </outline>
</glyph>
<glyph name="uniE0C0" format="2">
  <advance width="1000"/>
  <unicode hex="E0C0"/>
  <note>
uniE0C0
</note>
  <outline>
    <contour>
      <point x="8" y="-480" type="line"/>
      <point x="26" y="-480"/>
      <point x="47" y="-444"/>
      <point x="67" y="-398" type="curve" smooth="yes"/>
      <point x="78" y="-370"/>
      <point x="88" y="-344"/>
      <point x="99" y="-318" type="curve" smooth="yes"/>
      <point x="118" y="-274"/>
      <point x="138" y="-241"/>
      <point x="156" y="-241" type="curve" smooth="yes"/>
      <point x="159" y="-241"/>
      <point x="162" y="-242"/>
      <point x="166" y="-245" type="curve" smooth="yes"/>
      <point x="174" y="-252"/>
      <point x="184" y="-256"/>
      <point x="192" y="-256" type="curve" smooth="yes"/>
      <point x="200" y="-256"/>
      <point x="207" y="-253"/>
      <point x="213" y="-250" type="curve" smooth="yes"/>
      <point x="221" y="-246"/>
      <point x="229" y="-240"/>
      <point x="238" y="-234" type="curve" smooth="yes"/>
      <point x="250" y="-223"/>
      <point x="272" y="-199"/>
      <point x="285" y="-189" type="curve" smooth="yes"/>
      <point x="294" y="-181"/>
      <point x="302" y="-175"/>
      <point x="309" y="-170" type="curve"/>
      <point x="295" y="-159"/>
      <point x="268" y="-148"/>
      <point x="249" y="-133" type="curve" smooth="yes"/>
      <point x="240" y="-124"/>
      <point x="231" y="-112"/>
      <point x="223" y="-98" type="curve" smooth="yes"/>
      <point x="202" y="-60"/>
      <point x="188" y="-41"/>
      <point x="172" y="-41" type="curve" smooth="yes"/>
      <point x="169" y="-41"/>
      <point x="165" y="-42"/>
      <point x="162" y="-44" type="curve" smooth="yes"/>
      <point x="151" y="-50"/>
      <point x="139" y="-63"/>
      <point x="127" y="-86" type="curve"/>
      <point x="127" y="-65" type="line" smooth="yes"/>
      <point x="124" y="57"/>
      <point x="158" y="165"/>
      <point x="188" y="204" type="curve" smooth="yes"/>
      <point x="197" y="217"/>
      <point x="208" y="223"/>
      <point x="218" y="223" type="curve" smooth="yes"/>
      <point x="228" y="223"/>
      <point x="240" y="216"/>
      <point x="250" y="206" type="curve" smooth="yes"/>
      <point x="260" y="196"/>
      <point x="270" y="184"/>
      <point x="281" y="170" type="curve" smooth="yes"/>
      <point x="298" y="148"/>
      <point x="326" y="106"/>
      <point x="342" y="91" type="curve" smooth="yes"/>
      <point x="353" y="80"/>
      <point x="364" y="76"/>
      <point x="373" y="76" type="curve" smooth="yes"/>
      <point x="423" y="76"/>
      <point x="482" y="108"/>
      <point x="521" y="185" type="curve"/>
      <point x="498" y="162"/>
      <point x="476" y="150"/>
      <point x="456" y="150" type="curve" smooth="yes"/>
      <point x="447" y="150"/>
      <point x="438" y="154"/>
      <point x="430" y="158" type="curve" smooth="yes"/>
      <point x="409" y="170"/>
      <point x="392" y="206"/>
      <point x="384" y="241" type="curve" smooth="yes"/>
      <point x="376" y="275"/>
      <point x="362" y="333"/>
      <point x="351" y="364" type="curve" smooth="yes"/>
      <point x="345" y="379" type="line"/>
      <point x="362" y="399"/>
      <point x="373" y="416"/>
      <point x="385" y="445" type="curve" smooth="yes"/>
      <point x="387" y="449"/>
      <point x="391" y="460"/>
      <point x="397" y="477" type="curve" smooth="yes"/>
      <point x="402" y="494"/>
      <point x="407" y="506"/>
      <point x="409" y="514" type="curve" smooth="yes"/>
      <point x="414" y="526"/>
      <point x="419" y="530"/>
      <point x="427" y="530" type="curve" smooth="yes"/>
      <point x="439" y="530"/>
      <point x="454" y="515"/>
      <point x="468" y="496" type="curve" smooth="yes"/>
      <point x="481" y="478"/>
      <point x="506" y="441"/>
      <point x="520" y="421" type="curve" smooth="yes"/>
      <point x="530" y="407"/>
      <point x="538" y="395"/>
      <point x="546" y="387" type="curve" smooth="yes"/>
      <point x="560" y="370"/>
      <point x="575" y="364"/>
      <point x="588" y="364" type="curve" smooth="yes"/>
      <point x="594" y="364"/>
      <point x="615" y="370"/>
      <point x="622" y="370" type="curve" smooth="yes"/>
      <point x="641" y="370"/>
      <point x="677" y="416"/>
      <point x="702" y="451" type="curve" smooth="yes"/>
      <point x="716" y="469"/>
      <point x="742" y="509"/>
      <point x="755" y="529" type="curve" smooth="yes"/>
      <point x="771" y="552"/>
      <point x="793" y="586"/>
      <point x="808" y="608" type="curve"/>
      <point x="746" y="560"/>
      <point x="687" y="526"/>
      <point x="653" y="526" type="curve" smooth="yes"/>
      <point x="645" y="526"/>
      <point x="638" y="528"/>
      <point x="633" y="532" type="curve"/>
      <point x="633" y="533"/>
      <point x="578" y="588"/>
      <point x="569" y="607" type="curve" smooth="yes"/>
      <point x="547" y="650"/>
      <point x="517" y="726"/>
      <point x="492" y="768" type="curve" smooth="yes"/>
      <point x="483" y="781"/>
      <point x="476" y="788"/>
      <point x="470" y="788" type="curve" smooth="yes"/>
      <point x="469" y="788"/>
      <point x="468" y="788"/>
      <point x="467" y="786" type="curve" smooth="yes"/>
      <point x="456" y="781" type="line"/>
      <point x="463" y="808" type="line" smooth="yes"/>
      <point x="487" y="896"/>
      <point x="513" y="936"/>
      <point x="540" y="946" type="curve" smooth="yes"/>
      <point x="556" y="952"/>
      <point x="562" y="954"/>
      <point x="582" y="956" type="curve" smooth="yes"/>
      <point x="592" y="957"/>
      <point x="599" y="957"/>
      <point x="604" y="958" type="curve" smooth="yes"/>
      <point x="641" y="966"/>
      <point x="668" y="994"/>
      <point x="706" y="1056" type="curve"/>
      <point x="696" y="1049"/>
      <point x="687" y="1047"/>
      <point x="677" y="1047" type="curve" smooth="yes"/>
      <point x="668" y="1047"/>
      <point x="660" y="1049"/>
      <point x="652" y="1055" type="curve" smooth="yes"/>
      <point x="628" y="1072"/>
      <point x="618" y="1069"/>
      <point x="593" y="1091" type="curve" smooth="yes"/>
      <point x="578" y="1103"/>
      <point x="566" y="1122"/>
      <point x="556" y="1150" type="curve" smooth="yes"/>
      <point x="551" y="1166" type="line"/>
      <point x="567" y="1180"/>
      <point x="588" y="1208"/>
      <point x="608" y="1249" type="curve" smooth="yes"/>
      <point x="613" y="1259"/>
      <point x="646" y="1334"/>
      <point x="648" y="1336" type="curve"/>
      <point x="674" y="1398"/>
      <point x="708" y="1430"/>
      <point x="737" y="1433" type="curve" smooth="yes"/>
      <point x="742" y="1433"/>
      <point x="746" y="1434"/>
      <point x="751" y="1434" type="curve" smooth="yes"/>
      <point x="777" y="1434"/>
      <point x="804" y="1428"/>
      <point x="828" y="1417" type="curve" smooth="yes"/>
      <point x="847" y="1408"/>
      <point x="866" y="1404"/>
      <point x="885" y="1404" type="curve" smooth="yes"/>
      <point x="897" y="1404"/>
      <point x="908" y="1405"/>
      <point x="918" y="1408" type="curve" smooth="yes"/>
      <point x="946" y="1417"/>
      <point x="976" y="1457"/>
      <point x="1000" y="1531" type="curve"/>
      <point x="978" y="1491"/>
      <point x="955" y="1476"/>
      <point x="934" y="1476" type="curve" smooth="yes"/>
      <point x="921" y="1476"/>
      <point x="905" y="1484"/>
      <point x="888" y="1503" type="curve" smooth="yes"/>
      <point x="860" y="1533"/>
      <point x="841" y="1563"/>
      <point x="810" y="1617" type="curve" smooth="yes"/>
      <point x="762" y="1700"/>
      <point x="715" y="1743"/>
      <point x="669" y="1743" type="curve" smooth="yes"/>
      <point x="643" y="1743"/>
      <point x="618" y="1730"/>
      <point x="592" y="1704" type="curve" smooth="yes"/>
      <point x="566" y="1675"/>
      <point x="530" y="1607"/>
      <point x="504" y="1561" type="curve" smooth="yes"/>
      <point x="482" y="1521"/>
      <point x="454" y="1488"/>
      <point x="428" y="1488" type="curve" smooth="yes"/>
      <point x="421" y="1488"/>
      <point x="414" y="1490"/>
      <point x="408" y="1495" type="curve" smooth="yes"/>
      <point x="371" y="1518"/>
      <point x="348" y="1589"/>
      <point x="348" y="1670" type="curve" smooth="yes"/>
      <point x="348" y="1740"/>
      <point x="364" y="1802"/>
      <point x="395" y="1838" type="curve" smooth="yes"/>
      <point x="411" y="1859"/>
      <point x="434" y="1883"/>
      <point x="450" y="1903" type="curve" smooth="yes"/>
      <point x="457" y="1912"/>
      <point x="464" y="1922"/>
      <point x="472" y="1936" type="curve" smooth="yes"/>
      <point x="490" y="1962"/>
      <point x="504" y="1995"/>
      <point x="518" y="2038" type="curve"/>
      <point x="492" y="1987"/>
      <point x="468" y="1954"/>
      <point x="442" y="1954" type="curve" smooth="yes"/>
      <point x="427" y="1954"/>
      <point x="411" y="1966"/>
      <point x="392" y="1994" type="curve" smooth="yes"/>
      <point x="373" y="2022"/>
      <point x="356" y="2035"/>
      <point x="339" y="2035" type="curve" smooth="yes"/>
      <point x="326" y="2035"/>
      <point x="314" y="2028"/>
      <point x="302" y="2012" type="curve" smooth="yes"/>
      <point x="289" y="1995"/>
      <point x="273" y="1966"/>
      <point x="257" y="1926" type="curve" smooth="yes"/>
      <point x="248" y="1903"/>
      <point x="231" y="1863"/>
      <point x="216" y="1832" type="curve" smooth="yes"/>
      <point x="208" y="1815"/>
      <point x="202" y="1803"/>
      <point x="198" y="1795" type="curve" smooth="yes"/>
      <point x="192" y="1788"/>
      <point x="185" y="1778"/>
      <point x="178" y="1767" type="curve" smooth="yes"/>
      <point x="168" y="1751"/>
      <point x="157" y="1742"/>
      <point x="147" y="1742" type="curve" smooth="yes"/>
      <point x="132" y="1742"/>
      <point x="120" y="1759"/>
      <point x="112" y="1798" type="curve" smooth="yes"/>
      <point x="108" y="1810"/>
      <point x="108" y="1821"/>
      <point x="108" y="1833" type="curve" smooth="yes"/>
      <point x="108" y="1852"/>
      <point x="112" y="1872"/>
      <point x="119" y="1891" type="curve" smooth="yes"/>
      <point x="125" y="1904"/>
      <point x="136" y="1925"/>
      <point x="152" y="1950" type="curve" smooth="yes"/>
      <point x="168" y="1975"/>
      <point x="178" y="1995"/>
      <point x="180" y="2007" type="curve" smooth="yes"/>
      <point x="187" y="2035"/>
      <point x="210" y="2129"/>
      <point x="219" y="2151" type="curve" smooth="yes"/>
      <point x="232" y="2186"/>
      <point x="245" y="2206"/>
      <point x="268" y="2203" type="curve"/>
      <point x="252" y="2228"/>
      <point x="238" y="2241"/>
      <point x="222" y="2241" type="curve" smooth="yes"/>
      <point x="201" y="2241"/>
      <point x="180" y="2218"/>
      <point x="158" y="2172" type="curve" smooth="yes"/>
      <point x="143" y="2140"/>
      <point x="133" y="2123"/>
      <point x="118" y="2101" type="curve" smooth="yes"/>
      <point x="110" y="2089"/>
      <point x="103" y="2080"/>
      <point x="97" y="2077" type="curve" smooth="yes"/>
      <point x="92" y="2074"/>
      <point x="87" y="2072"/>
      <point x="82" y="2072" type="curve" smooth="yes"/>
      <point x="65" y="2072"/>
      <point x="50" y="2092"/>
      <point x="36" y="2141" type="curve" smooth="yes"/>
      <point x="27" y="2173"/>
      <point x="24" y="2194"/>
      <point x="17" y="2211" type="curve" smooth="yes"/>
      <point x="12" y="2221"/>
      <point x="8" y="2221"/>
      <point x="1" y="2222" type="curve"/>
      <point x="1" y="2198"/>
      <point x="0" y="2170"/>
      <point x="0" y="2138" type="curve" smooth="yes"/>
      <point x="0" y="2076"/>
      <point x="1" y="1999"/>
      <point x="2" y="1910" type="curve" smooth="yes"/>
      <point x="2" y="1776"/>
      <point x="2" y="1687"/>
      <point x="3" y="1650" type="curve" smooth="yes"/>
      <point x="3" y="1171"/>
      <point x="2" y="-258"/>
      <point x="1" y="-478" type="curve"/>
      <point x="3" y="-480"/>
      <point x="6" y="-480"/>
      <point x="8" y="-480" type="curve"/>
    </contour>
  </outline>
</glyph>
<glyph name="uniE0C1" format="2">
  <advance width="1000"/>
  <unicode hex="E0C1"/>
  <note>
uniE0C1
</note>
  <outline>
    <contour>
      <point x="13" y="-480" type="line"/>
      <point x="70" y="-480"/>
      <point x="112" y="-251"/>
      <point x="156" y="-251" type="curve" smooth="yes"/>
      <point x="163" y="-251"/>
      <point x="172" y="-264"/>
      <point x="189" y="-264" type="curve" smooth="yes"/>
      <point x="230" y="-264"/>
      <point x="282" y="-187"/>
      <point x="303" y="-183" type="curve"/>
      <point x="332" y="-62" type="line"/>
      <point x="300" y="-40"/>
      <point x="273" y="-33"/>
      <point x="251" y="8" type="curve" smooth="yes"/>
      <point x="240" y="28"/>
      <point x="221" y="64"/>
      <point x="200" y="64" type="curve" smooth="yes"/>
      <point x="183" y="64"/>
      <point x="169" y="47"/>
      <point x="159" y="31" type="curve"/>
      <point x="159" y="43" type="line" smooth="yes"/>
      <point x="159" y="86"/>
      <point x="167" y="190"/>
      <point x="212" y="190" type="curve" smooth="yes"/>
      <point x="258" y="190"/>
      <point x="310" y="52"/>
      <point x="365" y="52" type="curve" smooth="yes"/>
      <point x="430" y="52"/>
      <point x="478" y="97"/>
      <point x="514" y="166" type="curve" smooth="yes"/>
      <point x="530" y="196"/>
      <point x="531" y="244"/>
      <point x="532" y="278" type="curve"/>
      <point x="515" y="261"/>
      <point x="494" y="247"/>
      <point x="472" y="247" type="curve" smooth="yes"/>
      <point x="412" y="247"/>
      <point x="399" y="359"/>
      <point x="384" y="416" type="curve"/>
      <point x="392" y="439"/>
      <point x="401" y="461"/>
      <point x="409" y="484" type="curve"/>
      <point x="411" y="484"/>
      <point x="412" y="485"/>
      <point x="413" y="485" type="curve" smooth="yes"/>
      <point x="453" y="485"/>
      <point x="511" y="327"/>
      <point x="571" y="327" type="curve" smooth="yes"/>
      <point x="663" y="327"/>
      <point x="726" y="492"/>
      <point x="787" y="565" type="curve"/>
      <point x="794" y="604"/>
      <point x="801" y="643"/>
      <point x="809" y="683" type="curve"/>
      <point x="775" y="656"/>
      <point x="702" y="604"/>
      <point x="662" y="604" type="curve" smooth="yes"/>
      <point x="657" y="604"/>
      <point x="650" y="604"/>
      <point x="645" y="610" type="curve" smooth="yes"/>
      <point x="625" y="630"/>
      <point x="598" y="652"/>
      <point x="583" y="681" type="curve" smooth="yes"/>
      <point x="562" y="719"/>
      <point x="519" y="831"/>
      <point x="493" y="853" type="curve"/>
      <point x="516" y="893"/>
      <point x="554" y="886"/>
      <point x="587" y="894" type="curve" smooth="yes"/>
      <point x="629" y="904"/>
      <point x="663" y="950"/>
      <point x="690" y="993" type="curve" smooth="yes"/>
      <point x="699" y="1007"/>
      <point x="712" y="1089"/>
      <point x="712" y="1110" type="curve"/>
      <point x="702" y="1107"/>
      <point x="695" y="1102"/>
      <point x="685" y="1102" type="curve" smooth="yes"/>
      <point x="662" y="1102"/>
      <point x="603" y="1141"/>
      <point x="588" y="1162" type="curve"/>
      <point x="618" y="1218"/>
      <point x="649" y="1332"/>
      <point x="708" y="1332" type="curve" smooth="yes"/>
      <point x="752" y="1332"/>
      <point x="792" y="1305"/>
      <point x="834" y="1305" type="curve" smooth="yes"/>
      <point x="914" y="1305"/>
      <point x="955" y="1385"/>
      <point x="985" y="1471" type="curve" smooth="yes"/>
      <point x="992" y="1490"/>
      <point x="1000" y="1517"/>
      <point x="1000" y="1538" type="curve" smooth="yes"/>
      <point x="1000" y="1544"/>
      <point x="1000" y="1551"/>
      <point x="997" y="1554" type="curve"/>
      <point x="990" y="1557" type="line"/>
      <point x="978" y="1534"/>
      <point x="960" y="1513"/>
      <point x="938" y="1513" type="curve" smooth="yes"/>
      <point x="849" y="1513"/>
      <point x="796" y="1767"/>
      <point x="678" y="1767" type="curve" smooth="yes"/>
      <point x="561" y="1767"/>
      <point x="517" y="1524"/>
      <point x="448" y="1524" type="curve" smooth="yes"/>
      <point x="394" y="1524"/>
      <point x="372" y="1628"/>
      <point x="372" y="1684" type="curve" smooth="yes"/>
      <point x="372" y="1689"/>
      <point x="372" y="1710"/>
      <point x="374" y="1714" type="curve" smooth="yes"/>
      <point x="379" y="1731"/>
      <point x="450" y="1808"/>
      <point x="466" y="1831" type="curve" smooth="yes"/>
      <point x="490" y="1866"/>
      <point x="508" y="1919"/>
      <point x="522" y="1962" type="curve" smooth="yes"/>
      <point x="528" y="1980"/>
      <point x="536" y="2006"/>
      <point x="536" y="2026" type="curve" smooth="yes"/>
      <point x="536" y="2031"/>
      <point x="536" y="2037"/>
      <point x="532" y="2040" type="curve"/>
      <point x="524" y="2038" type="line"/>
      <point x="513" y="2012"/>
      <point x="485" y="1967"/>
      <point x="459" y="1967" type="curve" smooth="yes"/>
      <point x="420" y="1967"/>
      <point x="405" y="2045"/>
      <point x="361" y="2045" type="curve" smooth="yes"/>
      <point x="284" y="2045"/>
      <point x="232" y="1765"/>
      <point x="173" y="1765" type="curve" smooth="yes"/>
      <point x="155" y="1765"/>
      <point x="144" y="1805"/>
      <point x="142" y="1824" type="curve"/>
      <point x="173" y="1868"/>
      <point x="187" y="1894"/>
      <point x="202" y="1952" type="curve" smooth="yes"/>
      <point x="211" y="1987"/>
      <point x="217" y="2029"/>
      <point x="228" y="2061" type="curve" smooth="yes"/>
      <point x="236" y="2083"/>
      <point x="246" y="2083"/>
      <point x="262" y="2083" type="curve"/>
      <point x="293" y="2204" type="line"/>
      <point x="282" y="2223"/>
      <point x="267" y="2241"/>
      <point x="247" y="2241" type="curve" smooth="yes"/>
      <point x="187" y="2241"/>
      <point x="160" y="2081"/>
      <point x="112" y="2081" type="curve" smooth="yes"/>
      <point x="64" y="2081"/>
      <point x="69" y="2225"/>
      <point x="34" y="2225" type="curve" smooth="yes"/>
      <point x="19" y="2225"/>
      <point x="0" y="2130"/>
      <point x="0" y="2113" type="curve" smooth="yes"/>
      <point x="0" y="2108"/>
      <point x="2" y="2104"/>
      <point x="4" y="2102" type="curve"/>
      <point x="33" y="2103"/>
      <point x="32" y="1957"/>
      <point x="82" y="1957" type="curve" smooth="yes"/>
      <point x="135" y="1957"/>
      <point x="167" y="2119"/>
      <point x="218" y="2119" type="curve" smooth="yes"/>
      <point x="220" y="2119"/>
      <point x="222" y="2118"/>
      <point x="224" y="2118" type="curve"/>
      <point x="209" y="2075"/>
      <point x="202" y="2021"/>
      <point x="187" y="1981" type="curve" smooth="yes"/>
      <point x="173" y="1949"/>
      <point x="150" y="1922"/>
      <point x="136" y="1888" type="curve" smooth="yes"/>
      <point x="118" y="1846"/>
      <point x="104" y="1791"/>
      <point x="104" y="1742" type="curve" smooth="yes"/>
      <point x="104" y="1712"/>
      <point x="113" y="1645"/>
      <point x="142" y="1645" type="curve" smooth="yes"/>
      <point x="213" y="1645"/>
      <point x="268" y="1923"/>
      <point x="331" y="1923" type="curve" smooth="yes"/>
      <point x="364" y="1923"/>
      <point x="381" y="1871"/>
      <point x="408" y="1852" type="curve"/>
      <point x="361" y="1791"/>
      <point x="335" y="1668"/>
      <point x="335" y="1584" type="curve" smooth="yes"/>
      <point x="335" y="1524"/>
      <point x="355" y="1401"/>
      <point x="415" y="1401" type="curve" smooth="yes"/>
      <point x="502" y="1401"/>
      <point x="536" y="1644"/>
      <point x="648" y="1644" type="curve" smooth="yes"/>
      <point x="730" y="1644"/>
      <point x="776" y="1524"/>
      <point x="824" y="1456" type="curve"/>
      <point x="811" y="1465"/>
      <point x="769" y="1473"/>
      <point x="753" y="1473" type="curve" smooth="yes"/>
      <point x="659" y="1473"/>
      <point x="632" y="1274"/>
      <point x="561" y="1216" type="curve"/>
      <point x="551" y="1188"/>
      <point x="530" y="1136"/>
      <point x="530" y="1107" type="curve" smooth="yes"/>
      <point x="530" y="1075"/>
      <point x="562" y="1028"/>
      <point x="583" y="1013" type="curve"/>
      <point x="507" y="1004"/>
      <point x="482" y="912"/>
      <point x="458" y="826" type="curve" smooth="yes"/>
      <point x="451" y="802"/>
      <point x="437" y="761"/>
      <point x="437" y="735" type="curve" smooth="yes"/>
      <point x="437" y="732"/>
      <point x="437" y="725"/>
      <point x="441" y="725" type="curve" smooth="yes"/>
      <point x="446" y="725"/>
      <point x="451" y="732"/>
      <point x="456" y="732" type="curve" smooth="yes"/>
      <point x="472" y="732"/>
      <point x="536" y="587"/>
      <point x="550" y="560" type="curve" smooth="yes"/>
      <point x="566" y="532"/>
      <point x="582" y="515"/>
      <point x="604" y="497" type="curve" smooth="yes"/>
      <point x="614" y="487"/>
      <point x="620" y="480"/>
      <point x="633" y="480" type="curve" smooth="yes"/>
      <point x="648" y="480"/>
      <point x="662" y="486"/>
      <point x="677" y="493" type="curve"/>
      <point x="651" y="461"/>
      <point x="632" y="451"/>
      <point x="596" y="451" type="curve" smooth="yes"/>
      <point x="542" y="451"/>
      <point x="496" y="611"/>
      <point x="448" y="611" type="curve" smooth="yes"/>
      <point x="416" y="611"/>
      <point x="402" y="521"/>
      <point x="385" y="492" type="curve" smooth="yes"/>
      <point x="379" y="480"/>
      <point x="368" y="473"/>
      <point x="362" y="463" type="curve" smooth="yes"/>
      <point x="351" y="440"/>
      <point x="332" y="384"/>
      <point x="332" y="357" type="curve" smooth="yes"/>
      <point x="332" y="352"/>
      <point x="379" y="188"/>
      <point x="383" y="176" type="curve"/>
      <point x="337" y="193"/>
      <point x="300" y="316"/>
      <point x="246" y="316" type="curve" smooth="yes"/>
      <point x="210" y="316"/>
      <point x="185" y="254"/>
      <point x="172" y="217" type="curve" smooth="yes"/>
      <point x="141" y="132"/>
      <point x="122" y="36"/>
      <point x="122" y="-59" type="curve" smooth="yes"/>
      <point x="122" y="-69"/>
      <point x="121" y="-98"/>
      <point x="127" y="-102" type="curve"/>
      <point x="135" y="-98"/>
      <point x="147" y="-61"/>
      <point x="168" y="-61" type="curve" smooth="yes"/>
      <point x="197" y="-61"/>
      <point x="214" y="-118"/>
      <point x="234" y="-137" type="curve"/>
      <point x="229" y="-139"/>
      <point x="223" y="-140"/>
      <point x="218" y="-140" type="curve" smooth="yes"/>
      <point x="202" y="-140"/>
      <point x="193" y="-127"/>
      <point x="182" y="-127" type="curve" smooth="yes"/>
      <point x="119" y="-127"/>
      <point x="89" y="-354"/>
      <point x="34" y="-354" type="curve" smooth="yes"/>
      <point x="20" y="-354"/>
      <point x="0" y="-447"/>
      <point x="0" y="-465" type="curve" smooth="yes"/>
      <point x="0" y="-469"/>
      <point x="2" y="-473"/>
      <point x="3" y="-477" type="curve"/>
      <point x="7" y="-479"/>
      <point x="10" y="-480"/>
      <point x="13" y="-480" type="curve"/>
    </contour>
  </outline>
</glyph>
<glyph name="uniE0C2" format="2">
  <advance width="1000"/>
  <unicode hex="E0C2"/>
  <note>
uniE0C2
</note>
  <outline>
    <contour>
      <point x="992" y="-480" type="curve" smooth="yes"/>
      <point x="994" y="-480"/>
      <point x="997" y="-480"/>
      <point x="999" y="-478" type="curve"/>
      <point x="998" y="-257"/>
      <point x="998" y="1173"/>
      <point x="998" y="1653" type="curve" smooth="yes"/>
      <point x="998" y="1690"/>
      <point x="998" y="1778"/>
      <point x="999" y="1912" type="curve"/>
      <point x="999" y="1912" type="line"/>
      <point x="1000" y="2006"/>
      <point x="1000" y="2085"/>
      <point x="1000" y="2149" type="curve" smooth="yes"/>
      <point x="1000" y="2177"/>
      <point x="1000" y="2202"/>
      <point x="1000" y="2226" type="curve"/>
      <point x="991" y="2223"/>
      <point x="985" y="2221"/>
      <point x="982" y="2209" type="curve" smooth="yes"/>
      <point x="978" y="2198"/>
      <point x="970" y="2166"/>
      <point x="965" y="2144" type="curve"/>
      <point x="950" y="2095"/>
      <point x="935" y="2075"/>
      <point x="918" y="2075" type="curve" smooth="yes"/>
      <point x="913" y="2075"/>
      <point x="909" y="2077"/>
      <point x="904" y="2081" type="curve" smooth="yes"/>
      <point x="890" y="2088"/>
      <point x="873" y="2115"/>
      <point x="862" y="2136" type="curve" smooth="yes"/>
      <point x="856" y="2145"/>
      <point x="849" y="2159"/>
      <point x="842" y="2175" type="curve" smooth="yes"/>
      <point x="820" y="2221"/>
      <point x="799" y="2245"/>
      <point x="778" y="2245" type="curve" smooth="yes"/>
      <point x="762" y="2245"/>
      <point x="748" y="2232"/>
      <point x="732" y="2206" type="curve"/>
      <point x="749" y="2209"/>
      <point x="762" y="2195"/>
      <point x="774" y="2174" type="curve" smooth="yes"/>
      <point x="785" y="2153"/>
      <point x="799" y="2095"/>
      <point x="808" y="2058" type="curve"/>
      <point x="808" y="2060"/>
      <point x="812" y="2044"/>
      <point x="820" y="2010" type="curve" smooth="yes"/>
      <point x="823" y="1998"/>
      <point x="832" y="1978"/>
      <point x="848" y="1953" type="curve" smooth="yes"/>
      <point x="865" y="1927"/>
      <point x="876" y="1907"/>
      <point x="881" y="1894" type="curve" smooth="yes"/>
      <point x="888" y="1875"/>
      <point x="892" y="1855"/>
      <point x="892" y="1835" type="curve" smooth="yes"/>
      <point x="892" y="1824"/>
      <point x="892" y="1813"/>
      <point x="889" y="1801" type="curve" smooth="yes"/>
      <point x="879" y="1758"/>
      <point x="868" y="1745"/>
      <point x="855" y="1745" type="curve" smooth="yes"/>
      <point x="851" y="1745"/>
      <point x="847" y="1747"/>
      <point x="842" y="1749" type="curve" smooth="yes"/>
      <point x="836" y="1752"/>
      <point x="829" y="1758"/>
      <point x="822" y="1769" type="curve" smooth="yes"/>
      <point x="803" y="1798" type="line" smooth="yes"/>
      <point x="788" y="1821"/>
      <point x="752" y="1907"/>
      <point x="743" y="1928" type="curve" smooth="yes"/>
      <point x="712" y="2004"/>
      <point x="688" y="2038"/>
      <point x="661" y="2038" type="curve" smooth="yes"/>
      <point x="644" y="2038"/>
      <point x="627" y="2025"/>
      <point x="608" y="1997" type="curve" smooth="yes"/>
      <point x="590" y="1969"/>
      <point x="573" y="1957"/>
      <point x="558" y="1957" type="curve" smooth="yes"/>
      <point x="532" y="1957"/>
      <point x="508" y="1990"/>
      <point x="482" y="2041" type="curve"/>
      <point x="496" y="1998"/>
      <point x="510" y="1965"/>
      <point x="528" y="1939" type="curve" smooth="yes"/>
      <point x="536" y="1924"/>
      <point x="543" y="1914"/>
      <point x="550" y="1906" type="curve" smooth="yes"/>
      <point x="557" y="1899"/>
      <point x="566" y="1888"/>
      <point x="578" y="1875" type="curve" smooth="yes"/>
      <point x="589" y="1861"/>
      <point x="599" y="1850"/>
      <point x="605" y="1841" type="curve"/>
      <point x="636" y="1805"/>
      <point x="652" y="1742"/>
      <point x="652" y="1674" type="curve" smooth="yes"/>
      <point x="652" y="1592"/>
      <point x="629" y="1521"/>
      <point x="592" y="1498" type="curve" smooth="yes"/>
      <point x="586" y="1492"/>
      <point x="579" y="1490"/>
      <point x="572" y="1490" type="curve" smooth="yes"/>
      <point x="547" y="1490"/>
      <point x="518" y="1524"/>
      <point x="497" y="1563" type="curve" smooth="yes"/>
      <point x="470" y="1609"/>
      <point x="435" y="1678"/>
      <point x="408" y="1707" type="curve" smooth="yes"/>
      <point x="382" y="1733"/>
      <point x="358" y="1745"/>
      <point x="332" y="1745" type="curve" smooth="yes"/>
      <point x="285" y="1745"/>
      <point x="238" y="1703"/>
      <point x="190" y="1619" type="curve" smooth="yes"/>
      <point x="159" y="1565"/>
      <point x="141" y="1536"/>
      <point x="113" y="1506" type="curve" smooth="yes"/>
      <point x="96" y="1486"/>
      <point x="79" y="1478"/>
      <point x="66" y="1478" type="curve" smooth="yes"/>
      <point x="45" y="1478"/>
      <point x="22" y="1493"/>
      <point x="0" y="1534" type="curve"/>
      <point x="28" y="1450"/>
      <point x="62" y="1410"/>
      <point x="96" y="1406" type="curve"/>
      <point x="99" y="1405"/>
      <point x="104" y="1405"/>
      <point x="108" y="1405" type="curve" smooth="yes"/>
      <point x="138" y="1405"/>
      <point x="168" y="1417"/>
      <point x="198" y="1427" type="curve" smooth="yes"/>
      <point x="216" y="1433"/>
      <point x="232" y="1437"/>
      <point x="248" y="1437" type="curve" smooth="yes"/>
      <point x="266" y="1437"/>
      <point x="283" y="1432"/>
      <point x="303" y="1415" type="curve" smooth="yes"/>
      <point x="321" y="1399"/>
      <point x="338" y="1374"/>
      <point x="352" y="1338" type="curve" smooth="yes"/>
      <point x="362" y="1319"/>
      <point x="390" y="1254"/>
      <point x="399" y="1237" type="curve" smooth="yes"/>
      <point x="416" y="1209"/>
      <point x="429" y="1186"/>
      <point x="449" y="1168" type="curve"/>
      <point x="444" y="1152" type="line" smooth="yes"/>
      <point x="430" y="1110"/>
      <point x="407" y="1089"/>
      <point x="387" y="1077" type="curve" smooth="yes"/>
      <point x="380" y="1074"/>
      <point x="373" y="1070"/>
      <point x="366" y="1066" type="curve" smooth="yes"/>
      <point x="358" y="1063"/>
      <point x="352" y="1060"/>
      <point x="348" y="1057" type="curve"/>
      <point x="340" y="1050"/>
      <point x="332" y="1048"/>
      <point x="323" y="1048" type="curve" smooth="yes"/>
      <point x="314" y="1048"/>
      <point x="304" y="1050"/>
      <point x="294" y="1058" type="curve"/>
      <point x="332" y="996"/>
      <point x="359" y="968"/>
      <point x="396" y="960" type="curve" smooth="yes"/>
      <point x="409" y="958"/>
      <point x="428" y="957"/>
      <point x="441" y="955" type="curve" smooth="yes"/>
      <point x="451" y="953"/>
      <point x="470" y="947"/>
      <point x="481" y="935" type="curve" smooth="yes"/>
      <point x="492" y="922"/>
      <point x="506" y="902"/>
      <point x="518" y="869" type="curve" smooth="yes"/>
      <point x="525" y="853"/>
      <point x="531" y="833"/>
      <point x="537" y="810" type="curve" smooth="yes"/>
      <point x="545" y="783" type="line"/>
      <point x="533" y="788" type="line" smooth="yes"/>
      <point x="520" y="796"/>
      <point x="496" y="749"/>
      <point x="468" y="688" type="curve" smooth="yes"/>
      <point x="451" y="649"/>
      <point x="438" y="623"/>
      <point x="432" y="608" type="curve" smooth="yes"/>
      <point x="425" y="596"/>
      <point x="368" y="538"/>
      <point x="367" y="533" type="curve"/>
      <point x="362" y="529"/>
      <point x="355" y="527"/>
      <point x="347" y="527" type="curve" smooth="yes"/>
      <point x="313" y="527"/>
      <point x="254" y="561"/>
      <point x="193" y="609" type="curve"/>
      <point x="246" y="530" type="line" smooth="yes"/>
      <point x="258" y="510"/>
      <point x="285" y="470"/>
      <point x="298" y="452" type="curve" smooth="yes"/>
      <point x="323" y="417"/>
      <point x="359" y="371"/>
      <point x="378" y="371" type="curve" smooth="yes"/>
      <point x="384" y="371"/>
      <point x="398" y="365"/>
      <point x="413" y="365" type="curve" smooth="yes"/>
      <point x="418" y="365"/>
      <point x="422" y="366"/>
      <point x="427" y="367" type="curve" smooth="yes"/>
      <point x="436" y="370"/>
      <point x="445" y="377"/>
      <point x="455" y="388" type="curve" smooth="yes"/>
      <point x="469" y="404"/>
      <point x="491" y="437"/>
      <point x="508" y="461" type="curve" smooth="yes"/>
      <point x="515" y="474"/>
      <point x="523" y="485"/>
      <point x="532" y="497" type="curve" smooth="yes"/>
      <point x="547" y="515"/>
      <point x="562" y="531"/>
      <point x="574" y="531" type="curve" smooth="yes"/>
      <point x="581" y="531"/>
      <point x="587" y="527"/>
      <point x="591" y="515" type="curve" smooth="yes"/>
      <point x="604" y="478"/>
      <point x="612" y="450"/>
      <point x="625" y="424" type="curve" smooth="yes"/>
      <point x="634" y="405"/>
      <point x="642" y="394"/>
      <point x="655" y="380" type="curve"/>
      <point x="650" y="365" type="line" smooth="yes"/>
      <point x="638" y="334"/>
      <point x="624" y="276"/>
      <point x="616" y="242" type="curve" smooth="yes"/>
      <point x="608" y="207"/>
      <point x="591" y="170"/>
      <point x="570" y="158" type="curve" smooth="yes"/>
      <point x="562" y="154"/>
      <point x="553" y="150"/>
      <point x="544" y="150" type="curve" smooth="yes"/>
      <point x="525" y="150"/>
      <point x="503" y="162"/>
      <point x="480" y="186" type="curve"/>
      <point x="518" y="109"/>
      <point x="577" y="77"/>
      <point x="627" y="77" type="curve" smooth="yes"/>
      <point x="644" y="77"/>
      <point x="669" y="98"/>
      <point x="688" y="127" type="curve" smooth="yes"/>
      <point x="698" y="142"/>
      <point x="708" y="156"/>
      <point x="719" y="170" type="curve" smooth="yes"/>
      <point x="742" y="202"/>
      <point x="760" y="224"/>
      <point x="784" y="224" type="curve" smooth="yes"/>
      <point x="794" y="224"/>
      <point x="804" y="217"/>
      <point x="812" y="205" type="curve" smooth="yes"/>
      <point x="843" y="165"/>
      <point x="875" y="58"/>
      <point x="873" y="-64" type="curve" smooth="yes"/>
      <point x="873" y="-85" type="line"/>
      <point x="856" y="-54"/>
      <point x="842" y="-40"/>
      <point x="828" y="-40" type="curve" smooth="yes"/>
      <point x="812" y="-40"/>
      <point x="797" y="-61"/>
      <point x="777" y="-97" type="curve" smooth="yes"/>
      <point x="761" y="-128"/>
      <point x="743" y="-141"/>
      <point x="718" y="-154" type="curve" smooth="yes"/>
      <point x="706" y="-160"/>
      <point x="697" y="-166"/>
      <point x="691" y="-170" type="curve"/>
      <point x="705" y="-179"/>
      <point x="725" y="-197"/>
      <point x="739" y="-211" type="curve" smooth="yes"/>
      <point x="747" y="-218"/>
      <point x="754" y="-225"/>
      <point x="763" y="-233" type="curve" smooth="yes"/>
      <point x="780" y="-246"/>
      <point x="792" y="-255"/>
      <point x="808" y="-255" type="curve" smooth="yes"/>
      <point x="818" y="-255"/>
      <point x="827" y="-250"/>
      <point x="834" y="-244" type="curve" smooth="yes"/>
      <point x="838" y="-241"/>
      <point x="841" y="-240"/>
      <point x="844" y="-240" type="curve" smooth="yes"/>
      <point x="862" y="-240"/>
      <point x="882" y="-274"/>
      <point x="901" y="-318" type="curve" smooth="yes"/>
      <point x="912" y="-344"/>
      <point x="923" y="-370"/>
      <point x="934" y="-397" type="curve" smooth="yes"/>
      <point x="953" y="-444"/>
      <point x="974" y="-480"/>
    </contour>
  </outline>
</glyph>
<glyph name="uniE0C3" format="2">
  <advance width="1000"/>
  <unicode hex="E0C3"/>
  <note>
uniE0C3
</note>
  <outline>
    <contour>
      <point x="988" y="-480" type="line"/>
      <point x="991" y="-480"/>
      <point x="994" y="-479"/>
      <point x="998" y="-477" type="curve"/>
      <point x="999" y="-473"/>
      <point x="1000" y="-469"/>
      <point x="1000" y="-465" type="curve" smooth="yes"/>
      <point x="1000" y="-438"/>
      <point x="984" y="-355"/>
      <point x="962" y="-355" type="curve" smooth="yes"/>
      <point x="922" y="-355"/>
      <point x="877" y="-127"/>
      <point x="819" y="-127" type="curve" smooth="yes"/>
      <point x="808" y="-127"/>
      <point x="798" y="-140"/>
      <point x="782" y="-140" type="curve" smooth="yes"/>
      <point x="778" y="-140"/>
      <point x="772" y="-139"/>
      <point x="767" y="-137" type="curve"/>
      <point x="786" y="-119"/>
      <point x="805" y="-61"/>
      <point x="832" y="-61" type="curve" smooth="yes"/>
      <point x="853" y="-61"/>
      <point x="866" y="-98"/>
      <point x="874" y="-102" type="curve"/>
      <point x="875" y="-102" type="line"/>
      <point x="880" y="-97"/>
      <point x="878" y="-79"/>
      <point x="878" y="-72" type="curve" smooth="yes"/>
      <point x="878" y="-61" type="line" smooth="yes"/>
      <point x="878" y="33"/>
      <point x="859" y="133"/>
      <point x="829" y="217" type="curve" smooth="yes"/>
      <point x="816" y="255"/>
      <point x="790" y="316"/>
      <point x="754" y="316" type="curve" smooth="yes"/>
      <point x="704" y="316"/>
      <point x="663" y="196"/>
      <point x="618" y="176" type="curve"/>
      <point x="622" y="187"/>
      <point x="669" y="354"/>
      <point x="669" y="357" type="curve" smooth="yes"/>
      <point x="669" y="387"/>
      <point x="650" y="436"/>
      <point x="638" y="464" type="curve"/>
      <point x="627" y="476"/>
      <point x="615" y="489"/>
      <point x="609" y="506" type="curve" smooth="yes"/>
      <point x="599" y="536"/>
      <point x="580" y="611"/>
      <point x="552" y="611" type="curve" smooth="yes"/>
      <point x="506" y="611"/>
      <point x="460" y="452"/>
      <point x="404" y="452" type="curve" smooth="yes"/>
      <point x="369" y="452"/>
      <point x="350" y="463"/>
      <point x="324" y="493" type="curve"/>
      <point x="338" y="488"/>
      <point x="352" y="481"/>
      <point x="367" y="481" type="curve" smooth="yes"/>
      <point x="442" y="481"/>
      <point x="517" y="732"/>
      <point x="544" y="732" type="curve" smooth="yes"/>
      <point x="548" y="732"/>
      <point x="555" y="727"/>
      <point x="560" y="725" type="curve"/>
      <point x="562" y="728"/>
      <point x="564" y="732"/>
      <point x="564" y="735" type="curve" smooth="yes"/>
      <point x="564" y="789"/>
      <point x="512" y="936"/>
      <point x="482" y="979" type="curve" smooth="yes"/>
      <point x="465" y="1003"/>
      <point x="442" y="1010"/>
      <point x="418" y="1014" type="curve"/>
      <point x="438" y="1028"/>
      <point x="471" y="1076"/>
      <point x="471" y="1108" type="curve" smooth="yes"/>
      <point x="471" y="1137"/>
      <point x="450" y="1191"/>
      <point x="439" y="1216" type="curve"/>
      <point x="368" y="1277"/>
      <point x="342" y="1474"/>
      <point x="248" y="1474" type="curve" smooth="yes"/>
      <point x="223" y="1474"/>
      <point x="200" y="1467"/>
      <point x="177" y="1456" type="curve"/>
      <point x="225" y="1525"/>
      <point x="271" y="1645"/>
      <point x="352" y="1645" type="curve" smooth="yes"/>
      <point x="466" y="1645"/>
      <point x="498" y="1401"/>
      <point x="586" y="1401" type="curve" smooth="yes"/>
      <point x="646" y="1401"/>
      <point x="666" y="1525"/>
      <point x="666" y="1584" type="curve" smooth="yes"/>
      <point x="666" y="1666"/>
      <point x="639" y="1795"/>
      <point x="592" y="1853" type="curve"/>
      <point x="618" y="1872"/>
      <point x="638" y="1923"/>
      <point x="669" y="1923" type="curve" smooth="yes"/>
      <point x="732" y="1923"/>
      <point x="789" y="1648"/>
      <point x="852" y="1648" type="curve" smooth="yes"/>
      <point x="860" y="1648"/>
      <point x="867" y="1654"/>
      <point x="872" y="1661" type="curve"/>
      <point x="872" y="1661"/>
      <point x="872" y="1659"/>
      <point x="873" y="1659" type="curve" smooth="yes"/>
      <point x="885" y="1659"/>
      <point x="897" y="1726"/>
      <point x="897" y="1742" type="curve" smooth="yes"/>
      <point x="897" y="1791"/>
      <point x="882" y="1847"/>
      <point x="865" y="1889" type="curve" smooth="yes"/>
      <point x="851" y="1923"/>
      <point x="828" y="1949"/>
      <point x="813" y="1982" type="curve" smooth="yes"/>
      <point x="800" y="2014"/>
      <point x="790" y="2079"/>
      <point x="777" y="2118" type="curve"/>
      <point x="782" y="2119" type="line"/>
      <point x="835" y="2119"/>
      <point x="865" y="1957"/>
      <point x="918" y="1957" type="curve" smooth="yes"/>
      <point x="961" y="1957"/>
      <point x="967" y="2060"/>
      <point x="983" y="2094" type="curve" smooth="yes"/>
      <point x="988" y="2102"/>
      <point x="990" y="2102"/>
      <point x="997" y="2102" type="curve"/>
      <point x="999" y="2104"/>
      <point x="1000" y="2109"/>
      <point x="1000" y="2113" type="curve" smooth="yes"/>
      <point x="1000" y="2131"/>
      <point x="982" y="2226"/>
      <point x="967" y="2226" type="curve" smooth="yes"/>
      <point x="931" y="2226"/>
      <point x="937" y="2081"/>
      <point x="889" y="2081" type="curve" smooth="yes"/>
      <point x="841" y="2081"/>
      <point x="813" y="2242"/>
      <point x="753" y="2242" type="curve" smooth="yes"/>
      <point x="734" y="2242"/>
      <point x="718" y="2223"/>
      <point x="708" y="2205" type="curve"/>
      <point x="739" y="2083" type="line"/>
      <point x="755" y="2083"/>
      <point x="764" y="2084"/>
      <point x="772" y="2062" type="curve" smooth="yes"/>
      <point x="804" y="1963"/>
      <point x="795" y="1911"/>
      <point x="859" y="1825" type="curve"/>
      <point x="855" y="1805"/>
      <point x="848" y="1766"/>
      <point x="828" y="1766" type="curve" smooth="yes"/>
      <point x="768" y="1766"/>
      <point x="716" y="2046"/>
      <point x="640" y="2046" type="curve" smooth="yes"/>
      <point x="596" y="2046"/>
      <point x="580" y="1967"/>
      <point x="542" y="1967" type="curve" smooth="yes"/>
      <point x="516" y="1967"/>
      <point x="488" y="2012"/>
      <point x="477" y="2039" type="curve"/>
      <point x="469" y="2041" type="line"/>
      <point x="465" y="2038"/>
      <point x="465" y="2032"/>
      <point x="465" y="2027" type="curve" smooth="yes"/>
      <point x="465" y="2007"/>
      <point x="473" y="1981"/>
      <point x="479" y="1962" type="curve" smooth="yes"/>
      <point x="494" y="1916"/>
      <point x="510" y="1871"/>
      <point x="535" y="1832" type="curve" smooth="yes"/>
      <point x="552" y="1806"/>
      <point x="622" y="1733"/>
      <point x="627" y="1715" type="curve" smooth="yes"/>
      <point x="628" y="1709"/>
      <point x="628" y="1692"/>
      <point x="628" y="1685" type="curve" smooth="yes"/>
      <point x="628" y="1629"/>
      <point x="607" y="1525"/>
      <point x="553" y="1525" type="curve" smooth="yes"/>
      <point x="483" y="1525"/>
      <point x="440" y="1767"/>
      <point x="323" y="1767" type="curve" smooth="yes"/>
      <point x="205" y="1767"/>
      <point x="151" y="1515"/>
      <point x="65" y="1515" type="curve" smooth="yes"/>
      <point x="42" y="1515"/>
      <point x="23" y="1534"/>
      <point x="11" y="1557" type="curve"/>
      <point x="4" y="1554" type="line"/>
      <point x="1" y="1550"/>
      <point x="0" y="1545"/>
      <point x="0" y="1539" type="curve" smooth="yes"/>
      <point x="0" y="1519"/>
      <point x="10" y="1490"/>
      <point x="16" y="1472" type="curve" smooth="yes"/>
      <point x="44" y="1388"/>
      <point x="85" y="1307"/>
      <point x="162" y="1307" type="curve" smooth="yes"/>
      <point x="204" y="1307"/>
      <point x="244" y="1333"/>
      <point x="286" y="1333" type="curve" smooth="yes"/>
      <point x="358" y="1333"/>
      <point x="376" y="1225"/>
      <point x="412" y="1163" type="curve"/>
      <point x="397" y="1140"/>
      <point x="338" y="1102"/>
      <point x="316" y="1102" type="curve" smooth="yes"/>
      <point x="306" y="1102"/>
      <point x="298" y="1108"/>
      <point x="288" y="1110" type="curve"/>
      <point x="292" y="1081"/>
      <point x="298" y="1014"/>
      <point x="311" y="994" type="curve" smooth="yes"/>
      <point x="410" y="835"/>
      <point x="465" y="926"/>
      <point x="508" y="853" type="curve"/>
      <point x="480" y="834"/>
      <point x="439" y="719"/>
      <point x="418" y="681" type="curve" smooth="yes"/>
      <point x="402" y="654"/>
      <point x="376" y="631"/>
      <point x="356" y="610" type="curve" smooth="yes"/>
      <point x="351" y="604"/>
      <point x="344" y="604"/>
      <point x="338" y="604" type="curve" smooth="yes"/>
      <point x="298" y="604"/>
      <point x="226" y="657"/>
      <point x="192" y="683" type="curve"/>
      <point x="201" y="646"/>
      <point x="208" y="603"/>
      <point x="213" y="565" type="curve"/>
      <point x="218" y="561"/>
      <point x="267" y="487"/>
      <point x="274" y="475" type="curve" smooth="yes"/>
      <point x="316" y="410"/>
      <point x="362" y="327"/>
      <point x="432" y="327" type="curve" smooth="yes"/>
      <point x="487" y="327"/>
      <point x="549" y="486"/>
      <point x="587" y="486" type="curve" smooth="yes"/>
      <point x="588" y="486"/>
      <point x="589" y="485"/>
      <point x="591" y="485" type="curve"/>
      <point x="599" y="463"/>
      <point x="607" y="436"/>
      <point x="617" y="416" type="curve"/>
      <point x="602" y="359"/>
      <point x="587" y="247"/>
      <point x="529" y="247" type="curve" smooth="yes"/>
      <point x="507" y="247"/>
      <point x="486" y="261"/>
      <point x="468" y="278" type="curve"/>
      <point x="468" y="243"/>
      <point x="472" y="196"/>
      <point x="487" y="166" type="curve" smooth="yes"/>
      <point x="522" y="98"/>
      <point x="572" y="52"/>
      <point x="636" y="52" type="curve" smooth="yes"/>
      <point x="692" y="52"/>
      <point x="740" y="190"/>
      <point x="790" y="190" type="curve" smooth="yes"/>
      <point x="834" y="190"/>
      <point x="842" y="83"/>
      <point x="842" y="42" type="curve" smooth="yes"/>
      <point x="842" y="31" type="line"/>
      <point x="832" y="47"/>
      <point x="818" y="64"/>
      <point x="801" y="64" type="curve" smooth="yes"/>
      <point x="780" y="64"/>
      <point x="761" y="28"/>
      <point x="750" y="8" type="curve" smooth="yes"/>
      <point x="727" y="-33"/>
      <point x="701" y="-39"/>
      <point x="668" y="-62" type="curve"/>
      <point x="698" y="-183" type="line"/>
      <point x="720" y="-188"/>
      <point x="769" y="-264"/>
      <point x="812" y="-264" type="curve" smooth="yes"/>
      <point x="828" y="-264"/>
      <point x="838" y="-251"/>
      <point x="845" y="-251" type="curve" smooth="yes"/>
      <point x="888" y="-251"/>
      <point x="931" y="-480"/>
      <point x="988" y="-480" type="curve"/>
    </contour>
  </outline>
</glyph>
<glyph name="uniE0C4" format="2">
  <advance width="1000"/>
  <unicode hex="E0C4"/>
  <note>
uniE0C4
</note>
  <outline>
    <contour>
      <point x="406" y="885" type="curve" smooth="yes"/>
      <point x="497" y="885" type="line" smooth="yes"/>
      <point x="502" y="885"/>
      <point x="508" y="893"/>
      <point x="508" y="913" type="curve" smooth="yes"/>
      <point x="508" y="1122" type="line" smooth="yes"/>
      <point x="508" y="1135"/>
      <point x="503" y="1150"/>
      <point x="497" y="1150" type="curve"/>
      <point x="497" y="1150" type="line"/>
      <point x="406" y="1150" type="line" smooth="yes"/>
      <point x="400" y="1150"/>
      <point x="394" y="1139"/>
      <point x="394" y="1122" type="curve" smooth="yes"/>
      <point x="394" y="913" type="line" smooth="yes"/>
      <point x="394" y="898"/>
      <point x="399" y="885"/>
    </contour>
    <contour>
      <point x="0" y="-475" type="line"/>
      <point x="90" y="-475" type="line"/>
      <point x="90" y="-264" type="line"/>
      <point x="0" y="-264" type="line"/>
      <point x="0" y="-264" type="line"/>
    </contour>
    <contour>
      <point x="138" y="-475" type="line"/>
      <point x="228" y="-475" type="line"/>
      <point x="228" y="-264" type="line"/>
      <point x="138" y="-264" type="line"/>
      <point x="138" y="-264" type="line"/>
    </contour>
    <contour>
      <point x="0" y="-189" type="line"/>
      <point x="90" y="-189" type="line"/>
      <point x="90" y="21" type="line"/>
      <point x="0" y="21" type="line"/>
      <point x="0" y="21" type="line"/>
    </contour>
    <contour>
      <point x="138" y="-189" type="line"/>
      <point x="228" y="-189" type="line"/>
      <point x="228" y="21" type="line"/>
      <point x="138" y="21" type="line"/>
      <point x="138" y="21" type="line"/>
    </contour>
    <contour>
      <point x="406" y="-480" type="curve" smooth="yes"/>
      <point x="497" y="-480" type="line" smooth="yes"/>
      <point x="498" y="-480"/>
      <point x="499" y="-478"/>
      <point x="499" y="-475" type="curve" smooth="yes"/>
      <point x="499" y="-264" type="line" smooth="yes"/>
      <point x="499" y="-260"/>
      <point x="498" y="-258"/>
      <point x="497" y="-258" type="curve"/>
      <point x="497" y="-258" type="line"/>
      <point x="406" y="-258" type="line" smooth="yes"/>
      <point x="405" y="-258"/>
      <point x="404" y="-260"/>
      <point x="404" y="-264" type="curve" smooth="yes"/>
      <point x="404" y="-475" type="line" smooth="yes"/>
      <point x="404" y="-478"/>
      <point x="405" y="-480"/>
    </contour>
    <contour>
      <point x="408" y="-469" type="line"/>
      <point x="408" y="-270" type="line"/>
      <point x="494" y="-270" type="line"/>
      <point x="494" y="-270" type="line"/>
      <point x="494" y="-469" type="line"/>
    </contour>
    <contour>
      <point x="0" y="92" type="line"/>
      <point x="90" y="92" type="line"/>
      <point x="90" y="301" type="line"/>
      <point x="0" y="301" type="line"/>
      <point x="0" y="301" type="line"/>
    </contour>
    <contour>
      <point x="269" y="-189" type="line"/>
      <point x="359" y="-189" type="line"/>
      <point x="359" y="21" type="line"/>
      <point x="269" y="21" type="line"/>
      <point x="269" y="21" type="line"/>
    </contour>
    <contour>
      <point x="138" y="92" type="line"/>
      <point x="228" y="92" type="line"/>
      <point x="228" y="301" type="line"/>
      <point x="138" y="301" type="line"/>
      <point x="138" y="301" type="line"/>
    </contour>
    <contour>
      <point x="0" y="373" type="line"/>
      <point x="90" y="373" type="line"/>
      <point x="90" y="584" type="line"/>
      <point x="0" y="584" type="line"/>
      <point x="0" y="584" type="line"/>
    </contour>
    <contour>
      <point x="269" y="92" type="line"/>
      <point x="359" y="92" type="line"/>
      <point x="359" y="301" type="line"/>
      <point x="269" y="301" type="line"/>
      <point x="269" y="301" type="line"/>
    </contour>
    <contour>
      <point x="138" y="373" type="line"/>
      <point x="228" y="373" type="line"/>
      <point x="228" y="584" type="line"/>
      <point x="138" y="584" type="line"/>
      <point x="138" y="584" type="line"/>
    </contour>
    <contour>
      <point x="406" y="88" type="curve" smooth="yes"/>
      <point x="497" y="88" type="line" smooth="yes"/>
      <point x="498" y="88"/>
      <point x="499" y="90"/>
      <point x="499" y="92" type="curve" smooth="yes"/>
      <point x="499" y="301" type="line" smooth="yes"/>
      <point x="499" y="305"/>
      <point x="498" y="307"/>
      <point x="497" y="307" type="curve"/>
      <point x="497" y="307" type="line"/>
      <point x="406" y="307" type="line" smooth="yes"/>
      <point x="405" y="307"/>
      <point x="404" y="305"/>
      <point x="404" y="301" type="curve" smooth="yes"/>
      <point x="404" y="92" type="line" smooth="yes"/>
      <point x="404" y="90"/>
      <point x="405" y="88"/>
    </contour>
    <contour>
      <point x="408" y="98" type="line"/>
      <point x="408" y="295" type="line"/>
      <point x="494" y="295" type="line"/>
      <point x="494" y="295" type="line"/>
      <point x="494" y="98" type="line"/>
    </contour>
    <contour>
      <point x="0" y="646" type="line"/>
      <point x="90" y="646" type="line"/>
      <point x="90" y="855" type="line"/>
      <point x="0" y="855" type="line"/>
      <point x="0" y="855" type="line"/>
    </contour>
    <contour>
      <point x="138" y="646" type="line"/>
      <point x="228" y="646" type="line"/>
      <point x="228" y="855" type="line"/>
      <point x="138" y="855" type="line"/>
      <point x="138" y="855" type="line"/>
    </contour>
    <contour>
      <point x="660" y="88" type="curve" smooth="yes"/>
      <point x="750" y="88" type="line" smooth="yes"/>
      <point x="752" y="88"/>
      <point x="752" y="90"/>
      <point x="752" y="92" type="curve" smooth="yes"/>
      <point x="752" y="301" type="line" smooth="yes"/>
      <point x="752" y="305"/>
      <point x="752" y="307"/>
      <point x="750" y="307" type="curve"/>
      <point x="750" y="307" type="line"/>
      <point x="660" y="307" type="line" smooth="yes"/>
      <point x="658" y="307"/>
      <point x="658" y="305"/>
      <point x="658" y="301" type="curve" smooth="yes"/>
      <point x="658" y="92" type="line" smooth="yes"/>
      <point x="658" y="90"/>
      <point x="658" y="88"/>
    </contour>
    <contour>
      <point x="662" y="98" type="line"/>
      <point x="662" y="295" type="line"/>
      <point x="748" y="295" type="line"/>
      <point x="748" y="295" type="line"/>
      <point x="748" y="98" type="line"/>
    </contour>
    <contour>
      <point x="0" y="913" type="line"/>
      <point x="90" y="913" type="line"/>
      <point x="90" y="1122" type="line"/>
      <point x="0" y="1122" type="line"/>
      <point x="0" y="1122" type="line"/>
    </contour>
    <contour>
      <point x="269" y="646" type="line"/>
      <point x="359" y="646" type="line"/>
      <point x="359" y="855" type="line"/>
      <point x="269" y="855" type="line"/>
      <point x="269" y="855" type="line"/>
    </contour>
    <contour>
      <point x="531" y="353" type="curve" smooth="yes"/>
      <point x="621" y="353" type="line" smooth="yes"/>
      <point x="626" y="353"/>
      <point x="631" y="362"/>
      <point x="631" y="373" type="curve" smooth="yes"/>
      <point x="631" y="584" type="line" smooth="yes"/>
      <point x="631" y="595"/>
      <point x="627" y="607"/>
      <point x="621" y="607" type="curve"/>
      <point x="621" y="607" type="line"/>
      <point x="531" y="607" type="line" smooth="yes"/>
      <point x="527" y="607"/>
      <point x="521" y="598"/>
      <point x="521" y="584" type="curve" smooth="yes"/>
      <point x="521" y="373" type="line" smooth="yes"/>
      <point x="521" y="365"/>
      <point x="525" y="353"/>
    </contour>
    <contour>
      <point x="541" y="397" type="line"/>
      <point x="541" y="562" type="line"/>
      <point x="612" y="562" type="line"/>
      <point x="612" y="562" type="line"/>
      <point x="612" y="397" type="line"/>
    </contour>
    <contour>
      <point x="138" y="913" type="line"/>
      <point x="228" y="913" type="line"/>
      <point x="228" y="1122" type="line"/>
      <point x="138" y="1122" type="line"/>
      <point x="138" y="1122" type="line"/>
    </contour>
    <contour>
      <point x="406" y="646" type="line"/>
      <point x="497" y="646" type="line"/>
      <point x="497" y="646" type="line"/>
      <point x="497" y="855" type="line"/>
      <point x="406" y="855" type="line"/>
    </contour>
    <contour>
      <point x="0" y="1177" type="line"/>
      <point x="90" y="1177" type="line"/>
      <point x="90" y="1388" type="line"/>
      <point x="0" y="1388" type="line"/>
      <point x="0" y="1388" type="line"/>
    </contour>
    <contour>
      <point x="269" y="913" type="line"/>
      <point x="359" y="913" type="line"/>
      <point x="359" y="1122" type="line"/>
      <point x="269" y="1122" type="line"/>
      <point x="269" y="1122" type="line"/>
    </contour>
    <contour>
      <point x="531" y="646" type="line"/>
      <point x="621" y="646" type="line"/>
      <point x="621" y="855" type="line"/>
      <point x="531" y="855" type="line"/>
      <point x="531" y="855" type="line"/>
    </contour>
    <contour>
      <point x="782" y="369" type="curve" smooth="yes"/>
      <point x="872" y="369" type="line" smooth="yes"/>
      <point x="874" y="369"/>
      <point x="875" y="370"/>
      <point x="875" y="373" type="curve" smooth="yes"/>
      <point x="875" y="584" type="line" smooth="yes"/>
      <point x="875" y="588"/>
      <point x="874" y="591"/>
      <point x="872" y="591" type="curve"/>
      <point x="872" y="591" type="line"/>
      <point x="782" y="591" type="line" smooth="yes"/>
      <point x="782" y="591"/>
      <point x="780" y="588"/>
      <point x="780" y="584" type="curve" smooth="yes"/>
      <point x="780" y="373" type="line" smooth="yes"/>
      <point x="780" y="370"/>
      <point x="782" y="369"/>
    </contour>
    <contour>
      <point x="785" y="381" type="line"/>
      <point x="785" y="578" type="line"/>
      <point x="871" y="578" type="line"/>
      <point x="871" y="578" type="line"/>
      <point x="871" y="381" type="line"/>
    </contour>
    <contour>
      <point x="138" y="1177" type="line"/>
      <point x="228" y="1177" type="line"/>
      <point x="228" y="1388" type="line"/>
      <point x="138" y="1388" type="line"/>
      <point x="138" y="1388" type="line"/>
    </contour>
    <contour>
      <point x="418" y="940" type="line"/>
      <point x="418" y="1094" type="line"/>
      <point x="484" y="1094" type="line"/>
      <point x="484" y="1094" type="line"/>
      <point x="484" y="940" type="line"/>
    </contour>
    <contour>
      <point x="0" y="1437" type="line"/>
      <point x="90" y="1437" type="line"/>
      <point x="90" y="1645" type="line"/>
      <point x="0" y="1645" type="line"/>
      <point x="0" y="1645" type="line"/>
    </contour>
    <contour>
      <point x="269" y="1177" type="line"/>
      <point x="359" y="1177" type="line"/>
      <point x="359" y="1388" type="line"/>
      <point x="269" y="1388" type="line"/>
      <point x="269" y="1388" type="line"/>
    </contour>
    <contour>
      <point x="531" y="913" type="line"/>
      <point x="621" y="913" type="line"/>
      <point x="621" y="913" type="line"/>
      <point x="621" y="1122" type="line"/>
      <point x="531" y="1122" type="line"/>
    </contour>
    <contour>
      <point x="138" y="1437" type="line"/>
      <point x="228" y="1437" type="line"/>
      <point x="228" y="1645" type="line"/>
      <point x="138" y="1645" type="line"/>
      <point x="138" y="1645" type="line"/>
    </contour>
    <contour>
      <point x="660" y="906" type="curve" smooth="yes"/>
      <point x="750" y="906" type="line" smooth="yes"/>
      <point x="752" y="906"/>
      <point x="752" y="908"/>
      <point x="752" y="913" type="curve" smooth="yes"/>
      <point x="752" y="1122" type="line" smooth="yes"/>
      <point x="752" y="1125"/>
      <point x="752" y="1127"/>
      <point x="750" y="1127" type="curve"/>
      <point x="750" y="1127" type="line"/>
      <point x="660" y="1127" type="line" smooth="yes"/>
      <point x="658" y="1127"/>
      <point x="658" y="1125"/>
      <point x="658" y="1122" type="curve" smooth="yes"/>
      <point x="658" y="913" type="line" smooth="yes"/>
      <point x="658" y="908"/>
      <point x="658" y="906"/>
    </contour>
    <contour>
      <point x="662" y="919" type="line"/>
      <point x="662" y="1117" type="line"/>
      <point x="748" y="1117" type="line"/>
      <point x="748" y="1117" type="line"/>
      <point x="748" y="919" type="line"/>
    </contour>
    <contour>
      <point x="0" y="1710" type="line"/>
      <point x="90" y="1710" type="line"/>
      <point x="90" y="1919" type="line"/>
      <point x="0" y="1919" type="line"/>
      <point x="0" y="1919" type="line"/>
    </contour>
    <contour>
      <point x="269" y="1437" type="line"/>
      <point x="359" y="1437" type="line"/>
      <point x="359" y="1645" type="line"/>
      <point x="269" y="1645" type="line"/>
      <point x="269" y="1645" type="line"/>
    </contour>
    <contour>
      <point x="531" y="1154" type="curve" smooth="yes"/>
      <point x="621" y="1154" type="line" smooth="yes"/>
      <point x="626" y="1154"/>
      <point x="631" y="1164"/>
      <point x="631" y="1177" type="curve" smooth="yes"/>
      <point x="631" y="1388" type="line" smooth="yes"/>
      <point x="631" y="1397"/>
      <point x="627" y="1411"/>
      <point x="621" y="1411" type="curve"/>
      <point x="621" y="1411" type="line"/>
      <point x="531" y="1411" type="line" smooth="yes"/>
      <point x="527" y="1411"/>
      <point x="521" y="1400"/>
      <point x="521" y="1388" type="curve" smooth="yes"/>
      <point x="521" y="1177" type="line" smooth="yes"/>
      <point x="521" y="1167"/>
      <point x="525" y="1154"/>
    </contour>
    <contour>
      <point x="541" y="1200" type="line"/>
      <point x="541" y="1364" type="line"/>
      <point x="612" y="1364" type="line"/>
      <point x="612" y="1364" type="line"/>
      <point x="612" y="1200" type="line"/>
    </contour>
    <contour>
      <point x="138" y="1710" type="line"/>
      <point x="228" y="1710" type="line"/>
      <point x="228" y="1919" type="line"/>
      <point x="138" y="1919" type="line"/>
      <point x="138" y="1919" type="line"/>
    </contour>
    <contour>
      <point x="406" y="1437" type="line"/>
      <point x="497" y="1437" type="line"/>
      <point x="497" y="1645" type="line"/>
      <point x="406" y="1645" type="line"/>
      <point x="406" y="1645" type="line"/>
    </contour>
    <contour>
      <point x="0" y="1998" type="line"/>
      <point x="90" y="1998" type="line"/>
      <point x="90" y="2209" type="line"/>
      <point x="0" y="2209" type="line"/>
      <point x="0" y="2209" type="line"/>
    </contour>
    <contour>
      <point x="269" y="1710" type="line"/>
      <point x="359" y="1710" type="line"/>
      <point x="359" y="1919" type="line"/>
      <point x="269" y="1919" type="line"/>
      <point x="269" y="1919" type="line"/>
    </contour>
    <contour>
      <point x="531" y="1414" type="curve" smooth="yes"/>
      <point x="621" y="1414" type="line" smooth="yes"/>
      <point x="626" y="1414"/>
      <point x="631" y="1424"/>
      <point x="631" y="1437" type="curve" smooth="yes"/>
      <point x="631" y="1645" type="line" smooth="yes"/>
      <point x="631" y="1655"/>
      <point x="627" y="1668"/>
      <point x="621" y="1668" type="curve"/>
      <point x="621" y="1668" type="line"/>
      <point x="531" y="1668" type="line" smooth="yes"/>
      <point x="527" y="1668"/>
      <point x="521" y="1657"/>
      <point x="521" y="1645" type="curve" smooth="yes"/>
      <point x="521" y="1437" type="line" smooth="yes"/>
      <point x="521" y="1426"/>
      <point x="525" y="1414"/>
    </contour>
    <contour>
      <point x="541" y="1460" type="line"/>
      <point x="541" y="1623" type="line"/>
      <point x="612" y="1623" type="line"/>
      <point x="612" y="1623" type="line"/>
      <point x="612" y="1460" type="line"/>
    </contour>
    <contour>
      <point x="138" y="1998" type="line"/>
      <point x="228" y="1998" type="line"/>
      <point x="228" y="2209" type="line"/>
      <point x="138" y="2209" type="line"/>
      <point x="138" y="2209" type="line"/>
    </contour>
    <contour>
      <point x="406" y="1710" type="line"/>
      <point x="497" y="1710" type="line"/>
      <point x="497" y="1710" type="line"/>
      <point x="497" y="1919" type="line"/>
      <point x="406" y="1919" type="line"/>
    </contour>
    <contour>
      <point x="269" y="1998" type="line"/>
      <point x="359" y="1998" type="line"/>
      <point x="359" y="2209" type="line"/>
      <point x="269" y="2209" type="line"/>
      <point x="269" y="2209" type="line"/>
    </contour>
    <contour>
      <point x="404" y="1983" type="line"/>
      <point x="494" y="1983" type="line" smooth="yes"/>
      <point x="498" y="1983"/>
      <point x="502" y="1991"/>
      <point x="502" y="1998" type="curve" smooth="yes"/>
      <point x="502" y="2209" type="line" smooth="yes"/>
      <point x="502" y="2217"/>
      <point x="498" y="2226"/>
      <point x="494" y="2226" type="curve" smooth="yes"/>
      <point x="404" y="2226" type="line" smooth="yes"/>
      <point x="401" y="2226"/>
      <point x="397" y="2218"/>
      <point x="397" y="2209" type="curve" smooth="yes"/>
      <point x="397" y="1998" type="line" smooth="yes"/>
      <point x="397" y="1992"/>
      <point x="400" y="1983"/>
      <point x="404" y="1983" type="curve"/>
    </contour>
    <contour>
      <point x="412" y="2016" type="line"/>
      <point x="412" y="2193" type="line"/>
      <point x="488" y="2193" type="line"/>
      <point x="488" y="2016" type="line"/>
      <point x="412" y="2016" type="line"/>
    </contour>
    <contour>
      <point x="660" y="1710" type="line"/>
      <point x="750" y="1710" type="line"/>
      <point x="750" y="1710" type="line"/>
      <point x="750" y="1919" type="line"/>
      <point x="660" y="1919" type="line"/>
    </contour>
    <contour>
      <point x="531" y="1998" type="line"/>
      <point x="621" y="1998" type="line"/>
      <point x="621" y="1998" type="line"/>
      <point x="621" y="2209" type="line"/>
      <point x="531" y="2209" type="line"/>
    </contour>
    <contour>
      <point x="660" y="1998" type="line"/>
      <point x="750" y="1998" type="line"/>
      <point x="750" y="1998" type="line"/>
      <point x="750" y="2209" type="line"/>
      <point x="660" y="2209" type="line"/>
    </contour>
    <contour>
      <point x="908" y="1703" type="curve" smooth="yes"/>
      <point x="998" y="1703" type="line" smooth="yes"/>
      <point x="999" y="1703"/>
      <point x="1000" y="1705"/>
      <point x="1000" y="1710" type="curve" smooth="yes"/>
      <point x="1000" y="1919" type="line" smooth="yes"/>
      <point x="1000" y="1922"/>
      <point x="999" y="1923"/>
      <point x="998" y="1923" type="curve"/>
      <point x="998" y="1923" type="line"/>
      <point x="908" y="1923" type="line" smooth="yes"/>
      <point x="906" y="1923"/>
      <point x="905" y="1922"/>
      <point x="905" y="1919" type="curve" smooth="yes"/>
      <point x="905" y="1710" type="line" smooth="yes"/>
      <point x="905" y="1705"/>
      <point x="906" y="1703"/>
    </contour>
    <contour>
      <point x="910" y="1716" type="line"/>
      <point x="910" y="1914" type="line"/>
      <point x="995" y="1914" type="line"/>
      <point x="995" y="1914" type="line"/>
      <point x="995" y="1716" type="line"/>
    </contour>
    <contour>
      <point x="908" y="1994" type="curve" smooth="yes"/>
      <point x="998" y="1994" type="line" smooth="yes"/>
      <point x="999" y="1994"/>
      <point x="1000" y="1995"/>
      <point x="1000" y="1998" type="curve" smooth="yes"/>
      <point x="1000" y="2209" type="line" smooth="yes"/>
      <point x="1000" y="2213"/>
      <point x="999" y="2215"/>
      <point x="998" y="2215" type="curve"/>
      <point x="998" y="2215" type="line"/>
      <point x="908" y="2215" type="line" smooth="yes"/>
      <point x="906" y="2215"/>
      <point x="905" y="2213"/>
      <point x="905" y="2209" type="curve" smooth="yes"/>
      <point x="905" y="1998" type="line" smooth="yes"/>
      <point x="905" y="1995"/>
      <point x="906" y="1994"/>
    </contour>
    <contour>
      <point x="910" y="2002" type="line"/>
      <point x="910" y="2203" type="line"/>
      <point x="995" y="2203" type="line"/>
      <point x="995" y="2203" type="line"/>
      <point x="995" y="2002" type="line"/>
    </contour>
  </outline>
</glyph>
<glyph name="uniE0C5" format="2">
  <advance width="1000"/>
  <unicode hex="E0C5"/>
  <note>
uniE0C5
</note>
  <outline>
    <contour>
      <point x="503" y="884" type="curve" smooth="yes"/>
      <point x="594" y="884" type="line" smooth="yes"/>
      <point x="601" y="884"/>
      <point x="606" y="898"/>
      <point x="606" y="913" type="curve" smooth="yes"/>
      <point x="606" y="1122" type="line" smooth="yes"/>
      <point x="606" y="1138"/>
      <point x="600" y="1150"/>
      <point x="594" y="1150" type="curve"/>
      <point x="594" y="1150" type="line"/>
      <point x="503" y="1150" type="line" smooth="yes"/>
      <point x="497" y="1150"/>
      <point x="492" y="1135"/>
      <point x="492" y="1122" type="curve" smooth="yes"/>
      <point x="492" y="913" type="line" smooth="yes"/>
      <point x="492" y="895"/>
      <point x="498" y="884"/>
    </contour>
    <contour>
      <point x="503" y="-480" type="curve" smooth="yes"/>
      <point x="594" y="-480" type="line" smooth="yes"/>
      <point x="595" y="-480"/>
      <point x="596" y="-478"/>
      <point x="596" y="-474" type="curve" smooth="yes"/>
      <point x="596" y="-264" type="line" smooth="yes"/>
      <point x="596" y="-261"/>
      <point x="595" y="-258"/>
      <point x="594" y="-258" type="curve"/>
      <point x="594" y="-258" type="line"/>
      <point x="503" y="-258" type="line" smooth="yes"/>
      <point x="502" y="-258"/>
      <point x="501" y="-261"/>
      <point x="501" y="-264" type="curve" smooth="yes"/>
      <point x="501" y="-474" type="line" smooth="yes"/>
      <point x="501" y="-478"/>
      <point x="502" y="-480"/>
    </contour>
    <contour>
      <point x="506" y="-469" type="line"/>
      <point x="506" y="-270" type="line"/>
      <point x="592" y="-270" type="line"/>
      <point x="592" y="-270" type="line"/>
      <point x="592" y="-469" type="line"/>
    </contour>
    <contour>
      <point x="250" y="87" type="curve" smooth="yes"/>
      <point x="340" y="87" type="line" smooth="yes"/>
      <point x="342" y="87"/>
      <point x="342" y="90"/>
      <point x="342" y="92" type="curve" smooth="yes"/>
      <point x="342" y="302" type="line" smooth="yes"/>
      <point x="342" y="306"/>
      <point x="342" y="308"/>
      <point x="340" y="308" type="curve"/>
      <point x="340" y="308" type="line"/>
      <point x="250" y="308" type="line" smooth="yes"/>
      <point x="248" y="308"/>
      <point x="248" y="306"/>
      <point x="248" y="302" type="curve" smooth="yes"/>
      <point x="248" y="92" type="line" smooth="yes"/>
      <point x="248" y="90"/>
      <point x="248" y="87"/>
    </contour>
    <contour>
      <point x="252" y="98" type="line"/>
      <point x="252" y="297" type="line"/>
      <point x="338" y="297" type="line"/>
      <point x="338" y="297" type="line"/>
      <point x="338" y="98" type="line"/>
    </contour>
    <contour>
      <point x="772" y="-474" type="line"/>
      <point x="862" y="-474" type="line"/>
      <point x="862" y="-264" type="line"/>
      <point x="772" y="-264" type="line"/>
      <point x="772" y="-264" type="line"/>
    </contour>
    <contour>
      <point x="128" y="369" type="curve" smooth="yes"/>
      <point x="218" y="369" type="line" smooth="yes"/>
      <point x="218" y="369"/>
      <point x="220" y="370"/>
      <point x="220" y="374" type="curve" smooth="yes"/>
      <point x="220" y="584" type="line" smooth="yes"/>
      <point x="220" y="588"/>
      <point x="218" y="590"/>
      <point x="218" y="590" type="curve"/>
      <point x="218" y="590" type="line"/>
      <point x="128" y="590" type="line" smooth="yes"/>
      <point x="126" y="590"/>
      <point x="125" y="588"/>
      <point x="125" y="584" type="curve" smooth="yes"/>
      <point x="125" y="374" type="line" smooth="yes"/>
      <point x="125" y="370"/>
      <point x="126" y="369"/>
    </contour>
    <contour>
      <point x="129" y="381" type="line"/>
      <point x="129" y="579" type="line"/>
      <point x="215" y="579" type="line"/>
      <point x="215" y="579" type="line"/>
      <point x="215" y="381" type="line"/>
    </contour>
    <contour>
      <point x="641" y="-189" type="line"/>
      <point x="731" y="-189" type="line"/>
      <point x="731" y="20" type="line"/>
      <point x="641" y="20" type="line"/>
      <point x="641" y="20" type="line"/>
    </contour>
    <contour>
      <point x="910" y="-474" type="line"/>
      <point x="1000" y="-474" type="line"/>
      <point x="1000" y="-264" type="line"/>
      <point x="910" y="-264" type="line"/>
      <point x="910" y="-264" type="line"/>
    </contour>
    <contour>
      <point x="503" y="87" type="curve" smooth="yes"/>
      <point x="594" y="87" type="line" smooth="yes"/>
      <point x="595" y="87"/>
      <point x="596" y="90"/>
      <point x="596" y="92" type="curve" smooth="yes"/>
      <point x="596" y="302" type="line" smooth="yes"/>
      <point x="596" y="306"/>
      <point x="595" y="308"/>
      <point x="594" y="308" type="curve"/>
      <point x="594" y="308" type="line"/>
      <point x="503" y="308" type="line" smooth="yes"/>
      <point x="502" y="308"/>
      <point x="501" y="306"/>
      <point x="501" y="302" type="curve" smooth="yes"/>
      <point x="501" y="92" type="line" smooth="yes"/>
      <point x="501" y="90"/>
      <point x="502" y="87"/>
    </contour>
    <contour>
      <point x="506" y="98" type="line"/>
      <point x="506" y="297" type="line"/>
      <point x="592" y="297" type="line"/>
      <point x="592" y="297" type="line"/>
      <point x="592" y="98" type="line"/>
    </contour>
    <contour>
      <point x="772" y="-189" type="line"/>
      <point x="862" y="-189" type="line"/>
      <point x="862" y="20" type="line"/>
      <point x="772" y="20" type="line"/>
      <point x="772" y="20" type="line"/>
    </contour>
    <contour>
      <point x="379" y="352" type="curve" smooth="yes"/>
      <point x="469" y="352" type="line" smooth="yes"/>
      <point x="475" y="352"/>
      <point x="479" y="365"/>
      <point x="479" y="374" type="curve" smooth="yes"/>
      <point x="479" y="584" type="line" smooth="yes"/>
      <point x="479" y="598"/>
      <point x="473" y="608"/>
      <point x="469" y="608" type="curve"/>
      <point x="469" y="608" type="line"/>
      <point x="379" y="608" type="line" smooth="yes"/>
      <point x="373" y="608"/>
      <point x="369" y="594"/>
      <point x="369" y="584" type="curve" smooth="yes"/>
      <point x="369" y="374" type="line" smooth="yes"/>
      <point x="369" y="361"/>
      <point x="374" y="352"/>
    </contour>
    <contour>
      <point x="388" y="398" type="line"/>
      <point x="388" y="561" type="line"/>
      <point x="459" y="561" type="line"/>
      <point x="459" y="561" type="line"/>
      <point x="459" y="398" type="line"/>
    </contour>
    <contour>
      <point x="641" y="92" type="line"/>
      <point x="731" y="92" type="line"/>
      <point x="731" y="302" type="line"/>
      <point x="641" y="302" type="line"/>
      <point x="641" y="302" type="line"/>
    </contour>
    <contour>
      <point x="910" y="-189" type="line"/>
      <point x="1000" y="-189" type="line"/>
      <point x="1000" y="20" type="line"/>
      <point x="910" y="20" type="line"/>
      <point x="910" y="20" type="line"/>
    </contour>
    <contour>
      <point x="772" y="92" type="line"/>
      <point x="862" y="92" type="line"/>
      <point x="862" y="302" type="line"/>
      <point x="772" y="302" type="line"/>
      <point x="772" y="302" type="line"/>
    </contour>
    <contour>
      <point x="379" y="648" type="line"/>
      <point x="469" y="648" type="line"/>
      <point x="469" y="856" type="line"/>
      <point x="379" y="856" type="line"/>
      <point x="379" y="856" type="line"/>
    </contour>
    <contour>
      <point x="910" y="92" type="line"/>
      <point x="1000" y="92" type="line"/>
      <point x="1000" y="302" type="line"/>
      <point x="910" y="302" type="line"/>
      <point x="910" y="302" type="line"/>
    </contour>
    <contour>
      <point x="250" y="906" type="curve" smooth="yes"/>
      <point x="340" y="906" type="line" smooth="yes"/>
      <point x="342" y="906"/>
      <point x="342" y="908"/>
      <point x="342" y="913" type="curve" smooth="yes"/>
      <point x="342" y="1122" type="line" smooth="yes"/>
      <point x="342" y="1125"/>
      <point x="342" y="1128"/>
      <point x="340" y="1128" type="curve"/>
      <point x="340" y="1128" type="line"/>
      <point x="250" y="1128" type="line" smooth="yes"/>
      <point x="248" y="1128"/>
      <point x="248" y="1125"/>
      <point x="248" y="1122" type="curve" smooth="yes"/>
      <point x="248" y="913" type="line" smooth="yes"/>
      <point x="248" y="908"/>
      <point x="248" y="906"/>
    </contour>
    <contour>
      <point x="252" y="918" type="line"/>
      <point x="252" y="1116" type="line"/>
      <point x="338" y="1116" type="line"/>
      <point x="338" y="1116" type="line"/>
      <point x="338" y="918" type="line"/>
    </contour>
    <contour>
      <point x="503" y="648" type="line"/>
      <point x="594" y="648" type="line"/>
      <point x="594" y="648" type="line"/>
      <point x="594" y="856" type="line"/>
      <point x="503" y="856" type="line"/>
    </contour>
    <contour>
      <point x="772" y="374" type="line"/>
      <point x="862" y="374" type="line"/>
      <point x="862" y="584" type="line"/>
      <point x="772" y="584" type="line"/>
      <point x="772" y="584" type="line"/>
    </contour>
    <contour>
      <point x="379" y="913" type="line"/>
      <point x="469" y="913" type="line"/>
      <point x="469" y="913" type="line"/>
      <point x="469" y="1122" type="line"/>
      <point x="379" y="1122" type="line"/>
    </contour>
    <contour>
      <point x="641" y="648" type="line"/>
      <point x="731" y="648" type="line"/>
      <point x="731" y="856" type="line"/>
      <point x="641" y="856" type="line"/>
      <point x="641" y="856" type="line"/>
    </contour>
    <contour>
      <point x="910" y="374" type="line"/>
      <point x="1000" y="374" type="line"/>
      <point x="1000" y="584" type="line"/>
      <point x="910" y="584" type="line"/>
      <point x="910" y="584" type="line"/>
    </contour>
    <contour>
      <point x="516" y="940" type="line"/>
      <point x="516" y="1094" type="line"/>
      <point x="582" y="1094" type="line"/>
      <point x="582" y="1094" type="line"/>
      <point x="582" y="940" type="line"/>
    </contour>
    <contour>
      <point x="772" y="648" type="line"/>
      <point x="862" y="648" type="line"/>
      <point x="862" y="856" type="line"/>
      <point x="772" y="856" type="line"/>
      <point x="772" y="856" type="line"/>
    </contour>
    <contour>
      <point x="379" y="1155" type="curve" smooth="yes"/>
      <point x="469" y="1155" type="line" smooth="yes"/>
      <point x="475" y="1155"/>
      <point x="479" y="1167"/>
      <point x="479" y="1177" type="curve" smooth="yes"/>
      <point x="479" y="1387" type="line" smooth="yes"/>
      <point x="479" y="1401"/>
      <point x="473" y="1411"/>
      <point x="469" y="1411" type="curve"/>
      <point x="469" y="1411" type="line"/>
      <point x="379" y="1411" type="line" smooth="yes"/>
      <point x="373" y="1411"/>
      <point x="369" y="1397"/>
      <point x="369" y="1387" type="curve" smooth="yes"/>
      <point x="369" y="1177" type="line" smooth="yes"/>
      <point x="369" y="1164"/>
      <point x="374" y="1155"/>
    </contour>
    <contour>
      <point x="388" y="1200" type="line"/>
      <point x="388" y="1364" type="line"/>
      <point x="459" y="1364" type="line"/>
      <point x="459" y="1364" type="line"/>
      <point x="459" y="1200" type="line"/>
    </contour>
    <contour>
      <point x="641" y="913" type="line"/>
      <point x="731" y="913" type="line"/>
      <point x="731" y="1122" type="line"/>
      <point x="641" y="1122" type="line"/>
      <point x="641" y="1122" type="line"/>
    </contour>
    <contour>
      <point x="2" y="1703" type="curve" smooth="yes"/>
      <point x="92" y="1703" type="line" smooth="yes"/>
      <point x="94" y="1703"/>
      <point x="95" y="1705"/>
      <point x="95" y="1710" type="curve" smooth="yes"/>
      <point x="95" y="1919" type="line" smooth="yes"/>
      <point x="95" y="1922"/>
      <point x="94" y="1925"/>
      <point x="92" y="1925" type="curve"/>
      <point x="92" y="1925" type="line"/>
      <point x="2" y="1925" type="line" smooth="yes"/>
      <point x="1" y="1925"/>
      <point x="0" y="1922"/>
      <point x="0" y="1919" type="curve" smooth="yes"/>
      <point x="0" y="1710" type="line" smooth="yes"/>
      <point x="0" y="1705"/>
      <point x="1" y="1703"/>
    </contour>
    <contour>
      <point x="5" y="1715" type="line"/>
      <point x="5" y="1913" type="line"/>
      <point x="90" y="1913" type="line"/>
      <point x="90" y="1913" type="line"/>
      <point x="90" y="1715" type="line"/>
    </contour>
    <contour>
      <point x="910" y="648" type="line"/>
      <point x="1000" y="648" type="line"/>
      <point x="1000" y="856" type="line"/>
      <point x="910" y="856" type="line"/>
      <point x="910" y="856" type="line"/>
    </contour>
    <contour>
      <point x="772" y="913" type="line"/>
      <point x="862" y="913" type="line"/>
      <point x="862" y="1122" type="line"/>
      <point x="772" y="1122" type="line"/>
      <point x="772" y="1122" type="line"/>
    </contour>
    <contour>
      <point x="379" y="1413" type="curve" smooth="yes"/>
      <point x="469" y="1413" type="line" smooth="yes"/>
      <point x="475" y="1413"/>
      <point x="479" y="1426"/>
      <point x="479" y="1436" type="curve" smooth="yes"/>
      <point x="479" y="1646" type="line" smooth="yes"/>
      <point x="479" y="1658"/>
      <point x="473" y="1668"/>
      <point x="469" y="1668" type="curve"/>
      <point x="469" y="1668" type="line"/>
      <point x="379" y="1668" type="line" smooth="yes"/>
      <point x="373" y="1668"/>
      <point x="369" y="1655"/>
      <point x="369" y="1646" type="curve" smooth="yes"/>
      <point x="369" y="1436" type="line" smooth="yes"/>
      <point x="369" y="1422"/>
      <point x="374" y="1413"/>
    </contour>
    <contour>
      <point x="388" y="1459" type="line"/>
      <point x="388" y="1622" type="line"/>
      <point x="459" y="1622" type="line"/>
      <point x="459" y="1622" type="line"/>
      <point x="459" y="1459" type="line"/>
    </contour>
    <contour>
      <point x="641" y="1177" type="line"/>
      <point x="731" y="1177" type="line"/>
      <point x="731" y="1387" type="line"/>
      <point x="641" y="1387" type="line"/>
      <point x="641" y="1387" type="line"/>
    </contour>
    <contour>
      <point x="2" y="1994" type="curve" smooth="yes"/>
      <point x="92" y="1994" type="line" smooth="yes"/>
      <point x="94" y="1994"/>
      <point x="95" y="1996"/>
      <point x="95" y="2000" type="curve" smooth="yes"/>
      <point x="95" y="2209" type="line" smooth="yes"/>
      <point x="95" y="2212"/>
      <point x="94" y="2215"/>
      <point x="92" y="2215" type="curve"/>
      <point x="92" y="2215" type="line"/>
      <point x="2" y="2215" type="line" smooth="yes"/>
      <point x="1" y="2215"/>
      <point x="0" y="2212"/>
      <point x="0" y="2209" type="curve" smooth="yes"/>
      <point x="0" y="2000" type="line" smooth="yes"/>
      <point x="0" y="1996"/>
      <point x="1" y="1994"/>
    </contour>
    <contour>
      <point x="5" y="2004" type="line"/>
      <point x="5" y="2203" type="line"/>
      <point x="90" y="2203" type="line"/>
      <point x="90" y="2203" type="line"/>
      <point x="90" y="2004" type="line"/>
    </contour>
    <contour>
      <point x="910" y="913" type="line"/>
      <point x="1000" y="913" type="line"/>
      <point x="1000" y="1122" type="line"/>
      <point x="910" y="1122" type="line"/>
      <point x="910" y="1122" type="line"/>
    </contour>
    <contour>
      <point x="250" y="1710" type="line"/>
      <point x="340" y="1710" type="line"/>
      <point x="340" y="1710" type="line"/>
      <point x="340" y="1919" type="line"/>
      <point x="250" y="1919" type="line"/>
    </contour>
    <contour>
      <point x="503" y="1436" type="line"/>
      <point x="594" y="1436" type="line"/>
      <point x="594" y="1646" type="line"/>
      <point x="503" y="1646" type="line"/>
      <point x="503" y="1646" type="line"/>
    </contour>
    <contour>
      <point x="772" y="1177" type="line"/>
      <point x="862" y="1177" type="line"/>
      <point x="862" y="1387" type="line"/>
      <point x="772" y="1387" type="line"/>
      <point x="772" y="1387" type="line"/>
    </contour>
    <contour>
      <point x="641" y="1436" type="line"/>
      <point x="731" y="1436" type="line"/>
      <point x="731" y="1646" type="line"/>
      <point x="641" y="1646" type="line"/>
      <point x="641" y="1646" type="line"/>
    </contour>
    <contour>
      <point x="910" y="1177" type="line"/>
      <point x="1000" y="1177" type="line"/>
      <point x="1000" y="1387" type="line"/>
      <point x="910" y="1387" type="line"/>
      <point x="910" y="1387" type="line"/>
    </contour>
    <contour>
      <point x="250" y="2000" type="line"/>
      <point x="340" y="2000" type="line"/>
      <point x="340" y="2000" type="line"/>
      <point x="340" y="2209" type="line"/>
      <point x="250" y="2209" type="line"/>
    </contour>
    <contour>
      <point x="503" y="1710" type="line"/>
      <point x="594" y="1710" type="line"/>
      <point x="594" y="1710" type="line"/>
      <point x="594" y="1919" type="line"/>
      <point x="503" y="1919" type="line"/>
    </contour>
    <contour>
      <point x="772" y="1436" type="line"/>
      <point x="862" y="1436" type="line"/>
      <point x="862" y="1646" type="line"/>
      <point x="772" y="1646" type="line"/>
      <point x="772" y="1646" type="line"/>
    </contour>
    <contour>
      <point x="379" y="2000" type="line"/>
      <point x="469" y="2000" type="line"/>
      <point x="469" y="2000" type="line"/>
      <point x="469" y="2209" type="line"/>
      <point x="379" y="2209" type="line"/>
    </contour>
    <contour>
      <point x="641" y="1710" type="line"/>
      <point x="731" y="1710" type="line"/>
      <point x="731" y="1919" type="line"/>
      <point x="641" y="1919" type="line"/>
      <point x="641" y="1919" type="line"/>
    </contour>
    <contour>
      <point x="910" y="1436" type="line"/>
      <point x="1000" y="1436" type="line"/>
      <point x="1000" y="1646" type="line"/>
      <point x="910" y="1646" type="line"/>
      <point x="910" y="1646" type="line"/>
    </contour>
    <contour>
      <point x="506" y="1983" type="line"/>
      <point x="596" y="1983" type="line" smooth="yes"/>
      <point x="600" y="1983"/>
      <point x="603" y="1992"/>
      <point x="603" y="2000" type="curve" smooth="yes"/>
      <point x="603" y="2209" type="line" smooth="yes"/>
      <point x="603" y="2218"/>
      <point x="599" y="2226"/>
      <point x="596" y="2226" type="curve" smooth="yes"/>
      <point x="506" y="2226" type="line" smooth="yes"/>
      <point x="502" y="2226"/>
      <point x="498" y="2217"/>
      <point x="498" y="2209" type="curve" smooth="yes"/>
      <point x="498" y="2000" type="line" smooth="yes"/>
      <point x="498" y="1991"/>
      <point x="502" y="1983"/>
      <point x="506" y="1983" type="curve"/>
    </contour>
    <contour>
      <point x="512" y="2016" type="line"/>
      <point x="512" y="2192" type="line"/>
      <point x="588" y="2192" type="line"/>
      <point x="588" y="2016" type="line"/>
      <point x="512" y="2016" type="line"/>
    </contour>
    <contour>
      <point x="772" y="1710" type="line"/>
      <point x="862" y="1710" type="line"/>
      <point x="862" y="1919" type="line"/>
      <point x="772" y="1919" type="line"/>
      <point x="772" y="1919" type="line"/>
    </contour>
    <contour>
      <point x="641" y="2000" type="line"/>
      <point x="731" y="2000" type="line"/>
      <point x="731" y="2209" type="line"/>
      <point x="641" y="2209" type="line"/>
      <point x="641" y="2209" type="line"/>
    </contour>
    <contour>
      <point x="910" y="1710" type="line"/>
      <point x="1000" y="1710" type="line"/>
      <point x="1000" y="1919" type="line"/>
      <point x="910" y="1919" type="line"/>
      <point x="910" y="1919" type="line"/>
    </contour>
    <contour>
      <point x="772" y="2000" type="line"/>
      <point x="862" y="2000" type="line"/>
      <point x="862" y="2209" type="line"/>
      <point x="772" y="2209" type="line"/>
      <point x="772" y="2209" type="line"/>
    </contour>
    <contour>
      <point x="910" y="2000" type="line"/>
      <point x="1000" y="2000" type="line"/>
      <point x="1000" y="2209" type="line"/>
      <point x="1000" y="2209" type="line"/>
      <point x="910" y="2209" type="line"/>
    </contour>
  </outline>
</glyph>
<glyph name="uniE0C6" format="2">
  <advance width="1000"/>
  <unicode hex="E0C6"/>
  <note>
uniE0C6
</note>
  <outline>
    <contour>
      <point x="644" y="287" type="curve" smooth="yes"/>
      <point x="787" y="287" type="line" smooth="yes"/>
      <point x="797" y="287"/>
      <point x="807" y="307"/>
      <point x="807" y="328" type="curve" smooth="yes"/>
      <point x="807" y="632" type="line" smooth="yes"/>
      <point x="807" y="651"/>
      <point x="798" y="673"/>
      <point x="787" y="673" type="curve"/>
      <point x="787" y="673" type="line"/>
      <point x="644" y="673" type="line" smooth="yes"/>
      <point x="636" y="673"/>
      <point x="625" y="654"/>
      <point x="625" y="632" type="curve" smooth="yes"/>
      <point x="625" y="328" type="line" smooth="yes"/>
      <point x="625" y="309"/>
      <point x="633" y="287"/>
    </contour>
    <contour>
      <point x="0" y="-446" type="line"/>
      <point x="143" y="-446" type="line"/>
      <point x="143" y="-143" type="line"/>
      <point x="0" y="-143" type="line"/>
      <point x="0" y="-143" type="line"/>
    </contour>
    <contour>
      <point x="218" y="-446" type="line"/>
      <point x="361" y="-446" type="line"/>
      <point x="361" y="-143" type="line"/>
      <point x="218" y="-143" type="line"/>
      <point x="218" y="-143" type="line"/>
    </contour>
    <contour>
      <point x="0" y="-54" type="line"/>
      <point x="143" y="-54" type="line"/>
      <point x="143" y="249" type="line"/>
      <point x="0" y="249" type="line"/>
      <point x="0" y="249" type="line"/>
    </contour>
    <contour>
      <point x="218" y="-54" type="line"/>
      <point x="361" y="-54" type="line"/>
      <point x="361" y="249" type="line"/>
      <point x="218" y="249" type="line"/>
      <point x="218" y="249" type="line"/>
    </contour>
    <contour>
      <point x="0" y="328" type="line"/>
      <point x="143" y="328" type="line"/>
      <point x="143" y="632" type="line"/>
      <point x="0" y="632" type="line"/>
      <point x="0" y="632" type="line"/>
    </contour>
    <contour>
      <point x="427" y="-81" type="curve" smooth="yes"/>
      <point x="569" y="-81" type="line" smooth="yes"/>
      <point x="575" y="-81"/>
      <point x="582" y="-70"/>
      <point x="582" y="-54" type="curve" smooth="yes"/>
      <point x="582" y="249" type="line" smooth="yes"/>
      <point x="582" y="261"/>
      <point x="576" y="275"/>
      <point x="569" y="275" type="curve"/>
      <point x="569" y="275" type="line"/>
      <point x="427" y="275" type="line" smooth="yes"/>
      <point x="420" y="275"/>
      <point x="413" y="264"/>
      <point x="413" y="249" type="curve" smooth="yes"/>
      <point x="413" y="-54" type="line" smooth="yes"/>
      <point x="413" y="-67"/>
      <point x="418" y="-81"/>
    </contour>
    <contour>
      <point x="439" y="-27" type="line"/>
      <point x="439" y="222" type="line"/>
      <point x="556" y="222" type="line"/>
      <point x="556" y="222" type="line"/>
      <point x="556" y="-27" type="line"/>
    </contour>
    <contour>
      <point x="842" y="-480" type="curve" smooth="yes"/>
      <point x="984" y="-480" type="line" smooth="yes"/>
      <point x="992" y="-480"/>
      <point x="1000" y="-466"/>
      <point x="1000" y="-446" type="curve" smooth="yes"/>
      <point x="1000" y="-143" type="line" smooth="yes"/>
      <point x="1000" y="-129"/>
      <point x="993" y="-112"/>
      <point x="984" y="-112" type="curve"/>
      <point x="984" y="-112" type="line"/>
      <point x="842" y="-112" type="line" smooth="yes"/>
      <point x="834" y="-112"/>
      <point x="827" y="-125"/>
      <point x="827" y="-143" type="curve" smooth="yes"/>
      <point x="827" y="-446" type="line" smooth="yes"/>
      <point x="827" y="-463"/>
      <point x="833" y="-480"/>
    </contour>
    <contour>
      <point x="858" y="-415" type="line"/>
      <point x="858" y="-178" type="line"/>
      <point x="969" y="-178" type="line"/>
      <point x="969" y="-178" type="line"/>
      <point x="969" y="-415" type="line"/>
    </contour>
    <contour>
      <point x="218" y="328" type="line"/>
      <point x="361" y="328" type="line"/>
      <point x="361" y="632" type="line"/>
      <point x="218" y="632" type="line"/>
      <point x="218" y="632" type="line"/>
    </contour>
    <contour>
      <point x="0" y="713" type="line"/>
      <point x="143" y="713" type="line"/>
      <point x="143" y="1016" type="line"/>
      <point x="0" y="1016" type="line"/>
      <point x="0" y="1016" type="line"/>
    </contour>
    <contour>
      <point x="0" y="1084" type="line"/>
      <point x="143" y="1084" type="line"/>
      <point x="143" y="1389" type="line"/>
      <point x="0" y="1389" type="line"/>
      <point x="0" y="1389" type="line"/>
    </contour>
    <contour>
      <point x="663" y="372" type="line"/>
      <point x="663" y="590" type="line"/>
      <point x="768" y="590" type="line"/>
      <point x="768" y="590" type="line"/>
      <point x="768" y="372" type="line"/>
    </contour>
    <contour>
      <point x="427" y="713" type="line"/>
      <point x="569" y="713" type="line"/>
      <point x="569" y="1016" type="line"/>
      <point x="427" y="1016" type="line"/>
      <point x="427" y="1016" type="line"/>
    </contour>
    <contour>
      <point x="218" y="1084" type="line"/>
      <point x="361" y="1084" type="line"/>
      <point x="361" y="1389" type="line"/>
      <point x="218" y="1389" type="line"/>
      <point x="218" y="1389" type="line"/>
    </contour>
    <contour>
      <point x="0" y="1480" type="line"/>
      <point x="143" y="1480" type="line"/>
      <point x="143" y="1783" type="line"/>
      <point x="0" y="1783" type="line"/>
      <point x="0" y="1783" type="line"/>
    </contour>
    <contour>
      <point x="427" y="1071" type="line"/>
      <point x="569" y="1071" type="line" smooth="yes"/>
      <point x="572" y="1071"/>
      <point x="576" y="1077"/>
      <point x="576" y="1084" type="curve" smooth="yes"/>
      <point x="576" y="1389" type="line" smooth="yes"/>
      <point x="576" y="1394"/>
      <point x="573" y="1403"/>
      <point x="569" y="1403" type="curve" smooth="yes"/>
      <point x="427" y="1403" type="line" smooth="yes"/>
      <point x="423" y="1403"/>
      <point x="420" y="1394"/>
      <point x="420" y="1389" type="curve" smooth="yes"/>
      <point x="420" y="1084" type="line" smooth="yes"/>
      <point x="420" y="1079"/>
      <point x="422" y="1071"/>
      <point x="427" y="1071" type="curve"/>
    </contour>
    <contour>
      <point x="432" y="1099" type="line"/>
      <point x="432" y="1374" type="line"/>
      <point x="562" y="1374" type="line"/>
      <point x="562" y="1099" type="line"/>
      <point x="432" y="1099" type="line"/>
    </contour>
    <contour>
      <point x="218" y="1480" type="line"/>
      <point x="361" y="1480" type="line"/>
      <point x="361" y="1783" type="line"/>
      <point x="218" y="1783" type="line"/>
      <point x="218" y="1783" type="line"/>
    </contour>
    <contour>
      <point x="0" y="1899" type="line"/>
      <point x="143" y="1899" type="line"/>
      <point x="143" y="2202" type="line"/>
      <point x="0" y="2202" type="line"/>
      <point x="0" y="2202" type="line"/>
    </contour>
    <contour>
      <point x="427" y="1480" type="line"/>
      <point x="569" y="1480" type="line"/>
      <point x="569" y="1783" type="line"/>
      <point x="427" y="1783" type="line"/>
      <point x="427" y="1783" type="line"/>
    </contour>
    <contour>
      <point x="842" y="1053" type="curve" smooth="yes"/>
      <point x="984" y="1053" type="line" smooth="yes"/>
      <point x="992" y="1053"/>
      <point x="1000" y="1067"/>
      <point x="1000" y="1084" type="curve" smooth="yes"/>
      <point x="1000" y="1389" type="line" smooth="yes"/>
      <point x="1000" y="1404"/>
      <point x="993" y="1420"/>
      <point x="984" y="1420" type="curve"/>
      <point x="984" y="1420" type="line"/>
      <point x="842" y="1420" type="line" smooth="yes"/>
      <point x="835" y="1420"/>
      <point x="827" y="1406"/>
      <point x="827" y="1389" type="curve" smooth="yes"/>
      <point x="827" y="1084" type="line" smooth="yes"/>
      <point x="827" y="1070"/>
      <point x="833" y="1053"/>
    </contour>
    <contour>
      <point x="858" y="1117" type="line"/>
      <point x="858" y="1355" type="line"/>
      <point x="969" y="1355" type="line"/>
      <point x="969" y="1355" type="line"/>
      <point x="969" y="1117" type="line"/>
    </contour>
    <contour>
      <point x="218" y="1899" type="line"/>
      <point x="361" y="1899" type="line"/>
      <point x="361" y="2202" type="line"/>
      <point x="218" y="2202" type="line"/>
      <point x="218" y="2202" type="line"/>
    </contour>
    <contour>
      <point x="644" y="1467" type="curve" smooth="yes"/>
      <point x="787" y="1467" type="line" smooth="yes"/>
      <point x="791" y="1467"/>
      <point x="793" y="1472"/>
      <point x="793" y="1480" type="curve" smooth="yes"/>
      <point x="793" y="1783" type="line" smooth="yes"/>
      <point x="793" y="1791"/>
      <point x="791" y="1796"/>
      <point x="787" y="1796" type="curve"/>
      <point x="787" y="1796" type="line"/>
      <point x="644" y="1796" type="line" smooth="yes"/>
      <point x="642" y="1796"/>
      <point x="638" y="1791"/>
      <point x="638" y="1783" type="curve" smooth="yes"/>
      <point x="638" y="1480" type="line" smooth="yes"/>
      <point x="638" y="1473"/>
      <point x="641" y="1467"/>
    </contour>
    <contour>
      <point x="651" y="1493" type="line"/>
      <point x="651" y="1769" type="line"/>
      <point x="781" y="1769" type="line"/>
      <point x="781" y="1769" type="line"/>
      <point x="781" y="1493" type="line"/>
    </contour>
    <contour>
      <point x="427" y="1885" type="line"/>
      <point x="569" y="1885" type="line" smooth="yes"/>
      <point x="572" y="1885"/>
      <point x="576" y="1892"/>
      <point x="576" y="1899" type="curve" smooth="yes"/>
      <point x="576" y="2202" type="line" smooth="yes"/>
      <point x="576" y="2208"/>
      <point x="573" y="2215"/>
      <point x="569" y="2215" type="curve" smooth="yes"/>
      <point x="427" y="2215" type="line" smooth="yes"/>
      <point x="423" y="2215"/>
      <point x="420" y="2208"/>
      <point x="420" y="2202" type="curve" smooth="yes"/>
      <point x="420" y="1899" type="line" smooth="yes"/>
      <point x="420" y="1892"/>
      <point x="422" y="1885"/>
      <point x="427" y="1885" type="curve"/>
    </contour>
    <contour>
      <point x="432" y="1912" type="line"/>
      <point x="432" y="2187" type="line"/>
      <point x="562" y="2187" type="line"/>
      <point x="562" y="1912" type="line"/>
      <point x="432" y="1912" type="line"/>
    </contour>
    <contour>
      <point x="641" y="1874" type="line"/>
      <point x="783" y="1874" type="line" smooth="yes"/>
      <point x="789" y="1874"/>
      <point x="796" y="1885"/>
      <point x="796" y="1899" type="curve" smooth="yes"/>
      <point x="796" y="2202" type="line" smooth="yes"/>
      <point x="796" y="2213"/>
      <point x="791" y="2226"/>
      <point x="783" y="2226" type="curve" smooth="yes"/>
      <point x="641" y="2226" type="line" smooth="yes"/>
      <point x="636" y="2226"/>
      <point x="629" y="2215"/>
      <point x="629" y="2202" type="curve" smooth="yes"/>
      <point x="629" y="1899" type="line" smooth="yes"/>
      <point x="629" y="1887"/>
      <point x="634" y="1874"/>
      <point x="641" y="1874" type="curve"/>
    </contour>
    <contour>
      <point x="653" y="1924" type="line"/>
      <point x="653" y="2176" type="line"/>
      <point x="772" y="2176" type="line"/>
      <point x="772" y="1924" type="line"/>
      <point x="653" y="1924" type="line"/>
    </contour>
  </outline>
</glyph>
<glyph name="uniE0C7" format="2">
  <advance width="1000"/>
  <unicode hex="E0C7"/>
  <note>
uniE0C7
</note>
  <outline>
    <contour>
      <point x="213" y="287" type="curve" smooth="yes"/>
      <point x="357" y="287" type="line" smooth="yes"/>
      <point x="367" y="287"/>
      <point x="375" y="309"/>
      <point x="375" y="330" type="curve" smooth="yes"/>
      <point x="375" y="632" type="line" smooth="yes"/>
      <point x="375" y="654"/>
      <point x="365" y="673"/>
      <point x="357" y="673" type="curve"/>
      <point x="357" y="673" type="line"/>
      <point x="213" y="673" type="line" smooth="yes"/>
      <point x="202" y="673"/>
      <point x="193" y="650"/>
      <point x="193" y="632" type="curve" smooth="yes"/>
      <point x="193" y="330" type="line" smooth="yes"/>
      <point x="193" y="306"/>
      <point x="204" y="287"/>
    </contour>
    <contour>
      <point x="16" y="-480" type="curve" smooth="yes"/>
      <point x="158" y="-480" type="line" smooth="yes"/>
      <point x="167" y="-480"/>
      <point x="174" y="-463"/>
      <point x="174" y="-446" type="curve" smooth="yes"/>
      <point x="174" y="-145" type="line" smooth="yes"/>
      <point x="174" y="-128"/>
      <point x="165" y="-112"/>
      <point x="158" y="-112" type="curve"/>
      <point x="158" y="-112" type="line"/>
      <point x="16" y="-112" type="line" smooth="yes"/>
      <point x="7" y="-112"/>
      <point x="0" y="-129"/>
      <point x="0" y="-145" type="curve" smooth="yes"/>
      <point x="0" y="-446" type="line" smooth="yes"/>
      <point x="0" y="-465"/>
      <point x="8" y="-480"/>
    </contour>
    <contour>
      <point x="31" y="-415" type="line"/>
      <point x="31" y="-176" type="line"/>
      <point x="143" y="-176" type="line"/>
      <point x="143" y="-176" type="line"/>
      <point x="143" y="-415" type="line"/>
    </contour>
    <contour>
      <point x="639" y="-446" type="line"/>
      <point x="782" y="-446" type="line"/>
      <point x="782" y="-145" type="line"/>
      <point x="639" y="-145" type="line"/>
      <point x="639" y="-145" type="line"/>
    </contour>
    <contour>
      <point x="431" y="-81" type="curve" smooth="yes"/>
      <point x="573" y="-81" type="line" smooth="yes"/>
      <point x="582" y="-81"/>
      <point x="587" y="-67"/>
      <point x="587" y="-54" type="curve" smooth="yes"/>
      <point x="587" y="249" type="line" smooth="yes"/>
      <point x="587" y="264"/>
      <point x="580" y="276"/>
      <point x="573" y="276" type="curve"/>
      <point x="573" y="276" type="line"/>
      <point x="431" y="276" type="line" smooth="yes"/>
      <point x="423" y="276"/>
      <point x="418" y="261"/>
      <point x="418" y="249" type="curve" smooth="yes"/>
      <point x="418" y="-54" type="line" smooth="yes"/>
      <point x="418" y="-71"/>
      <point x="425" y="-81"/>
    </contour>
    <contour>
      <point x="444" y="-26" type="line"/>
      <point x="444" y="222" type="line"/>
      <point x="562" y="222" type="line"/>
      <point x="562" y="222" type="line"/>
      <point x="562" y="-26" type="line"/>
    </contour>
    <contour>
      <point x="858" y="-446" type="line"/>
      <point x="1000" y="-446" type="line"/>
      <point x="1000" y="-145" type="line"/>
      <point x="858" y="-145" type="line"/>
      <point x="858" y="-145" type="line"/>
    </contour>
    <contour>
      <point x="232" y="369" type="line"/>
      <point x="232" y="591" type="line"/>
      <point x="337" y="591" type="line"/>
      <point x="337" y="591" type="line"/>
      <point x="337" y="369" type="line"/>
    </contour>
    <contour>
      <point x="639" y="-54" type="line"/>
      <point x="782" y="-54" type="line"/>
      <point x="782" y="249" type="line"/>
      <point x="639" y="249" type="line"/>
      <point x="639" y="249" type="line"/>
    </contour>
    <contour>
      <point x="858" y="-54" type="line"/>
      <point x="1000" y="-54" type="line"/>
      <point x="1000" y="249" type="line"/>
      <point x="858" y="249" type="line"/>
      <point x="858" y="249" type="line"/>
    </contour>
    <contour>
      <point x="639" y="330" type="line"/>
      <point x="782" y="330" type="line"/>
      <point x="782" y="632" type="line"/>
      <point x="639" y="632" type="line"/>
      <point x="639" y="632" type="line"/>
    </contour>
    <contour>
      <point x="16" y="1053" type="curve" smooth="yes"/>
      <point x="158" y="1053" type="line" smooth="yes"/>
      <point x="167" y="1053"/>
      <point x="174" y="1071"/>
      <point x="174" y="1084" type="curve" smooth="yes"/>
      <point x="174" y="1389" type="line" smooth="yes"/>
      <point x="174" y="1406"/>
      <point x="165" y="1421"/>
      <point x="158" y="1421" type="curve"/>
      <point x="158" y="1421" type="line"/>
      <point x="16" y="1421" type="line" smooth="yes"/>
      <point x="7" y="1421"/>
      <point x="0" y="1403"/>
      <point x="0" y="1389" type="curve" smooth="yes"/>
      <point x="0" y="1084" type="line" smooth="yes"/>
      <point x="0" y="1066"/>
      <point x="8" y="1053"/>
    </contour>
    <contour>
      <point x="31" y="1117" type="line"/>
      <point x="31" y="1356" type="line"/>
      <point x="143" y="1356" type="line"/>
      <point x="143" y="1356" type="line"/>
      <point x="143" y="1117" type="line"/>
    </contour>
    <contour>
      <point x="431" y="713" type="line"/>
      <point x="573" y="713" type="line"/>
      <point x="573" y="1015" type="line"/>
      <point x="431" y="1015" type="line"/>
      <point x="431" y="1015" type="line"/>
    </contour>
    <contour>
      <point x="858" y="330" type="line"/>
      <point x="1000" y="330" type="line"/>
      <point x="1000" y="632" type="line"/>
      <point x="858" y="632" type="line"/>
      <point x="858" y="632" type="line"/>
    </contour>
    <contour>
      <point x="431" y="1072" type="line"/>
      <point x="573" y="1072" type="line" smooth="yes"/>
      <point x="578" y="1072"/>
      <point x="580" y="1079"/>
      <point x="580" y="1084" type="curve" smooth="yes"/>
      <point x="580" y="1389" type="line" smooth="yes"/>
      <point x="580" y="1395"/>
      <point x="578" y="1402"/>
      <point x="573" y="1402" type="curve" smooth="yes"/>
      <point x="431" y="1402" type="line" smooth="yes"/>
      <point x="428" y="1402"/>
      <point x="424" y="1394"/>
      <point x="424" y="1389" type="curve" smooth="yes"/>
      <point x="424" y="1084" type="line" smooth="yes"/>
      <point x="424" y="1077"/>
      <point x="428" y="1072"/>
      <point x="431" y="1072" type="curve"/>
    </contour>
    <contour>
      <point x="438" y="1098" type="line"/>
      <point x="438" y="1374" type="line"/>
      <point x="568" y="1374" type="line"/>
      <point x="568" y="1098" type="line"/>
      <point x="438" y="1098" type="line"/>
    </contour>
    <contour>
      <point x="213" y="1468" type="curve" smooth="yes"/>
      <point x="357" y="1468" type="line" smooth="yes"/>
      <point x="360" y="1468"/>
      <point x="362" y="1476"/>
      <point x="362" y="1479" type="curve" smooth="yes"/>
      <point x="362" y="1783" type="line" smooth="yes"/>
      <point x="362" y="1791"/>
      <point x="359" y="1796"/>
      <point x="357" y="1796" type="curve"/>
      <point x="357" y="1796" type="line"/>
      <point x="213" y="1796" type="line" smooth="yes"/>
      <point x="209" y="1796"/>
      <point x="207" y="1791"/>
      <point x="207" y="1783" type="curve" smooth="yes"/>
      <point x="207" y="1479" type="line" smooth="yes"/>
      <point x="207" y="1472"/>
      <point x="211" y="1468"/>
    </contour>
    <contour>
      <point x="219" y="1493" type="line"/>
      <point x="219" y="1770" type="line"/>
      <point x="350" y="1770" type="line"/>
      <point x="350" y="1770" type="line"/>
      <point x="350" y="1493" type="line"/>
    </contour>
    <contour>
      <point x="858" y="713" type="line"/>
      <point x="1000" y="713" type="line"/>
      <point x="1000" y="1015" type="line"/>
      <point x="858" y="1015" type="line"/>
      <point x="858" y="1015" type="line"/>
    </contour>
    <contour>
      <point x="639" y="1084" type="line"/>
      <point x="782" y="1084" type="line"/>
      <point x="782" y="1389" type="line"/>
      <point x="639" y="1389" type="line"/>
      <point x="639" y="1389" type="line"/>
    </contour>
    <contour>
      <point x="431" y="1479" type="line"/>
      <point x="573" y="1479" type="line"/>
      <point x="573" y="1783" type="line"/>
      <point x="431" y="1783" type="line"/>
      <point x="431" y="1783" type="line"/>
    </contour>
    <contour>
      <point x="858" y="1084" type="line"/>
      <point x="1000" y="1084" type="line"/>
      <point x="1000" y="1389" type="line"/>
      <point x="858" y="1389" type="line"/>
      <point x="858" y="1389" type="line"/>
    </contour>
    <contour>
      <point x="217" y="1874" type="line"/>
      <point x="359" y="1874" type="line" smooth="yes"/>
      <point x="366" y="1874"/>
      <point x="371" y="1887"/>
      <point x="371" y="1900" type="curve" smooth="yes"/>
      <point x="371" y="2202" type="line" smooth="yes"/>
      <point x="371" y="2216"/>
      <point x="364" y="2226"/>
      <point x="359" y="2226" type="curve" smooth="yes"/>
      <point x="217" y="2226" type="line" smooth="yes"/>
      <point x="210" y="2226"/>
      <point x="205" y="2215"/>
      <point x="205" y="2202" type="curve" smooth="yes"/>
      <point x="205" y="1900" type="line" smooth="yes"/>
      <point x="205" y="1886"/>
      <point x="211" y="1874"/>
      <point x="217" y="1874" type="curve"/>
    </contour>
    <contour>
      <point x="228" y="1924" type="line"/>
      <point x="228" y="2176" type="line"/>
      <point x="348" y="2176" type="line"/>
      <point x="348" y="1924" type="line"/>
      <point x="228" y="1924" type="line"/>
    </contour>
    <contour>
      <point x="639" y="1479" type="line"/>
      <point x="782" y="1479" type="line"/>
      <point x="782" y="1783" type="line"/>
      <point x="639" y="1783" type="line"/>
      <point x="639" y="1783" type="line"/>
    </contour>
    <contour>
      <point x="431" y="1885" type="line"/>
      <point x="573" y="1885" type="line" smooth="yes"/>
      <point x="578" y="1885"/>
      <point x="580" y="1892"/>
      <point x="580" y="1900" type="curve" smooth="yes"/>
      <point x="580" y="2202" type="line" smooth="yes"/>
      <point x="580" y="2209"/>
      <point x="578" y="2216"/>
      <point x="573" y="2216" type="curve" smooth="yes"/>
      <point x="431" y="2216" type="line" smooth="yes"/>
      <point x="428" y="2216"/>
      <point x="424" y="2208"/>
      <point x="424" y="2202" type="curve" smooth="yes"/>
      <point x="424" y="1900" type="line" smooth="yes"/>
      <point x="424" y="1892"/>
      <point x="428" y="1885"/>
      <point x="431" y="1885" type="curve"/>
    </contour>
    <contour>
      <point x="438" y="1912" type="line"/>
      <point x="438" y="2187" type="line"/>
      <point x="568" y="2187" type="line"/>
      <point x="568" y="1912" type="line"/>
      <point x="438" y="1912" type="line"/>
    </contour>
    <contour>
      <point x="858" y="1479" type="line"/>
      <point x="1000" y="1479" type="line"/>
      <point x="1000" y="1783" type="line"/>
      <point x="858" y="1783" type="line"/>
      <point x="858" y="1783" type="line"/>
    </contour>
    <contour>
      <point x="639" y="1900" type="line"/>
      <point x="782" y="1900" type="line"/>
      <point x="782" y="2202" type="line"/>
      <point x="639" y="2202" type="line"/>
      <point x="639" y="2202" type="line"/>
    </contour>
    <contour>
      <point x="858" y="1900" type="line"/>
      <point x="1000" y="1900" type="line"/>
      <point x="1000" y="2202" type="line"/>
      <point x="1000" y="2202" type="line"/>
      <point x="858" y="2202" type="line"/>
    </contour>
  </outline>
</glyph>
<glyph name="uniE0C8" format="2">
  <advance width="1000"/>
  <unicode hex="E0C8"/>
  <note>
uniE0C8
</note>
  <outline>
    <contour>
      <point x="3" y="-479" type="line"/>
      <point x="41" y="-479"/>
      <point x="52" y="-480"/>
      <point x="85" y="-457" type="curve" smooth="yes"/>
      <point x="92" y="-452"/>
      <point x="100" y="-445"/>
      <point x="108" y="-440" type="curve" smooth="yes"/>
      <point x="126" y="-433"/>
      <point x="141" y="-445"/>
      <point x="165" y="-428" type="curve" smooth="yes"/>
      <point x="197" y="-405"/>
      <point x="183" y="-403"/>
      <point x="223" y="-403" type="curve" smooth="yes"/>
      <point x="225" y="-403"/>
      <point x="233" y="-397"/>
      <point x="235" y="-396" type="curve" smooth="yes"/>
      <point x="248" y="-388"/>
      <point x="268" y="-388"/>
      <point x="282" y="-387" type="curve" smooth="yes"/>
      <point x="290" y="-386"/>
      <point x="292" y="-373"/>
      <point x="292" y="-363" type="curve" smooth="yes"/>
      <point x="292" y="-325"/>
      <point x="259" y="-345"/>
      <point x="240" y="-337" type="curve"/>
      <point x="232" y="-328"/>
      <point x="226" y="-315"/>
      <point x="216" y="-308" type="curve" smooth="yes"/>
      <point x="199" y="-299"/>
      <point x="188" y="-288"/>
      <point x="170" y="-284" type="curve" smooth="yes"/>
      <point x="168" y="-284"/>
      <point x="165" y="-281"/>
      <point x="163" y="-278" type="curve"/>
      <point x="157" y="-257"/>
      <point x="120" y="-275"/>
      <point x="120" y="-251" type="curve" smooth="yes"/>
      <point x="120" y="-242"/>
      <point x="133" y="-234"/>
      <point x="138" y="-232" type="curve" smooth="yes"/>
      <point x="148" y="-228"/>
      <point x="158" y="-224"/>
      <point x="170" y="-224" type="curve" smooth="yes"/>
      <point x="183" y="-224"/>
      <point x="193" y="-208"/>
      <point x="206" y="-206" type="curve" smooth="yes"/>
      <point x="217" y="-204"/>
      <point x="241" y="-199"/>
      <point x="251" y="-192" type="curve" smooth="yes"/>
      <point x="258" y="-186"/>
      <point x="262" y="-176"/>
      <point x="270" y="-174" type="curve"/>
      <point x="275" y="-175"/>
      <point x="282" y="-176"/>
      <point x="288" y="-176" type="curve" smooth="yes"/>
      <point x="302" y="-176"/>
      <point x="309" y="-173"/>
      <point x="309" y="-154" type="curve" smooth="yes"/>
      <point x="309" y="-143"/>
      <point x="306" y="-133"/>
      <point x="302" y="-122" type="curve"/>
      <point x="313" y="-104"/>
      <point x="443" y="-105"/>
      <point x="467" y="-96" type="curve" smooth="yes"/>
      <point x="478" y="-92"/>
      <point x="494" y="-88"/>
      <point x="506" y="-88" type="curve" smooth="yes"/>
      <point x="519" y="-88"/>
      <point x="533" y="-83"/>
      <point x="533" y="-63" type="curve" smooth="yes"/>
      <point x="533" y="-30"/>
      <point x="515" y="-42"/>
      <point x="502" y="-29" type="curve"/>
      <point x="490" y="-24"/>
      <point x="484" y="-27"/>
      <point x="473" y="-27" type="curve" smooth="yes"/>
      <point x="472" y="-27"/>
      <point x="469" y="-25"/>
      <point x="468" y="-25" type="curve"/>
      <point x="462" y="-18"/>
      <point x="448" y="-5"/>
      <point x="440" y="-5" type="curve" smooth="yes"/>
      <point x="432" y="-5"/>
      <point x="423" y="-12"/>
      <point x="415" y="-12" type="curve" smooth="yes"/>
      <point x="412" y="-12"/>
      <point x="409" y="-10"/>
      <point x="407" y="-8" type="curve"/>
      <point x="399" y="5"/>
      <point x="386" y="8"/>
      <point x="375" y="8" type="curve" smooth="yes"/>
      <point x="370" y="8"/>
      <point x="367" y="4"/>
      <point x="362" y="2" type="curve"/>
      <point x="359" y="3"/>
      <point x="358" y="7"/>
      <point x="356" y="9" type="curve" smooth="yes"/>
      <point x="343" y="26"/>
      <point x="317" y="11"/>
      <point x="302" y="23" type="curve" smooth="yes"/>
      <point x="266" y="56"/>
      <point x="268" y="43"/>
      <point x="228" y="43" type="curve" smooth="yes"/>
      <point x="221" y="43"/>
      <point x="182" y="50"/>
      <point x="185" y="65" type="curve" smooth="yes"/>
      <point x="187" y="74" type="line"/>
      <point x="198" y="84"/>
      <point x="241" y="82"/>
      <point x="256" y="88" type="curve" smooth="yes"/>
      <point x="264" y="91"/>
      <point x="272" y="96"/>
      <point x="278" y="104" type="curve" smooth="yes"/>
      <point x="294" y="123"/>
      <point x="312" y="125"/>
      <point x="331" y="135" type="curve" smooth="yes"/>
      <point x="334" y="136"/>
      <point x="342" y="141"/>
      <point x="346" y="141" type="curve"/>
      <point x="350" y="137"/>
      <point x="360" y="131"/>
      <point x="365" y="131" type="curve" smooth="yes"/>
      <point x="368" y="131"/>
      <point x="372" y="133"/>
      <point x="374" y="136" type="curve" smooth="yes"/>
      <point x="383" y="144"/>
      <point x="390" y="140"/>
      <point x="399" y="144" type="curve"/>
      <point x="418" y="144"/>
      <point x="446" y="157"/>
      <point x="446" y="186" type="curve" smooth="yes"/>
      <point x="446" y="201"/>
      <point x="397" y="222"/>
      <point x="385" y="222" type="curve" smooth="yes"/>
      <point x="378" y="222"/>
      <point x="372" y="218"/>
      <point x="366" y="218" type="curve" smooth="yes"/>
      <point x="352" y="218"/>
      <point x="340" y="226"/>
      <point x="326" y="226" type="curve" smooth="yes"/>
      <point x="312" y="226"/>
      <point x="298" y="231"/>
      <point x="283" y="231" type="curve" smooth="yes"/>
      <point x="271" y="231"/>
      <point x="200" y="275"/>
      <point x="200" y="291" type="curve" smooth="yes"/>
      <point x="200" y="315"/>
      <point x="245" y="361"/>
      <point x="262" y="361" type="curve" smooth="yes"/>
      <point x="271" y="361"/>
      <point x="278" y="367"/>
      <point x="283" y="375" type="curve" smooth="yes"/>
      <point x="286" y="377"/>
      <point x="292" y="386"/>
      <point x="296" y="388" type="curve" smooth="yes"/>
      <point x="344" y="402"/>
      <point x="392" y="408"/>
      <point x="440" y="417" type="curve" smooth="yes"/>
      <point x="463" y="423"/>
      <point x="502" y="441"/>
      <point x="517" y="441" type="curve" smooth="yes"/>
      <point x="523" y="441"/>
      <point x="530" y="438"/>
      <point x="537" y="438" type="curve" smooth="yes"/>
      <point x="557" y="438"/>
      <point x="579" y="463"/>
      <point x="600" y="463" type="curve" smooth="yes"/>
      <point x="608" y="463"/>
      <point x="609" y="471"/>
      <point x="616" y="475" type="curve"/>
      <point x="624" y="472"/>
      <point x="632" y="464"/>
      <point x="642" y="464" type="curve" smooth="yes"/>
      <point x="655" y="464"/>
      <point x="714" y="474"/>
      <point x="723" y="483" type="curve" smooth="yes"/>
      <point x="727" y="485"/>
      <point x="730" y="486"/>
      <point x="733" y="486" type="curve" smooth="yes"/>
      <point x="742" y="486"/>
      <point x="749" y="484"/>
      <point x="758" y="483" type="curve"/>
      <point x="760" y="484"/>
      <point x="763" y="485"/>
      <point x="766" y="485" type="curve" smooth="yes"/>
      <point x="771" y="485"/>
      <point x="777" y="482"/>
      <point x="782" y="482" type="curve" smooth="yes"/>
      <point x="805" y="482"/>
      <point x="847" y="499"/>
      <point x="872" y="505" type="curve" smooth="yes"/>
      <point x="888" y="508"/>
      <point x="903" y="513"/>
      <point x="920" y="513" type="curve" smooth="yes"/>
      <point x="936" y="513"/>
      <point x="951" y="522"/>
      <point x="970" y="522" type="curve" smooth="yes"/>
      <point x="991" y="522"/>
      <point x="1000" y="527"/>
      <point x="1000" y="556" type="curve" smooth="yes"/>
      <point x="1000" y="596"/>
      <point x="940" y="583"/>
      <point x="921" y="583" type="curve"/>
      <point x="921" y="583" type="line"/>
      <point x="894" y="583"/>
      <point x="872" y="599"/>
      <point x="847" y="599" type="curve" smooth="yes"/>
      <point x="842" y="599"/>
      <point x="819" y="590"/>
      <point x="812" y="588" type="curve"/>
      <point x="796" y="592"/>
      <point x="782" y="604"/>
      <point x="764" y="604" type="curve" smooth="yes"/>
      <point x="752" y="604"/>
      <point x="738" y="602"/>
      <point x="726" y="600" type="curve" smooth="yes"/>
      <point x="718" y="600"/>
      <point x="711" y="594"/>
      <point x="703" y="594" type="curve" smooth="yes"/>
      <point x="701" y="594"/>
      <point x="698" y="596"/>
      <point x="697" y="598" type="curve" smooth="yes"/>
      <point x="676" y="624"/>
      <point x="662" y="630"/>
      <point x="633" y="630" type="curve" smooth="yes"/>
      <point x="620" y="630"/>
      <point x="624" y="651"/>
      <point x="586" y="651" type="curve" smooth="yes"/>
      <point x="568" y="651"/>
      <point x="552" y="666"/>
      <point x="533" y="666" type="curve" smooth="yes"/>
      <point x="526" y="666"/>
      <point x="518" y="659"/>
      <point x="510" y="659" type="curve" smooth="yes"/>
      <point x="506" y="659"/>
      <point x="502" y="663"/>
      <point x="498" y="667" type="curve" smooth="yes"/>
      <point x="488" y="679"/>
      <point x="462" y="674"/>
      <point x="450" y="674" type="curve" smooth="yes"/>
      <point x="447" y="674"/>
      <point x="442" y="674"/>
      <point x="439" y="675" type="curve"/>
      <point x="428" y="687"/>
      <point x="400" y="682"/>
      <point x="385" y="693" type="curve" smooth="yes"/>
      <point x="379" y="697"/>
      <point x="376" y="706"/>
      <point x="369" y="706" type="curve" smooth="yes"/>
      <point x="362" y="706"/>
      <point x="356" y="701"/>
      <point x="349" y="701" type="curve" smooth="yes"/>
      <point x="344" y="701"/>
      <point x="338" y="706"/>
      <point x="332" y="706" type="curve" smooth="yes"/>
      <point x="327" y="706"/>
      <point x="320" y="705"/>
      <point x="314" y="705" type="curve" smooth="yes"/>
      <point x="285" y="705"/>
      <point x="256" y="708"/>
      <point x="228" y="708" type="curve" smooth="yes"/>
      <point x="218" y="708"/>
      <point x="218" y="714"/>
      <point x="214" y="725" type="curve"/>
      <point x="217" y="730"/>
      <point x="230" y="733"/>
      <point x="234" y="734" type="curve" smooth="yes"/>
      <point x="280" y="746"/>
      <point x="318" y="767"/>
      <point x="361" y="791" type="curve" smooth="yes"/>
      <point x="372" y="797"/>
      <point x="383" y="820"/>
      <point x="398" y="817" type="curve" smooth="yes"/>
      <point x="402" y="816"/>
      <point x="405" y="816"/>
      <point x="409" y="816" type="curve" smooth="yes"/>
      <point x="420" y="816"/>
      <point x="431" y="829"/>
      <point x="440" y="829" type="curve" smooth="yes"/>
      <point x="447" y="829"/>
      <point x="458" y="829"/>
      <point x="464" y="832" type="curve" smooth="yes"/>
      <point x="469" y="833"/>
      <point x="473" y="839"/>
      <point x="473" y="848" type="curve" smooth="yes"/>
      <point x="473" y="878"/>
      <point x="456" y="884"/>
      <point x="438" y="887" type="curve" smooth="yes"/>
      <point x="419" y="888"/>
      <point x="406" y="903"/>
      <point x="388" y="906" type="curve" smooth="yes"/>
      <point x="381" y="907"/>
      <point x="372" y="903"/>
      <point x="365" y="903" type="curve" smooth="yes"/>
      <point x="358" y="903"/>
      <point x="321" y="912"/>
      <point x="313" y="915" type="curve" smooth="yes"/>
      <point x="308" y="918"/>
      <point x="277" y="939"/>
      <point x="272" y="938" type="curve" smooth="yes"/>
      <point x="268" y="937"/>
      <point x="266" y="934"/>
      <point x="262" y="934" type="curve" smooth="yes"/>
      <point x="251" y="934"/>
      <point x="239" y="939"/>
      <point x="228" y="940" type="curve"/>
      <point x="223" y="947" type="line"/>
      <point x="232" y="964"/>
      <point x="267" y="957"/>
      <point x="279" y="957" type="curve" smooth="yes"/>
      <point x="299" y="957"/>
      <point x="317" y="976"/>
      <point x="338" y="979" type="curve" smooth="yes"/>
      <point x="347" y="980"/>
      <point x="372" y="989"/>
      <point x="372" y="1005" type="curve" smooth="yes"/>
      <point x="372" y="1032"/>
      <point x="325" y="1041"/>
      <point x="310" y="1041" type="curve" smooth="yes"/>
      <point x="294" y="1041"/>
      <point x="284" y="1052"/>
      <point x="269" y="1052" type="curve" smooth="yes"/>
      <point x="201" y="1052"/>
      <point x="213" y="1069"/>
      <point x="196" y="1131" type="curve" smooth="yes"/>
      <point x="192" y="1144"/>
      <point x="179" y="1178"/>
      <point x="179" y="1188" type="curve" smooth="yes"/>
      <point x="179" y="1235"/>
      <point x="207" y="1263"/>
      <point x="232" y="1290" type="curve" smooth="yes"/>
      <point x="243" y="1304"/>
      <point x="262" y="1299"/>
      <point x="272" y="1312" type="curve" smooth="yes"/>
      <point x="275" y="1315"/>
      <point x="316" y="1329"/>
      <point x="323" y="1331" type="curve"/>
      <point x="329" y="1329"/>
      <point x="336" y="1326"/>
      <point x="342" y="1326" type="curve" smooth="yes"/>
      <point x="354" y="1326"/>
      <point x="357" y="1345"/>
      <point x="371" y="1345" type="curve" smooth="yes"/>
      <point x="382" y="1345"/>
      <point x="382" y="1335"/>
      <point x="396" y="1335" type="curve" smooth="yes"/>
      <point x="405" y="1335"/>
      <point x="440" y="1356"/>
      <point x="451" y="1364" type="curve" smooth="yes"/>
      <point x="479" y="1379"/>
      <point x="512" y="1378"/>
      <point x="540" y="1391" type="curve" smooth="yes"/>
      <point x="548" y="1395"/>
      <point x="552" y="1403"/>
      <point x="552" y="1413" type="curve" smooth="yes"/>
      <point x="552" y="1461"/>
      <point x="521" y="1453"/>
      <point x="498" y="1453" type="curve" smooth="yes"/>
      <point x="481" y="1453"/>
      <point x="471" y="1484"/>
      <point x="427" y="1484" type="curve" smooth="yes"/>
      <point x="420" y="1484"/>
      <point x="416" y="1479"/>
      <point x="410" y="1478" type="curve"/>
      <point x="404" y="1484"/>
      <point x="407" y="1489"/>
      <point x="398" y="1493" type="curve" smooth="yes"/>
      <point x="387" y="1496"/>
      <point x="368" y="1501"/>
      <point x="359" y="1509" type="curve" smooth="yes"/>
      <point x="357" y="1511"/>
      <point x="354" y="1514"/>
      <point x="351" y="1514" type="curve" smooth="yes"/>
      <point x="346" y="1514"/>
      <point x="342" y="1506"/>
      <point x="337" y="1504" type="curve"/>
      <point x="329" y="1511"/>
      <point x="298" y="1567"/>
      <point x="282" y="1551" type="curve"/>
      <point x="252" y="1551"/>
      <point x="204" y="1590"/>
      <point x="172" y="1590" type="curve" smooth="yes"/>
      <point x="162" y="1590"/>
      <point x="146" y="1601"/>
      <point x="146" y="1615" type="curve" smooth="yes"/>
      <point x="146" y="1654"/>
      <point x="196" y="1670"/>
      <point x="218" y="1670" type="curve" smooth="yes"/>
      <point x="234" y="1670"/>
      <point x="286" y="1683"/>
      <point x="302" y="1686" type="curve" smooth="yes"/>
      <point x="316" y="1690"/>
      <point x="335" y="1713"/>
      <point x="347" y="1713" type="curve"/>
      <point x="353" y="1710" type="line"/>
      <point x="362" y="1700"/>
      <point x="375" y="1696"/>
      <point x="388" y="1696" type="curve" smooth="yes"/>
      <point x="395" y="1696"/>
      <point x="405" y="1698"/>
      <point x="408" y="1708" type="curve"/>
      <point x="411" y="1709" type="line"/>
      <point x="415" y="1706"/>
      <point x="422" y="1697"/>
      <point x="428" y="1697" type="curve" smooth="yes"/>
      <point x="431" y="1697"/>
      <point x="434" y="1700"/>
      <point x="437" y="1702" type="curve" smooth="yes"/>
      <point x="449" y="1715"/>
      <point x="468" y="1718"/>
      <point x="484" y="1722" type="curve" smooth="yes"/>
      <point x="493" y="1725"/>
      <point x="499" y="1736"/>
      <point x="508" y="1739" type="curve"/>
      <point x="518" y="1735"/>
      <point x="534" y="1735"/>
      <point x="545" y="1735" type="curve" smooth="yes"/>
      <point x="590" y="1735"/>
      <point x="595" y="1755"/>
      <point x="639" y="1755" type="curve" smooth="yes"/>
      <point x="662" y="1755"/>
      <point x="692" y="1761"/>
      <point x="692" y="1797" type="curve" smooth="yes"/>
      <point x="692" y="1806"/>
      <point x="689" y="1830"/>
      <point x="680" y="1830" type="curve" smooth="yes"/>
      <point x="676" y="1830"/>
      <point x="671" y="1825"/>
      <point x="667" y="1825" type="curve" smooth="yes"/>
      <point x="661" y="1825"/>
      <point x="655" y="1831"/>
      <point x="651" y="1836" type="curve" smooth="yes"/>
      <point x="629" y="1858"/>
      <point x="613" y="1850"/>
      <point x="588" y="1855" type="curve"/>
      <point x="587" y="1854"/>
      <point x="584" y="1853"/>
      <point x="582" y="1852" type="curve"/>
      <point x="575" y="1852" type="line" smooth="yes"/>
      <point x="573" y="1852"/>
      <point x="566" y="1858"/>
      <point x="564" y="1859" type="curve" smooth="yes"/>
      <point x="518" y="1899"/>
      <point x="510" y="1876"/>
      <point x="467" y="1891" type="curve" smooth="yes"/>
      <point x="454" y="1894"/>
      <point x="455" y="1912"/>
      <point x="431" y="1912" type="curve" smooth="yes"/>
      <point x="422" y="1912"/>
      <point x="416" y="1907"/>
      <point x="408" y="1903" type="curve"/>
      <point x="398" y="1912"/>
      <point x="395" y="1934"/>
      <point x="384" y="1934" type="curve" smooth="yes"/>
      <point x="362" y="1934"/>
      <point x="349" y="1921"/>
      <point x="330" y="1913" type="curve"/>
      <point x="328" y="1914"/>
      <point x="325" y="1917"/>
      <point x="323" y="1919" type="curve" smooth="yes"/>
      <point x="310" y="1941"/>
      <point x="275" y="1951"/>
      <point x="255" y="1951" type="curve" smooth="yes"/>
      <point x="243" y="1951"/>
      <point x="236" y="1942"/>
      <point x="225" y="1941" type="curve"/>
      <point x="205" y="1946"/>
      <point x="113" y="1980"/>
      <point x="106" y="1999" type="curve"/>
      <point x="109" y="2002" type="line"/>
      <point x="122" y="2010"/>
      <point x="132" y="2004"/>
      <point x="146" y="2004" type="curve" smooth="yes"/>
      <point x="158" y="2004"/>
      <point x="213" y="2011"/>
      <point x="220" y="2017" type="curve" smooth="yes"/>
      <point x="230" y="2026"/>
      <point x="254" y="2035"/>
      <point x="267" y="2035" type="curve" smooth="yes"/>
      <point x="272" y="2035"/>
      <point x="278" y="2032"/>
      <point x="284" y="2032" type="curve" smooth="yes"/>
      <point x="296" y="2032"/>
      <point x="308" y="2040"/>
      <point x="311" y="2054" type="curve"/>
      <point x="325" y="2054"/>
      <point x="345" y="2054"/>
      <point x="345" y="2080" type="curve" smooth="yes"/>
      <point x="345" y="2108"/>
      <point x="326" y="2098"/>
      <point x="316" y="2104" type="curve"/>
      <point x="313" y="2107"/>
      <point x="248" y="2152"/>
      <point x="245" y="2152" type="curve" smooth="yes"/>
      <point x="240" y="2152"/>
      <point x="237" y="2146"/>
      <point x="232" y="2144" type="curve"/>
      <point x="219" y="2150"/>
      <point x="178" y="2168"/>
      <point x="166" y="2168" type="curve" smooth="yes"/>
      <point x="162" y="2168"/>
      <point x="119" y="2202"/>
      <point x="112" y="2208" type="curve" smooth="yes"/>
      <point x="94" y="2224"/>
      <point x="63" y="2217"/>
      <point x="42" y="2217" type="curve" smooth="yes"/>
      <point x="38" y="2217"/>
      <point x="34" y="2217"/>
      <point x="30" y="2218" type="curve"/>
      <point x="24" y="2223"/>
      <point x="18" y="2226"/>
      <point x="11" y="2226" type="curve" smooth="yes"/>
      <point x="8" y="2226"/>
      <point x="5" y="2226"/>
      <point x="2" y="2225" type="curve"/>
      <point x="0" y="2219" type="line"/>
      <point x="1" y="-473" type="line"/>
    </contour>
  </outline>
</glyph>
<glyph name="uniE0CA" format="2">
  <advance width="1000"/>
  <unicode hex="E0CA"/>
  <note>
uniE0CA
</note>
  <outline>
    <contour>
      <point x="997" y="-479" type="line"/>
      <point x="999" y="-473" type="line"/>
      <point x="1000" y="2219" type="line"/>
      <point x="998" y="2225" type="line"/>
      <point x="995" y="2226"/>
      <point x="992" y="2226"/>
      <point x="989" y="2226" type="curve" smooth="yes"/>
      <point x="978" y="2226"/>
      <point x="968" y="2218"/>
      <point x="957" y="2218" type="curve" smooth="yes"/>
      <point x="945" y="2218"/>
      <point x="933" y="2219"/>
      <point x="922" y="2219" type="curve" smooth="yes"/>
      <point x="896" y="2219"/>
      <point x="868" y="2198"/>
      <point x="848" y="2176" type="curve" smooth="yes"/>
      <point x="840" y="2168"/>
      <point x="782" y="2151"/>
      <point x="768" y="2144" type="curve"/>
      <point x="764" y="2148"/>
      <point x="759" y="2151"/>
      <point x="755" y="2151" type="curve" smooth="yes"/>
      <point x="748" y="2151"/>
      <point x="688" y="2108"/>
      <point x="684" y="2104" type="curve"/>
      <point x="672" y="2104"/>
      <point x="655" y="2103"/>
      <point x="655" y="2081" type="curve" smooth="yes"/>
      <point x="655" y="2053"/>
      <point x="676" y="2054"/>
      <point x="689" y="2054" type="curve"/>
      <point x="696" y="2040"/>
      <point x="702" y="2033"/>
      <point x="716" y="2033" type="curve" smooth="yes"/>
      <point x="722" y="2033"/>
      <point x="728" y="2036"/>
      <point x="733" y="2036" type="curve" smooth="yes"/>
      <point x="745" y="2036"/>
      <point x="770" y="2028"/>
      <point x="780" y="2018" type="curve" smooth="yes"/>
      <point x="796" y="2003"/>
      <point x="852" y="2007"/>
      <point x="874" y="2007" type="curve" smooth="yes"/>
      <point x="882" y="2007"/>
      <point x="888" y="2006"/>
      <point x="894" y="2000" type="curve"/>
      <point x="888" y="1986"/>
      <point x="792" y="1940"/>
      <point x="775" y="1940" type="curve" smooth="yes"/>
      <point x="767" y="1940"/>
      <point x="756" y="1952"/>
      <point x="745" y="1952" type="curve" smooth="yes"/>
      <point x="725" y="1952"/>
      <point x="690" y="1940"/>
      <point x="677" y="1920" type="curve" smooth="yes"/>
      <point x="675" y="1919"/>
      <point x="672" y="1915"/>
      <point x="670" y="1914" type="curve"/>
      <point x="651" y="1922"/>
      <point x="638" y="1934"/>
      <point x="616" y="1934" type="curve" smooth="yes"/>
      <point x="605" y="1934"/>
      <point x="601" y="1913"/>
      <point x="592" y="1903" type="curve"/>
      <point x="583" y="1909"/>
      <point x="576" y="1913"/>
      <point x="567" y="1913" type="curve" smooth="yes"/>
      <point x="547" y="1913"/>
      <point x="545" y="1897"/>
      <point x="533" y="1892" type="curve" smooth="yes"/>
      <point x="489" y="1875"/>
      <point x="485" y="1898"/>
      <point x="436" y="1859" type="curve" smooth="yes"/>
      <point x="430" y="1854"/>
      <point x="424" y="1852"/>
      <point x="418" y="1854" type="curve" smooth="yes"/>
      <point x="416" y="1854"/>
      <point x="413" y="1854"/>
      <point x="412" y="1855" type="curve"/>
      <point x="382" y="1848"/>
      <point x="377" y="1860"/>
      <point x="349" y="1835" type="curve" smooth="yes"/>
      <point x="345" y="1832"/>
      <point x="338" y="1826"/>
      <point x="333" y="1826" type="curve" smooth="yes"/>
      <point x="328" y="1826"/>
      <point x="324" y="1830"/>
      <point x="320" y="1830" type="curve" smooth="yes"/>
      <point x="312" y="1830"/>
      <point x="308" y="1808"/>
      <point x="308" y="1799" type="curve" smooth="yes"/>
      <point x="308" y="1752"/>
      <point x="355" y="1757"/>
      <point x="378" y="1757" type="curve" smooth="yes"/>
      <point x="398" y="1757"/>
      <point x="419" y="1736"/>
      <point x="455" y="1736" type="curve" smooth="yes"/>
      <point x="466" y="1736"/>
      <point x="482" y="1736"/>
      <point x="492" y="1741" type="curve"/>
      <point x="501" y="1736"/>
      <point x="507" y="1725"/>
      <point x="516" y="1722" type="curve" smooth="yes"/>
      <point x="528" y="1719"/>
      <point x="553" y="1714"/>
      <point x="563" y="1703" type="curve" smooth="yes"/>
      <point x="566" y="1700"/>
      <point x="569" y="1697"/>
      <point x="572" y="1697" type="curve" smooth="yes"/>
      <point x="576" y="1697"/>
      <point x="585" y="1708"/>
      <point x="589" y="1710" type="curve"/>
      <point x="598" y="1698"/>
      <point x="598" y="1696"/>
      <point x="612" y="1696" type="curve" smooth="yes"/>
      <point x="625" y="1696"/>
      <point x="638" y="1699"/>
      <point x="647" y="1711" type="curve"/>
      <point x="648" y="1713"/>
      <point x="652" y="1714"/>
      <point x="653" y="1714" type="curve" smooth="yes"/>
      <point x="669" y="1714"/>
      <point x="682" y="1692"/>
      <point x="698" y="1686" type="curve" smooth="yes"/>
      <point x="711" y="1682"/>
      <point x="756" y="1680"/>
      <point x="765" y="1673" type="curve" smooth="yes"/>
      <point x="784" y="1657"/>
      <point x="854" y="1671"/>
      <point x="854" y="1617" type="curve" smooth="yes"/>
      <point x="854" y="1600"/>
      <point x="838" y="1590"/>
      <point x="828" y="1590" type="curve" smooth="yes"/>
      <point x="796" y="1590"/>
      <point x="747" y="1553"/>
      <point x="718" y="1553" type="curve"/>
      <point x="717" y="1554"/>
      <point x="715" y="1554"/>
      <point x="714" y="1554" type="curve" smooth="yes"/>
      <point x="689" y="1554"/>
      <point x="663" y="1505"/>
      <point x="663" y="1505" type="curve"/>
      <point x="658" y="1508"/>
      <point x="655" y="1513"/>
      <point x="649" y="1513" type="curve" smooth="yes"/>
      <point x="648" y="1513"/>
      <point x="610" y="1496"/>
      <point x="603" y="1493" type="curve" smooth="yes"/>
      <point x="595" y="1490"/>
      <point x="596" y="1486"/>
      <point x="590" y="1479" type="curve"/>
      <point x="585" y="1481"/>
      <point x="579" y="1483"/>
      <point x="574" y="1483" type="curve" smooth="yes"/>
      <point x="537" y="1483"/>
      <point x="518" y="1454"/>
      <point x="503" y="1454" type="curve" smooth="yes"/>
      <point x="497" y="1454"/>
      <point x="491" y="1454"/>
      <point x="484" y="1454" type="curve" smooth="yes"/>
      <point x="465" y="1454"/>
      <point x="448" y="1445"/>
      <point x="448" y="1413" type="curve" smooth="yes"/>
      <point x="448" y="1382"/>
      <point x="529" y="1377"/>
      <point x="549" y="1363" type="curve"/>
      <point x="565" y="1362"/>
      <point x="587" y="1334"/>
      <point x="604" y="1334" type="curve" smooth="yes"/>
      <point x="618" y="1334"/>
      <point x="618" y="1345"/>
      <point x="630" y="1345" type="curve" smooth="yes"/>
      <point x="643" y="1345"/>
      <point x="646" y="1326"/>
      <point x="658" y="1326" type="curve" smooth="yes"/>
      <point x="664" y="1326"/>
      <point x="671" y="1329"/>
      <point x="677" y="1331" type="curve"/>
      <point x="728" y="1317"/>
      <point x="821" y="1283"/>
      <point x="821" y="1188" type="curve" smooth="yes"/>
      <point x="821" y="1180"/>
      <point x="808" y="1144"/>
      <point x="804" y="1133" type="curve" smooth="yes"/>
      <point x="783" y="1059"/>
      <point x="792" y="1053"/>
      <point x="731" y="1053" type="curve" smooth="yes"/>
      <point x="717" y="1053"/>
      <point x="705" y="1043"/>
      <point x="690" y="1043" type="curve" smooth="yes"/>
      <point x="677" y="1043"/>
      <point x="628" y="1032"/>
      <point x="628" y="1005" type="curve" smooth="yes"/>
      <point x="628" y="983"/>
      <point x="687" y="973"/>
      <point x="700" y="963" type="curve" smooth="yes"/>
      <point x="717" y="949"/>
      <point x="758" y="970"/>
      <point x="777" y="948" type="curve"/>
      <point x="775" y="945"/>
      <point x="773" y="942"/>
      <point x="772" y="940" type="curve"/>
      <point x="757" y="937"/>
      <point x="743" y="937"/>
      <point x="728" y="937" type="curve" smooth="yes"/>
      <point x="720" y="937"/>
      <point x="694" y="919"/>
      <point x="687" y="915" type="curve" smooth="yes"/>
      <point x="664" y="901"/>
      <point x="635" y="906"/>
      <point x="612" y="906" type="curve" smooth="yes"/>
      <point x="596" y="906"/>
      <point x="580" y="890"/>
      <point x="562" y="885" type="curve" smooth="yes"/>
      <point x="545" y="883"/>
      <point x="527" y="880"/>
      <point x="527" y="848" type="curve" smooth="yes"/>
      <point x="527" y="826"/>
      <point x="551" y="831"/>
      <point x="560" y="829" type="curve" smooth="yes"/>
      <point x="581" y="825"/>
      <point x="572" y="818"/>
      <point x="602" y="818" type="curve" smooth="yes"/>
      <point x="618" y="818"/>
      <point x="628" y="801"/>
      <point x="639" y="791" type="curve" smooth="yes"/>
      <point x="667" y="771"/>
      <point x="734" y="742"/>
      <point x="766" y="734" type="curve" smooth="yes"/>
      <point x="770" y="733"/>
      <point x="783" y="730"/>
      <point x="786" y="723" type="curve"/>
      <point x="778" y="700"/>
      <point x="773" y="711"/>
      <point x="758" y="711" type="curve" smooth="yes"/>
      <point x="741" y="711"/>
      <point x="676" y="697"/>
      <point x="668" y="707" type="curve"/>
      <point x="662" y="706"/>
      <point x="656" y="700"/>
      <point x="651" y="700" type="curve" smooth="yes"/>
      <point x="644" y="700"/>
      <point x="638" y="707"/>
      <point x="631" y="707" type="curve" smooth="yes"/>
      <point x="622" y="707"/>
      <point x="621" y="696"/>
      <point x="615" y="692" type="curve" smooth="yes"/>
      <point x="598" y="682"/>
      <point x="578" y="690"/>
      <point x="561" y="676" type="curve" smooth="yes"/>
      <point x="558" y="674"/>
      <point x="553" y="672"/>
      <point x="550" y="672" type="curve" smooth="yes"/>
      <point x="541" y="672"/>
      <point x="532" y="674"/>
      <point x="522" y="674" type="curve" smooth="yes"/>
      <point x="499" y="674"/>
      <point x="502" y="659"/>
      <point x="490" y="659" type="curve" smooth="yes"/>
      <point x="481" y="659"/>
      <point x="472" y="665"/>
      <point x="463" y="665" type="curve" smooth="yes"/>
      <point x="446" y="665"/>
      <point x="429" y="654"/>
      <point x="410" y="654" type="curve" smooth="yes"/>
      <point x="381" y="654"/>
      <point x="383" y="631"/>
      <point x="356" y="631" type="curve" smooth="yes"/>
      <point x="323" y="631"/>
      <point x="305" y="594"/>
      <point x="297" y="594" type="curve" smooth="yes"/>
      <point x="289" y="594"/>
      <point x="282" y="602"/>
      <point x="274" y="602" type="curve" smooth="yes"/>
      <point x="262" y="604"/>
      <point x="248" y="605"/>
      <point x="236" y="605" type="curve" smooth="yes"/>
      <point x="218" y="605"/>
      <point x="204" y="592"/>
      <point x="188" y="589" type="curve"/>
      <point x="176" y="591"/>
      <point x="162" y="600"/>
      <point x="150" y="600" type="curve" smooth="yes"/>
      <point x="134" y="600"/>
      <point x="118" y="590"/>
      <point x="102" y="585" type="curve" smooth="yes"/>
      <point x="83" y="579"/>
      <point x="0" y="602"/>
      <point x="0" y="556" type="curve" smooth="yes"/>
      <point x="0" y="513"/>
      <point x="26" y="523"/>
      <point x="48" y="523" type="curve" smooth="yes"/>
      <point x="58" y="523"/>
      <point x="69" y="512"/>
      <point x="80" y="512" type="curve" smooth="yes"/>
      <point x="122" y="512"/>
      <point x="164" y="494"/>
      <point x="205" y="484" type="curve" smooth="yes"/>
      <point x="209" y="483"/>
      <point x="214" y="482"/>
      <point x="218" y="482" type="curve" smooth="yes"/>
      <point x="227" y="482"/>
      <point x="234" y="483"/>
      <point x="242" y="483" type="curve" smooth="yes"/>
      <point x="251" y="483"/>
      <point x="258" y="486"/>
      <point x="267" y="486" type="curve" smooth="yes"/>
      <point x="270" y="486"/>
      <point x="273" y="485"/>
      <point x="277" y="483" type="curve" smooth="yes"/>
      <point x="286" y="475"/>
      <point x="345" y="464"/>
      <point x="358" y="464" type="curve" smooth="yes"/>
      <point x="368" y="464"/>
      <point x="376" y="473"/>
      <point x="384" y="475" type="curve"/>
      <point x="390" y="472"/>
      <point x="392" y="462"/>
      <point x="400" y="462" type="curve" smooth="yes"/>
      <point x="422" y="462"/>
      <point x="442" y="439"/>
      <point x="463" y="439" type="curve" smooth="yes"/>
      <point x="471" y="439"/>
      <point x="479" y="442"/>
      <point x="488" y="442" type="curve" smooth="yes"/>
      <point x="496" y="442"/>
      <point x="518" y="432"/>
      <point x="525" y="427" type="curve" smooth="yes"/>
      <point x="543" y="418"/>
      <point x="668" y="399"/>
      <point x="705" y="388" type="curve"/>
      <point x="709" y="384"/>
      <point x="713" y="379"/>
      <point x="717" y="375" type="curve" smooth="yes"/>
      <point x="722" y="367"/>
      <point x="730" y="361"/>
      <point x="738" y="361" type="curve" smooth="yes"/>
      <point x="755" y="361"/>
      <point x="800" y="314"/>
      <point x="800" y="292" type="curve" smooth="yes"/>
      <point x="800" y="275"/>
      <point x="728" y="231"/>
      <point x="717" y="231" type="curve" smooth="yes"/>
      <point x="700" y="231"/>
      <point x="683" y="227"/>
      <point x="667" y="227" type="curve" smooth="yes"/>
      <point x="655" y="227"/>
      <point x="645" y="219"/>
      <point x="633" y="219" type="curve" smooth="yes"/>
      <point x="628" y="219"/>
      <point x="622" y="222"/>
      <point x="615" y="222" type="curve" smooth="yes"/>
      <point x="603" y="222"/>
      <point x="554" y="203"/>
      <point x="554" y="187" type="curve" smooth="yes"/>
      <point x="554" y="152"/>
      <point x="583" y="149"/>
      <point x="601" y="146" type="curve" smooth="yes"/>
      <point x="612" y="144"/>
      <point x="626" y="130"/>
      <point x="635" y="130" type="curve" smooth="yes"/>
      <point x="641" y="130"/>
      <point x="649" y="137"/>
      <point x="655" y="143" type="curve"/>
      <point x="655" y="144" type="line"/>
      <point x="672" y="136"/>
      <point x="709" y="119"/>
      <point x="722" y="103" type="curve" smooth="yes"/>
      <point x="728" y="95"/>
      <point x="736" y="91"/>
      <point x="744" y="87" type="curve" smooth="yes"/>
      <point x="767" y="82"/>
      <point x="790" y="83"/>
      <point x="812" y="76" type="curve"/>
      <point x="814" y="72"/>
      <point x="814" y="65"/>
      <point x="816" y="62" type="curve"/>
      <point x="816" y="60"/>
      <point x="800" y="50"/>
      <point x="798" y="48" type="curve" smooth="yes"/>
      <point x="788" y="41"/>
      <point x="749" y="44"/>
      <point x="737" y="44" type="curve" smooth="yes"/>
      <point x="721" y="44"/>
      <point x="712" y="30"/>
      <point x="698" y="25" type="curve" smooth="yes"/>
      <point x="683" y="16"/>
      <point x="655" y="26"/>
      <point x="644" y="9" type="curve" smooth="yes"/>
      <point x="642" y="7"/>
      <point x="641" y="3"/>
      <point x="638" y="1" type="curve"/>
      <point x="634" y="6"/>
      <point x="630" y="8"/>
      <point x="625" y="8" type="curve" smooth="yes"/>
      <point x="600" y="8"/>
      <point x="594" y="-10"/>
      <point x="585" y="-10" type="curve" smooth="yes"/>
      <point x="577" y="-10"/>
      <point x="568" y="-5"/>
      <point x="561" y="-5" type="curve" smooth="yes"/>
      <point x="548" y="-5"/>
      <point x="538" y="-24"/>
      <point x="527" y="-27" type="curve"/>
      <point x="526" y="-27"/>
      <point x="517" y="-25"/>
      <point x="514" y="-25" type="curve" smooth="yes"/>
      <point x="497" y="-25"/>
      <point x="468" y="-34"/>
      <point x="468" y="-62" type="curve" smooth="yes"/>
      <point x="468" y="-75"/>
      <point x="472" y="-83"/>
      <point x="481" y="-86" type="curve" smooth="yes"/>
      <point x="510" y="-93"/>
      <point x="542" y="-100"/>
      <point x="572" y="-100" type="curve" smooth="yes"/>
      <point x="584" y="-100"/>
      <point x="692" y="-112"/>
      <point x="698" y="-123" type="curve"/>
      <point x="698" y="-136"/>
      <point x="691" y="-146"/>
      <point x="691" y="-160" type="curve" smooth="yes"/>
      <point x="691" y="-174"/>
      <point x="706" y="-176"/>
      <point x="712" y="-176" type="curve" smooth="yes"/>
      <point x="718" y="-176"/>
      <point x="724" y="-175"/>
      <point x="730" y="-173" type="curve"/>
      <point x="738" y="-176"/>
      <point x="742" y="-186"/>
      <point x="749" y="-190" type="curve" smooth="yes"/>
      <point x="762" y="-200"/>
      <point x="781" y="-203"/>
      <point x="794" y="-206" type="curve" smooth="yes"/>
      <point x="808" y="-210"/>
      <point x="812" y="-223"/>
      <point x="830" y="-223" type="curve" smooth="yes"/>
      <point x="840" y="-223"/>
      <point x="880" y="-232"/>
      <point x="880" y="-251" type="curve" smooth="yes"/>
      <point x="880" y="-264"/>
      <point x="862" y="-266"/>
      <point x="854" y="-266" type="curve" smooth="yes"/>
      <point x="836" y="-266"/>
      <point x="841" y="-279"/>
      <point x="828" y="-284" type="curve" smooth="yes"/>
      <point x="801" y="-295"/>
      <point x="780" y="-308"/>
      <point x="760" y="-338" type="curve"/>
      <point x="743" y="-344"/>
      <point x="708" y="-325"/>
      <point x="708" y="-363" type="curve" smooth="yes"/>
      <point x="708" y="-372"/>
      <point x="711" y="-384"/>
      <point x="719" y="-385" type="curve" smooth="yes"/>
      <point x="745" y="-392"/>
      <point x="770" y="-401"/>
      <point x="795" y="-401" type="curve" smooth="yes"/>
      <point x="810" y="-401"/>
      <point x="822" y="-417"/>
      <point x="835" y="-429" type="curve" smooth="yes"/>
      <point x="853" y="-444"/>
      <point x="872" y="-434"/>
      <point x="892" y="-441" type="curve" smooth="yes"/>
      <point x="900" y="-445"/>
      <point x="908" y="-451"/>
      <point x="915" y="-456" type="curve" smooth="yes"/>
      <point x="948" y="-480"/>
      <point x="959" y="-479"/>
      <point x="997" y="-479" type="curve"/>
    </contour>
  </outline>
</glyph>
<glyph name="uniE0CD" format="2">
  <advance width="1000"/>
  <unicode hex="E0CD"/>
  <note>
uniE0CD
</note>
  <outline>
    <contour>
      <point x="577" y="290" type="line"/>
      <point x="859" y="290" type="line"/>
      <point x="1000" y="854" type="line"/>
      <point x="859" y="1419" type="line"/>
      <point x="577" y="1419" type="line"/>
      <point x="436" y="854" type="line"/>
    </contour>
    <contour>
      <point x="0" y="-480" type="line"/>
      <point x="288" y="-480" type="line"/>
      <point x="428" y="85" type="line"/>
      <point x="288" y="650" type="line"/>
      <point x="0" y="650" type="line"/>
    </contour>
    <contour>
      <point x="23" y="-425" type="line"/>
      <point x="23" y="596" type="line"/>
      <point x="273" y="596" type="line"/>
      <point x="401" y="85" type="line"/>
      <point x="273" y="-425" type="line"/>
    </contour>
    <contour>
      <point x="590" y="343" type="line"/>
      <point x="462" y="854" type="line"/>
      <point x="590" y="1364" type="line"/>
      <point x="845" y="1364" type="line"/>
      <point x="972" y="854" type="line"/>
      <point x="845" y="343" type="line"/>
    </contour>
    <contour>
      <point x="0" y="1096" type="line"/>
      <point x="288" y="1096" type="line"/>
      <point x="428" y="1661" type="line"/>
      <point x="288" y="2226" type="line"/>
      <point x="0" y="2226" type="line"/>
    </contour>
    <contour>
      <point x="23" y="1150" type="line"/>
      <point x="23" y="2171" type="line"/>
      <point x="273" y="2171" type="line"/>
      <point x="401" y="1661" type="line"/>
      <point x="273" y="1150" type="line"/>
    </contour>
  </outline>
</glyph>
<glyph name="uniE0CE" format="2">
  <advance width="1000"/>
  <unicode hex="E0CE"/>
  <note>
uniE0CE
</note>
  <outline>
    <contour>
      <point x="732" y="-452" type="line"/>
      <point x="792" y="-149" type="line"/>
      <point x="742" y="-146" type="line"/>
      <point x="713" y="-76"/>
      <point x="697" y="71"/>
      <point x="697" y="218" type="curve" smooth="yes"/>
      <point x="697" y="353"/>
      <point x="712" y="501"/>
      <point x="743" y="584" type="curve"/>
      <point x="809" y="579" type="line"/>
      <point x="780" y="490"/>
      <point x="766" y="342"/>
      <point x="766" y="209" type="curve" smooth="yes"/>
      <point x="766" y="58"/>
      <point x="782" y="-93"/>
      <point x="809" y="-149" type="curve"/>
      <point x="813" y="-155"/>
      <point x="818" y="-158"/>
      <point x="822" y="-158" type="curve"/>
      <point x="822" y="-157" type="line"/>
      <point x="842" y="-156"/>
      <point x="862" y="-85"/>
      <point x="872" y="27" type="curve" smooth="yes"/>
      <point x="877" y="84"/>
      <point x="879" y="145"/>
      <point x="879" y="212" type="curve" smooth="yes"/>
      <point x="879" y="234"/>
      <point x="878" y="259"/>
      <point x="878" y="286" type="curve"/>
      <point x="923" y="515" type="line"/>
      <point x="863" y="519" type="line"/>
      <point x="835" y="589"/>
      <point x="818" y="737"/>
      <point x="818" y="883" type="curve" smooth="yes"/>
      <point x="818" y="1019"/>
      <point x="833" y="1166"/>
      <point x="864" y="1249" type="curve"/>
      <point x="922" y="1244" type="line"/>
      <point x="877" y="1464" type="line"/>
      <point x="878" y="1488"/>
      <point x="878" y="1509"/>
      <point x="878" y="1524" type="curve" smooth="yes"/>
      <point x="878" y="1625"/>
      <point x="872" y="1721"/>
      <point x="861" y="1787" type="curve" smooth="yes"/>
      <point x="850" y="1853"/>
      <point x="836" y="1895"/>
      <point x="821" y="1895" type="curve" smooth="yes"/>
      <point x="813" y="1895"/>
      <point x="806" y="1886"/>
      <point x="798" y="1867" type="curve"/>
      <point x="774" y="1777"/>
      <point x="763" y="1642"/>
      <point x="763" y="1517" type="curve" smooth="yes"/>
      <point x="763" y="1502"/>
      <point x="763" y="1486"/>
      <point x="763" y="1471" type="curve" smooth="yes"/>
      <point x="767" y="1336"/>
      <point x="783" y="1208"/>
      <point x="808" y="1164" type="curve"/>
      <point x="740" y="1167" type="line"/>
      <point x="722" y="1212"/>
      <point x="708" y="1288"/>
      <point x="700" y="1376" type="curve" smooth="yes"/>
      <point x="697" y="1423"/>
      <point x="694" y="1477"/>
      <point x="694" y="1531" type="curve" smooth="yes"/>
      <point x="694" y="1622"/>
      <point x="700" y="1709"/>
      <point x="713" y="1789" type="curve" smooth="yes"/>
      <point x="721" y="1831"/>
      <point x="730" y="1868"/>
      <point x="740" y="1897" type="curve"/>
      <point x="788" y="1894" type="line"/>
      <point x="730" y="2177" type="line"/>
      <point x="465" y="863" type="line"/>
    </contour>
    <contour>
      <point x="242" y="-480" type="line"/>
      <point x="655" y="-480" type="line"/>
      <point x="388" y="751" type="line"/>
      <point x="0" y="751" type="line"/>
    </contour>
    <contour>
      <point x="676" y="499" type="curve"/>
      <point x="608" y="503" type="line"/>
      <point x="579" y="573"/>
      <point x="562" y="723"/>
      <point x="562" y="870" type="curve" smooth="yes"/>
      <point x="562" y="1004"/>
      <point x="578" y="1148"/>
      <point x="609" y="1233" type="curve"/>
      <point x="675" y="1228" type="line"/>
      <point x="646" y="1138"/>
      <point x="632" y="990"/>
      <point x="632" y="856" type="curve" smooth="yes"/>
      <point x="632" y="846"/>
      <point x="632" y="833"/>
      <point x="632" y="823" type="curve" smooth="yes"/>
      <point x="635" y="682"/>
      <point x="652" y="547"/>
    </contour>
    <contour>
      <point x="3" y="995" type="line"/>
      <point x="391" y="995" type="line"/>
      <point x="647" y="2226" type="line"/>
      <point x="246" y="2226" type="line"/>
    </contour>
    <contour>
      <point x="942" y="503" type="curve"/>
      <point x="943" y="505" type="line"/>
      <point x="964" y="506"/>
      <point x="982" y="576"/>
      <point x="992" y="689" type="curve" smooth="yes"/>
      <point x="998" y="746"/>
      <point x="1000" y="807"/>
      <point x="1000" y="874" type="curve" smooth="yes"/>
      <point x="1000" y="1007"/>
      <point x="989" y="1129"/>
      <point x="972" y="1195" type="curve" smooth="yes"/>
      <point x="962" y="1228"/>
      <point x="953" y="1244"/>
      <point x="942" y="1244" type="curve" smooth="yes"/>
      <point x="937" y="1244"/>
      <point x="931" y="1238"/>
      <point x="925" y="1228" type="curve"/>
      <point x="900" y="1138"/>
      <point x="887" y="998"/>
      <point x="887" y="871" type="curve" smooth="yes"/>
      <point x="887" y="856"/>
      <point x="887" y="842"/>
      <point x="888" y="829" type="curve" smooth="yes"/>
      <point x="890" y="691"/>
      <point x="908" y="563"/>
      <point x="931" y="514" type="curve"/>
      <point x="928" y="514" type="line"/>
      <point x="933" y="507"/>
      <point x="938" y="503"/>
    </contour>
  </outline>
</glyph>
<glyph name="uniE0CF" format="2">
  <advance width="1000"/>
  <unicode hex="E0CF"/>
  <note>
uniE0CF
</note>
  <outline>
    <contour>
      <point x="504" y="777" type="line"/>
      <point x="990" y="1499" type="line"/>
      <point x="878" y="1661" type="line"/>
      <point x="877" y="1528" type="line"/>
      <point x="851" y="1451"/>
      <point x="796" y="1405"/>
      <point x="742" y="1405" type="curve" smooth="yes"/>
      <point x="692" y="1405"/>
      <point x="638" y="1449"/>
      <point x="607" y="1531" type="curve"/>
      <point x="609" y="1709" type="line"/>
      <point x="642" y="1630"/>
      <point x="697" y="1592"/>
      <point x="746" y="1592" type="curve" smooth="yes"/>
      <point x="802" y="1592"/>
      <point x="858" y="1637"/>
      <point x="878" y="1710" type="curve" smooth="yes"/>
      <point x="880" y="1721"/>
      <point x="882" y="1732"/>
      <point x="882" y="1743" type="curve"/>
      <point x="881" y="1745" type="line"/>
      <point x="881" y="1830"/>
      <point x="820" y="1898"/>
      <point x="744" y="1898" type="curve" smooth="yes"/>
      <point x="736" y="1898"/>
      <point x="728" y="1897"/>
      <point x="717" y="1895" type="curve"/>
      <point x="632" y="2018" type="line"/>
      <point x="631" y="1856" type="line"/>
      <point x="605" y="1779"/>
      <point x="550" y="1733"/>
      <point x="496" y="1733" type="curve" smooth="yes"/>
      <point x="446" y="1733"/>
      <point x="392" y="1776"/>
      <point x="361" y="1858" type="curve"/>
      <point x="362" y="2015" type="line"/>
      <point x="282" y="1892" type="line"/>
      <point x="272" y="1894"/>
      <point x="265" y="1895"/>
      <point x="259" y="1895" type="curve" smooth="yes"/>
      <point x="183" y="1895"/>
      <point x="122" y="1826"/>
      <point x="122" y="1739" type="curve" smooth="yes"/>
      <point x="122" y="1720"/>
      <point x="126" y="1701"/>
      <point x="132" y="1682" type="curve"/>
      <point x="166" y="1617"/>
      <point x="216" y="1584"/>
      <point x="262" y="1584" type="curve" smooth="yes"/>
      <point x="268" y="1584"/>
      <point x="273" y="1585"/>
      <point x="279" y="1586" type="curve" smooth="yes"/>
      <point x="329" y="1595"/>
      <point x="376" y="1639"/>
      <point x="392" y="1704" type="curve"/>
      <point x="391" y="1521" type="line"/>
      <point x="366" y="1444"/>
      <point x="311" y="1397"/>
      <point x="257" y="1397" type="curve" smooth="yes"/>
      <point x="207" y="1397"/>
      <point x="152" y="1441"/>
      <point x="122" y="1524" type="curve"/>
      <point x="122" y="1652" type="line"/>
      <point x="18" y="1495" type="line"/>
      <point x="18" y="1495" type="line"/>
    </contour>
    <contour>
      <point x="455" y="-470" type="line"/>
      <point x="455" y="578" type="line"/>
      <point x="2" y="1268" type="line"/>
      <point x="0" y="185" type="line"/>
      <point x="0" y="185" type="line"/>
    </contour>
    <contour>
      <point x="545" y="-480" type="line"/>
      <point x="1000" y="176" type="line"/>
      <point x="1000" y="1292" type="line"/>
      <point x="545" y="568" type="line"/>
      <point x="545" y="568" type="line"/>
    </contour>
    <contour>
      <point x="502" y="1043" type="line"/>
      <point x="452" y="1043"/>
      <point x="398" y="1085"/>
      <point x="368" y="1168" type="curve"/>
      <point x="369" y="1346" type="line"/>
      <point x="402" y="1267"/>
      <point x="458" y="1229"/>
      <point x="508" y="1229" type="curve" smooth="yes"/>
      <point x="511" y="1229"/>
      <point x="515" y="1230"/>
      <point x="518" y="1230" type="curve" smooth="yes"/>
      <point x="572" y="1237"/>
      <point x="621" y="1283"/>
      <point x="638" y="1349" type="curve"/>
      <point x="637" y="1166" type="line"/>
      <point x="612" y="1089"/>
      <point x="556" y="1043"/>
      <point x="502" y="1043" type="curve"/>
    </contour>
    <contour>
      <point x="501" y="1920" type="line"/>
      <point x="506" y="1920"/>
      <point x="512" y="1920"/>
      <point x="517" y="1921" type="curve" smooth="yes"/>
      <point x="568" y="1930"/>
      <point x="615" y="1974"/>
      <point x="632" y="2039" type="curve"/>
      <point x="632" y="2032" type="line"/>
      <point x="636" y="2044"/>
      <point x="637" y="2058"/>
      <point x="637" y="2071" type="curve" smooth="yes"/>
      <point x="637" y="2072" type="line" smooth="yes"/>
      <point x="636" y="2157"/>
      <point x="575" y="2226"/>
      <point x="499" y="2226" type="curve" smooth="yes"/>
      <point x="424" y="2226"/>
      <point x="362" y="2156"/>
      <point x="362" y="2071" type="curve" smooth="yes"/>
      <point x="362" y="2054"/>
      <point x="365" y="2039"/>
      <point x="369" y="2025" type="curve"/>
      <point x="369" y="2023" type="line"/>
      <point x="402" y="1955"/>
      <point x="453" y="1920"/>
      <point x="501" y="1920" type="curve"/>
    </contour>
  </outline>
</glyph>
<glyph name="uniE0D0" format="2">
  <advance width="1000"/>
  <unicode hex="E0D0"/>
  <note>
uniE0D0
</note>
  <outline>
    <contour>
      <point x="793" y="893" type="curve" smooth="yes"/>
      <point x="868" y="893"/>
      <point x="935" y="962"/>
      <point x="972" y="1071" type="curve" smooth="yes"/>
      <point x="990" y="1126"/>
      <point x="1000" y="1186"/>
      <point x="1000" y="1251" type="curve" smooth="yes"/>
      <point x="1000" y="1347"/>
      <point x="978" y="1438"/>
      <point x="939" y="1504" type="curve" smooth="yes"/>
      <point x="898" y="1574" type="line" smooth="yes"/>
      <point x="860" y="1640"/>
      <point x="808" y="1679"/>
      <point x="752" y="1679" type="curve" smooth="yes"/>
      <point x="678" y="1679"/>
      <point x="610" y="1610"/>
      <point x="573" y="1501" type="curve" smooth="yes"/>
      <point x="555" y="1446"/>
      <point x="546" y="1386"/>
      <point x="546" y="1321" type="curve" smooth="yes"/>
      <point x="546" y="1257"/>
      <point x="557" y="1193"/>
      <point x="574" y="1141" type="curve" smooth="yes"/>
      <point x="583" y="1114"/>
      <point x="593" y="1090"/>
      <point x="606" y="1068" type="curve"/>
      <point x="606" y="1068" type="line"/>
      <point x="648" y="998" type="line" smooth="yes"/>
      <point x="687" y="932"/>
      <point x="738" y="893"/>
    </contour>
    <contour>
      <point x="232" y="-160" type="line"/>
      <point x="189" y="-155"/>
      <point x="150" y="-127"/>
      <point x="118" y="-76" type="curve"/>
      <point x="118" y="-76" type="line"/>
      <point x="144" y="-99"/>
      <point x="173" y="-110"/>
      <point x="204" y="-111" type="curve"/>
    </contour>
    <contour>
      <point x="68" y="31" type="line"/>
      <point x="39" y="86"/>
      <point x="23" y="149"/>
      <point x="21" y="222" type="curve"/>
      <point x="21" y="222" type="line"/>
      <point x="27" y="211" type="line"/>
      <point x="31" y="150"/>
      <point x="43" y="95"/>
      <point x="64" y="44" type="curve"/>
    </contour>
    <contour>
      <point x="250" y="-161" type="curve"/>
      <point x="220" y="-110" type="line"/>
      <point x="323" y="-98"/>
      <point x="406" y="45"/>
      <point x="412" y="224" type="curve"/>
      <point x="442" y="172" type="line"/>
      <point x="442" y="52"/>
      <point x="406" y="-57"/>
      <point x="346" y="-116" type="curve"/>
      <point x="346" y="-116" type="line"/>
      <point x="317" y="-145"/>
      <point x="284" y="-160"/>
    </contour>
    <contour>
      <point x="26" y="241" type="line"/>
      <point x="20" y="251" type="line"/>
      <point x="21" y="283"/>
      <point x="23" y="314"/>
      <point x="28" y="344" type="curve"/>
      <point x="28" y="344" type="line"/>
      <point x="38" y="403"/>
      <point x="59" y="453"/>
      <point x="85" y="493" type="curve"/>
      <point x="45" y="424"/>
      <point x="26" y="342"/>
      <point x="26" y="247" type="curve" smooth="yes"/>
    </contour>
    <contour>
      <point x="248" y="-181" type="curve" smooth="yes"/>
      <point x="322" y="-181"/>
      <point x="390" y="-114"/>
      <point x="426" y="-4" type="curve" smooth="yes"/>
      <point x="444" y="52"/>
      <point x="454" y="112"/>
      <point x="454" y="177" type="curve" smooth="yes"/>
      <point x="454" y="273"/>
      <point x="432" y="364"/>
      <point x="393" y="430" type="curve"/>
      <point x="393" y="430" type="line"/>
      <point x="352" y="500" type="line" smooth="yes"/>
      <point x="314" y="566"/>
      <point x="262" y="605"/>
      <point x="207" y="605" type="curve" smooth="yes"/>
      <point x="132" y="605"/>
      <point x="64" y="536"/>
      <point x="28" y="427" type="curve" smooth="yes"/>
      <point x="9" y="372"/>
      <point x="0" y="312"/>
      <point x="0" y="247" type="curve" smooth="yes"/>
      <point x="0" y="151"/>
      <point x="21" y="60"/>
      <point x="60" y="-6" type="curve" smooth="yes"/>
      <point x="102" y="-76" type="line" smooth="yes"/>
      <point x="141" y="-142"/>
      <point x="192" y="-181"/>
    </contour>
    <contour>
      <point x="207" y="-76" type="curve" smooth="yes"/>
      <point x="169" y="-76"/>
      <point x="127" y="-41"/>
      <point x="94" y="16" type="curve"/>
      <point x="94" y="16" type="line"/>
      <point x="57" y="81"/>
      <point x="38" y="158"/>
      <point x="38" y="247" type="curve" smooth="yes"/>
      <point x="38" y="339"/>
      <point x="62" y="426"/>
      <point x="95" y="481" type="curve" smooth="yes"/>
      <point x="128" y="536"/>
      <point x="170" y="570"/>
      <point x="207" y="570" type="curve" smooth="yes"/>
      <point x="243" y="570"/>
      <point x="286" y="536"/>
      <point x="319" y="479" type="curve" smooth="yes"/>
      <point x="357" y="414"/>
      <point x="375" y="336"/>
      <point x="375" y="247" type="curve" smooth="yes"/>
      <point x="375" y="156"/>
      <point x="352" y="69"/>
      <point x="318" y="14" type="curve" smooth="yes"/>
      <point x="285" y="-41"/>
      <point x="242" y="-76"/>
    </contour>
    <contour>
      <point x="328" y="2" type="curve"/>
      <point x="364" y="65"/>
      <point x="383" y="139"/>
      <point x="387" y="224" type="curve"/>
      <point x="387" y="224" type="line"/>
      <point x="392" y="215" type="line"/>
      <point x="387" y="129"/>
      <point x="365" y="58"/>
    </contour>
    <contour>
      <point x="778" y="-160" type="line"/>
      <point x="735" y="-155"/>
      <point x="696" y="-127"/>
      <point x="663" y="-76" type="curve"/>
      <point x="663" y="-76" type="line"/>
      <point x="691" y="-99"/>
      <point x="719" y="-110"/>
      <point x="750" y="-111" type="curve"/>
    </contour>
    <contour>
      <point x="392" y="242" type="line"/>
      <point x="387" y="251" type="line"/>
      <point x="387" y="301"/>
      <point x="380" y="348"/>
      <point x="368" y="393" type="curve"/>
      <point x="372" y="386"/>
      <point x="375" y="378"/>
      <point x="379" y="370" type="curve"/>
      <point x="379" y="370" type="line"/>
      <point x="388" y="331"/>
      <point x="392" y="290"/>
      <point x="392" y="247" type="curve" smooth="yes"/>
    </contour>
    <contour>
      <point x="442" y="202" type="line"/>
      <point x="412" y="252" type="line"/>
      <point x="412" y="304"/>
      <point x="406" y="354"/>
      <point x="392" y="401" type="curve"/>
      <point x="422" y="344"/>
      <point x="438" y="278"/>
      <point x="442" y="202" type="curve"/>
    </contour>
    <contour>
      <point x="613" y="31" type="line"/>
      <point x="586" y="86"/>
      <point x="569" y="149"/>
      <point x="567" y="222" type="curve"/>
      <point x="567" y="222" type="line"/>
      <point x="572" y="211" type="line"/>
      <point x="577" y="150"/>
      <point x="589" y="95"/>
      <point x="610" y="44" type="curve"/>
    </contour>
    <contour>
      <point x="331" y="487" type="line" smooth="yes"/>
      <point x="332" y="486"/>
      <point x="330" y="488"/>
      <point x="330" y="488" type="curve"/>
      <point x="327" y="494" type="line"/>
      <point x="327" y="494" type="line"/>
    </contour>
    <contour>
      <point x="796" y="-161" type="curve"/>
      <point x="766" y="-110" type="line"/>
      <point x="869" y="-98"/>
      <point x="952" y="45"/>
      <point x="958" y="224" type="curve"/>
      <point x="988" y="173" type="line"/>
      <point x="988" y="52"/>
      <point x="952" y="-57"/>
      <point x="892" y="-116" type="curve"/>
      <point x="892" y="-116" type="line"/>
      <point x="862" y="-145"/>
      <point x="830" y="-160"/>
    </contour>
    <contour>
      <point x="572" y="241" type="line"/>
      <point x="566" y="251" type="line"/>
      <point x="567" y="347"/>
      <point x="591" y="433"/>
      <point x="631" y="493" type="curve"/>
      <point x="631" y="493" type="line"/>
      <point x="591" y="424"/>
      <point x="572" y="342"/>
      <point x="572" y="247" type="curve" smooth="yes"/>
    </contour>
    <contour>
      <point x="793" y="-181" type="curve" smooth="yes"/>
      <point x="868" y="-181"/>
      <point x="936" y="-114"/>
      <point x="972" y="-4" type="curve" smooth="yes"/>
      <point x="990" y="52"/>
      <point x="1000" y="112"/>
      <point x="1000" y="177" type="curve" smooth="yes"/>
      <point x="1000" y="241"/>
      <point x="988" y="305"/>
      <point x="972" y="358" type="curve" smooth="yes"/>
      <point x="963" y="384"/>
      <point x="952" y="408"/>
      <point x="939" y="430" type="curve"/>
      <point x="939" y="430" type="line"/>
      <point x="898" y="500" type="line" smooth="yes"/>
      <point x="860" y="566"/>
      <point x="808" y="605"/>
      <point x="752" y="605" type="curve" smooth="yes"/>
      <point x="678" y="605"/>
      <point x="610" y="536"/>
      <point x="573" y="427" type="curve" smooth="yes"/>
      <point x="555" y="372"/>
      <point x="546" y="312"/>
      <point x="546" y="247" type="curve" smooth="yes"/>
      <point x="546" y="151"/>
      <point x="567" y="60"/>
      <point x="606" y="-6" type="curve" smooth="yes"/>
      <point x="648" y="-76" type="line" smooth="yes"/>
      <point x="687" y="-142"/>
      <point x="738" y="-181"/>
    </contour>
    <contour>
      <point x="752" y="-76" type="curve" smooth="yes"/>
      <point x="728" y="-76"/>
      <point x="702" y="-61"/>
      <point x="676" y="-34" type="curve" smooth="yes"/>
      <point x="662" y="-20"/>
      <point x="651" y="-3"/>
      <point x="640" y="16" type="curve"/>
      <point x="640" y="16" type="line"/>
      <point x="602" y="81"/>
      <point x="583" y="158"/>
      <point x="583" y="247" type="curve" smooth="yes"/>
      <point x="583" y="322"/>
      <point x="598" y="392"/>
      <point x="622" y="444" type="curve" smooth="yes"/>
      <point x="634" y="469"/>
      <point x="648" y="492"/>
      <point x="662" y="511" type="curve" smooth="yes"/>
      <point x="691" y="550"/>
      <point x="722" y="570"/>
      <point x="752" y="570" type="curve" smooth="yes"/>
      <point x="789" y="570"/>
      <point x="832" y="536"/>
      <point x="865" y="479" type="curve" smooth="yes"/>
      <point x="902" y="414"/>
      <point x="922" y="336"/>
      <point x="922" y="247" type="curve" smooth="yes"/>
      <point x="922" y="156"/>
      <point x="898" y="69"/>
      <point x="864" y="14" type="curve" smooth="yes"/>
      <point x="831" y="-41"/>
      <point x="788" y="-76"/>
    </contour>
    <contour>
      <point x="232" y="914" type="line"/>
      <point x="189" y="919"/>
      <point x="150" y="947"/>
      <point x="118" y="998" type="curve"/>
      <point x="118" y="998" type="line"/>
      <point x="144" y="975"/>
      <point x="173" y="964"/>
      <point x="204" y="963" type="curve"/>
    </contour>
    <contour>
      <point x="873" y="2" type="curve"/>
      <point x="910" y="65"/>
      <point x="929" y="139"/>
      <point x="932" y="224" type="curve"/>
      <point x="932" y="224" type="line"/>
      <point x="938" y="215" type="line"/>
      <point x="932" y="129"/>
      <point x="912" y="58"/>
    </contour>
    <contour>
      <point x="68" y="1105" type="line"/>
      <point x="39" y="1160"/>
      <point x="23" y="1223"/>
      <point x="21" y="1296" type="curve"/>
      <point x="21" y="1296" type="line"/>
      <point x="27" y="1285" type="line"/>
      <point x="31" y="1224"/>
      <point x="43" y="1169"/>
      <point x="64" y="1118" type="curve"/>
    </contour>
    <contour>
      <point x="938" y="242" type="line"/>
      <point x="932" y="252" type="line"/>
      <point x="932" y="301"/>
      <point x="926" y="348"/>
      <point x="914" y="393" type="curve"/>
      <point x="918" y="386"/>
      <point x="922" y="378"/>
      <point x="925" y="370" type="curve"/>
      <point x="925" y="370" type="line"/>
      <point x="934" y="331"/>
      <point x="938" y="290"/>
      <point x="938" y="247" type="curve" smooth="yes"/>
    </contour>
    <contour>
      <point x="988" y="202" type="line"/>
      <point x="959" y="252" type="line"/>
      <point x="958" y="304"/>
      <point x="952" y="354"/>
      <point x="938" y="401" type="curve"/>
      <point x="968" y="344"/>
      <point x="984" y="278"/>
      <point x="988" y="202" type="curve"/>
    </contour>
    <contour>
      <point x="250" y="913" type="curve"/>
      <point x="220" y="964" type="line"/>
      <point x="323" y="976"/>
      <point x="406" y="1119"/>
      <point x="412" y="1298" type="curve"/>
      <point x="442" y="1247" type="line"/>
      <point x="442" y="1156"/>
      <point x="419" y="1071"/>
      <point x="385" y="1012" type="curve"/>
      <point x="385" y="1012" type="line"/>
      <point x="351" y="952"/>
      <point x="301" y="913"/>
    </contour>
    <contour>
      <point x="26" y="1315" type="line"/>
      <point x="20" y="1325" type="line"/>
      <point x="21" y="1421"/>
      <point x="45" y="1507"/>
      <point x="85" y="1567" type="curve"/>
      <point x="85" y="1567" type="line"/>
      <point x="45" y="1498"/>
      <point x="26" y="1416"/>
      <point x="26" y="1321" type="curve" smooth="yes"/>
    </contour>
    <contour>
      <point x="877" y="487" type="line" smooth="yes"/>
      <point x="878" y="486"/>
      <point x="877" y="488"/>
      <point x="876" y="488" type="curve"/>
      <point x="874" y="492" type="line"/>
      <point x="874" y="492" type="line"/>
    </contour>
    <contour>
      <point x="248" y="893" type="curve" smooth="yes"/>
      <point x="322" y="893"/>
      <point x="389" y="962"/>
      <point x="426" y="1071" type="curve" smooth="yes"/>
      <point x="444" y="1126"/>
      <point x="454" y="1186"/>
      <point x="454" y="1251" type="curve" smooth="yes"/>
      <point x="454" y="1347"/>
      <point x="432" y="1438"/>
      <point x="393" y="1504" type="curve"/>
      <point x="393" y="1504" type="line"/>
      <point x="352" y="1574" type="line" smooth="yes"/>
      <point x="314" y="1640"/>
      <point x="262" y="1679"/>
      <point x="207" y="1679" type="curve" smooth="yes"/>
      <point x="132" y="1679"/>
      <point x="64" y="1610"/>
      <point x="28" y="1501" type="curve" smooth="yes"/>
      <point x="9" y="1446"/>
      <point x="0" y="1386"/>
      <point x="0" y="1321" type="curve" smooth="yes"/>
      <point x="0" y="1225"/>
      <point x="21" y="1134"/>
      <point x="60" y="1068" type="curve" smooth="yes"/>
      <point x="102" y="998" type="line" smooth="yes"/>
      <point x="141" y="932"/>
      <point x="192" y="893"/>
    </contour>
    <contour>
      <point x="207" y="998" type="curve" smooth="yes"/>
      <point x="169" y="998"/>
      <point x="127" y="1033"/>
      <point x="94" y="1090" type="curve"/>
      <point x="94" y="1090" type="line"/>
      <point x="57" y="1155"/>
      <point x="38" y="1232"/>
      <point x="38" y="1321" type="curve" smooth="yes"/>
      <point x="38" y="1413"/>
      <point x="62" y="1500"/>
      <point x="95" y="1555" type="curve" smooth="yes"/>
      <point x="128" y="1610"/>
      <point x="170" y="1644"/>
      <point x="207" y="1644" type="curve" smooth="yes"/>
      <point x="243" y="1644"/>
      <point x="286" y="1610"/>
      <point x="319" y="1553" type="curve" smooth="yes"/>
      <point x="357" y="1488"/>
      <point x="375" y="1410"/>
      <point x="375" y="1321" type="curve" smooth="yes"/>
      <point x="375" y="1230"/>
      <point x="352" y="1143"/>
      <point x="318" y="1088" type="curve" smooth="yes"/>
      <point x="285" y="1033"/>
      <point x="242" y="998"/>
    </contour>
    <contour>
      <point x="328" y="1076" type="curve"/>
      <point x="364" y="1139"/>
      <point x="383" y="1213"/>
      <point x="387" y="1298" type="curve"/>
      <point x="387" y="1298" type="line"/>
      <point x="392" y="1289" type="line"/>
      <point x="387" y="1203"/>
      <point x="366" y="1132"/>
    </contour>
    <contour>
      <point x="778" y="914" type="line"/>
      <point x="735" y="919"/>
      <point x="696" y="947"/>
      <point x="663" y="998" type="curve"/>
      <point x="663" y="998" type="line"/>
      <point x="691" y="975"/>
      <point x="719" y="964"/>
      <point x="750" y="963" type="curve"/>
    </contour>
    <contour>
      <point x="392" y="1316" type="line"/>
      <point x="387" y="1325" type="line"/>
      <point x="387" y="1375"/>
      <point x="380" y="1422"/>
      <point x="368" y="1467" type="curve"/>
      <point x="372" y="1460"/>
      <point x="375" y="1452"/>
      <point x="379" y="1444" type="curve"/>
      <point x="379" y="1444" type="line"/>
      <point x="388" y="1405"/>
      <point x="392" y="1364"/>
      <point x="392" y="1321" type="curve" smooth="yes"/>
    </contour>
    <contour>
      <point x="442" y="1276" type="line"/>
      <point x="412" y="1325" type="line"/>
      <point x="412" y="1378"/>
      <point x="406" y="1428"/>
      <point x="392" y="1475" type="curve"/>
      <point x="422" y="1418"/>
      <point x="438" y="1352"/>
      <point x="442" y="1276" type="curve"/>
    </contour>
    <contour>
      <point x="613" y="1105" type="line"/>
      <point x="586" y="1160"/>
      <point x="569" y="1223"/>
      <point x="567" y="1296" type="curve"/>
      <point x="567" y="1296" type="line"/>
      <point x="572" y="1285" type="line"/>
      <point x="577" y="1224"/>
      <point x="589" y="1169"/>
      <point x="610" y="1118" type="curve"/>
    </contour>
    <contour>
      <point x="331" y="1561" type="line" smooth="yes"/>
      <point x="332" y="1560"/>
      <point x="330" y="1562"/>
      <point x="330" y="1562" type="curve"/>
      <point x="327" y="1567" type="line"/>
      <point x="327" y="1567" type="line"/>
      <point x="327" y="1568" type="line"/>
    </contour>
    <contour>
      <point x="796" y="913" type="curve"/>
      <point x="766" y="964" type="line"/>
      <point x="869" y="976"/>
      <point x="952" y="1119"/>
      <point x="958" y="1298" type="curve"/>
      <point x="988" y="1247" type="line"/>
      <point x="988" y="1126"/>
      <point x="951" y="1018"/>
      <point x="892" y="959" type="curve"/>
      <point x="892" y="959" type="line"/>
      <point x="862" y="930"/>
      <point x="830" y="914"/>
    </contour>
    <contour>
      <point x="572" y="1315" type="line"/>
      <point x="566" y="1325" type="line"/>
      <point x="567" y="1421"/>
      <point x="591" y="1507"/>
      <point x="631" y="1567" type="curve"/>
      <point x="631" y="1567" type="line"/>
      <point x="591" y="1498"/>
      <point x="572" y="1416"/>
      <point x="572" y="1321" type="curve" smooth="yes"/>
    </contour>
    <contour>
      <point x="752" y="998" type="curve" smooth="yes"/>
      <point x="715" y="998"/>
      <point x="672" y="1033"/>
      <point x="640" y="1090" type="curve" smooth="yes"/>
      <point x="602" y="1155"/>
      <point x="583" y="1232"/>
      <point x="583" y="1321" type="curve" smooth="yes"/>
      <point x="583" y="1413"/>
      <point x="608" y="1500"/>
      <point x="641" y="1555" type="curve"/>
      <point x="641" y="1555" type="line"/>
      <point x="674" y="1610"/>
      <point x="716" y="1644"/>
      <point x="752" y="1644" type="curve" smooth="yes"/>
      <point x="789" y="1644"/>
      <point x="832" y="1610"/>
      <point x="865" y="1553" type="curve" smooth="yes"/>
      <point x="902" y="1488"/>
      <point x="922" y="1410"/>
      <point x="922" y="1321" type="curve" smooth="yes"/>
      <point x="922" y="1230"/>
      <point x="898" y="1143"/>
      <point x="864" y="1088" type="curve" smooth="yes"/>
      <point x="831" y="1033"/>
      <point x="788" y="998"/>
    </contour>
    <contour>
      <point x="873" y="1076" type="line"/>
      <point x="910" y="1139"/>
      <point x="929" y="1213"/>
      <point x="932" y="1298" type="curve"/>
      <point x="938" y="1289" type="line"/>
      <point x="932" y="1203"/>
      <point x="912" y="1132"/>
      <point x="873" y="1076" type="curve"/>
    </contour>
    <contour>
      <point x="938" y="1316" type="line"/>
      <point x="932" y="1326" type="line"/>
      <point x="932" y="1375"/>
      <point x="926" y="1422"/>
      <point x="914" y="1467" type="curve"/>
      <point x="918" y="1460"/>
      <point x="922" y="1452"/>
      <point x="925" y="1444" type="curve"/>
      <point x="925" y="1444" type="line"/>
      <point x="934" y="1405"/>
      <point x="938" y="1364"/>
      <point x="938" y="1321" type="curve" smooth="yes"/>
    </contour>
    <contour>
      <point x="988" y="1276" type="line"/>
      <point x="959" y="1326" type="line"/>
      <point x="958" y="1378"/>
      <point x="952" y="1428"/>
      <point x="938" y="1475" type="curve"/>
      <point x="968" y="1418"/>
      <point x="984" y="1352"/>
      <point x="988" y="1276" type="curve"/>
    </contour>
    <contour>
      <point x="877" y="1561" type="line"/>
      <point x="878" y="1560"/>
      <point x="877" y="1562"/>
      <point x="876" y="1562" type="curve"/>
      <point x="872" y="1567" type="line"/>
      <point x="874" y="1566"/>
      <point x="874" y="1564"/>
      <point x="877" y="1561" type="curve"/>
    </contour>
  </outline>
</glyph>
<glyph name="uniE0D1" format="2">
  <advance width="1000"/>
  <unicode hex="E0D1"/>
  <note>
uniE0D1
</note>
  <outline>
    <contour>
      <point x="0" y="-480" type="line"/>
      <point x="761" y="-480" type="line"/>
      <point x="761" y="-88" type="line"/>
      <point x="971" y="-88" type="line" smooth="yes"/>
      <point x="983" y="-88"/>
      <point x="998" y="-64"/>
      <point x="998" y="-32" type="curve" smooth="yes"/>
      <point x="998" y="646" type="line" smooth="yes"/>
      <point x="998" y="671"/>
      <point x="986" y="699"/>
      <point x="971" y="699" type="curve" smooth="yes"/>
      <point x="761" y="699" type="line"/>
      <point x="761" y="1137" type="line"/>
      <point x="972" y="1137" type="line" smooth="yes"/>
      <point x="986" y="1137"/>
      <point x="1000" y="1162"/>
      <point x="1000" y="1192" type="curve" smooth="yes"/>
      <point x="1000" y="1876" type="line" smooth="yes"/>
      <point x="1000" y="1903"/>
      <point x="988" y="1932"/>
      <point x="972" y="1932" type="curve" smooth="yes"/>
      <point x="761" y="1932" type="line"/>
      <point x="761" y="2226" type="line"/>
      <point x="0" y="2226" type="line"/>
    </contour>
    <contour>
      <point x="764" y="447" type="line"/>
      <point x="764" y="590" type="line"/>
      <point x="959" y="590" type="line"/>
      <point x="959" y="447" type="line"/>
    </contour>
    <contour>
      <point x="764" y="1692" type="line"/>
      <point x="764" y="1836" type="line"/>
      <point x="959" y="1836" type="line"/>
      <point x="959" y="1692" type="line"/>
    </contour>
  </outline>
</glyph>
<glyph name="uniE0D2" format="2">
  <advance width="1000"/>
  <unicode hex="E0D2"/>
  <note>
uniE0D2
</note>
  <outline>
    <contour>
      <point x="0" y="-480" type="line"/>
      <point x="1000" y="-480" type="line"/>
      <point x="309" y="753" type="line"/>
      <point x="0" y="753" type="line"/>
    </contour>
    <contour>
      <point x="0" y="993" type="line"/>
      <point x="318" y="993" type="line"/>
      <point x="977" y="2226" type="line"/>
      <point x="0" y="2226" type="line"/>
    </contour>
  </outline>
</glyph>
<glyph name="uniE0A0.stypo" format="2">
  <advance width="1000"/>
  <note>
uniE0A0
</note>
  <outline>
    <contour>
      <point x="140" y="-480" type="line"/>
      <point x="370" y="-480" type="line"/>
      <point x="370" y="8" type="line" smooth="yes"/>
      <point x="370" y="267"/>
      <point x="439" y="310"/>
      <point x="657" y="488" type="curve" smooth="yes"/>
      <point x="788" y="596"/>
      <point x="834" y="702"/>
      <point x="834" y="894" type="curve" smooth="yes"/>
      <point x="834" y="1210" type="line"/>
      <point x="1008" y="1210" type="line"/>
      <point x="766" y="1552" type="line"/>
      <point x="522" y="1210" type="line"/>
      <point x="696" y="1210" type="line"/>
      <point x="696" y="950" type="line" smooth="yes"/>
      <point x="696" y="825"/>
      <point x="665" y="737"/>
      <point x="558" y="662" type="curve" smooth="yes"/>
      <point x="180" y="399"/>
      <point x="140" y="308"/>
      <point x="140" y="8" type="curve"/>
    </contour>
    <contour>
      <point x="140" y="642" type="line"/>
      <point x="370" y="820" type="line"/>
      <point x="370" y="1900" type="line"/>
      <point x="140" y="1900" type="line"/>
    </contour>
  </outline>
</glyph>
<glyph name="uniE0B1.stypo" format="2">
  <advance width="1000"/>
  <note>
uniE0B1
</note>
  <outline>
    <contour>
      <point x="86" y="-480" type="line"/>
      <point x="1000" y="710" type="line"/>
      <point x="86" y="1900" type="line"/>
      <point x="0" y="1793" type="line"/>
      <point x="833" y="710" type="line"/>
      <point x="0" y="-372" type="line"/>
    </contour>
  </outline>
</glyph>
<glyph name="uniE0B5.stypo" format="2">
  <advance width="1000"/>
  <note>
uniE0B5
</note>
  <outline>
    <contour>
      <point x="0" y="-480" type="curve"/>
      <point x="198" y="-480" type="line"/>
      <point x="708" y="-262"/>
      <point x="1000" y="171"/>
      <point x="1000" y="710" type="curve" smooth="yes"/>
      <point x="1000" y="1246"/>
      <point x="708" y="1680"/>
      <point x="198" y="1900" type="curve"/>
      <point x="0" y="1900" type="line"/>
      <point x="510" y="1674"/>
      <point x="802" y="1241"/>
      <point x="802" y="710" type="curve" smooth="yes"/>
      <point x="802" y="177"/>
      <point x="510" y="-256"/>
    </contour>
  </outline>
</glyph>
<glyph name="uniE0B6.stypo" format="2">
  <advance width="1000"/>
  <note>
uniE0B6
</note>
  <outline>
    <contour>
      <point x="1000" y="-480" type="curve"/>
      <point x="1000" y="1900" type="line"/>
      <point x="398" y="1900"/>
      <point x="0" y="1427"/>
      <point x="0" y="710" type="curve" smooth="yes"/>
      <point x="0" y="-8"/>
      <point x="398" y="-480"/>
    </contour>
  </outline>
</glyph>
<glyph name="uniE0BF.stypo" format="2">
  <advance width="1000"/>
  <note>
uniE0BF
</note>
  <outline>
    <contour>
      <point x="953" y="-480" type="line"/>
      <point x="1000" y="-480" type="line"/>
      <point x="47" y="1900" type="line"/>
      <point x="0" y="1900" type="line"/>
    </contour>
  </outline>
</glyph>
